<?xml version="1.0" encoding="UTF-8"?>
<svg xmlns="http://www.w3.org/2000/svg" xmlns:xlink="http://www.w3.org/1999/xlink" width="60pt" height="60pt" viewBox="0 0 60 60" version="1.1">
<g id="surface1">
<path style=" stroke:none;fill-rule:nonzero;fill:#FDFDFD;fill-opacity:1;" d="M 40.460938 5.921875 C 36.265625 5.921875 35.527344 8.882813 35.527344 8.882813 C 34.0625 8.882813 32.890625 9.429688 31.980469 10.347656 C 32.988281 12.519531 33.550781 15.027344 33.550781 17.761719 C 33.550781 19.136719 33.28125 20.46875 32.972656 21.53125 C 33.382813 22.496094 33.582031 23.660156 33.414063 24.996094 C 33.207031 26.605469 32.71875 27.847656 32.101563 28.828125 C 32.480469 29.914063 33.175781 31.03125 33.859375 31.910156 C 36.96875 29.25 40.992188 27.632813 45.394531 27.632813 C 46.644531 27.632813 47.855469 27.761719 49.035156 28.007813 C 49.050781 27.917969 49.078125 27.816406 49.085938 27.722656 C 49.789063 27.671875 50.882813 27.03125 51.207031 24.492188 C 51.386719 23.136719 50.691406 22.375 50.273438 22.132813 C 50.273438 22.132813 51.316406 19.945313 51.316406 17.761719 C 51.316406 11.292969 47.34375 5.921875 40.460938 5.921875 Z M 18.75 5.921875 C 14.554688 5.921875 13.816406 8.882813 13.816406 8.882813 C 9.777344 8.882813 7.894531 12.976563 7.894531 17.761719 C 7.894531 20.160156 8.9375 22.132813 8.9375 22.132813 C 8.519531 22.375 7.824219 23.136719 8.003906 24.492188 C 8.328125 27.03125 9.421875 27.679688 10.121094 27.722656 C 10.394531 30.089844 12.929688 33.113281 13.816406 33.550781 L 13.816406 37.5 C 11.84375 43.421875 0 39.472656 0 53.289063 L 29.503906 53.289063 C 28.316406 50.90625 27.632813 48.230469 27.632813 45.394531 C 27.632813 43.929688 27.832031 42.519531 28.164063 41.164063 C 26.113281 40.351563 24.347656 39.480469 23.683594 37.5 L 23.683594 33.550781 C 24.570313 33.113281 27.105469 30.089844 27.378906 27.722656 C 28.078125 27.671875 29.171875 27.03125 29.496094 24.492188 C 29.675781 23.136719 28.980469 22.375 28.5625 22.132813 C 28.5625 22.132813 29.605469 19.945313 29.605469 17.761719 C 29.605469 11.292969 25.632813 5.921875 18.75 5.921875 Z M 45.394531 31.578125 C 37.761719 31.578125 31.578125 37.761719 31.578125 45.394531 C 31.578125 53.027344 37.761719 59.210938 45.394531 59.210938 C 53.027344 59.210938 59.210938 53.027344 59.210938 45.394531 C 59.210938 37.761719 53.027344 31.578125 45.394531 31.578125 Z M 45.394531 37.5 C 46.480469 37.5 47.367188 38.378906 47.367188 39.472656 L 47.367188 43.421875 L 51.316406 43.421875 C 52.402344 43.421875 53.289063 44.300781 53.289063 45.394531 C 53.289063 46.488281 52.402344 47.367188 51.316406 47.367188 L 47.367188 47.367188 L 47.367188 51.316406 C 47.367188 52.410156 46.480469 53.289063 45.394531 53.289063 C 44.308594 53.289063 43.421875 52.410156 43.421875 51.316406 L 43.421875 47.367188 L 39.472656 47.367188 C 38.386719 47.367188 37.5 46.488281 37.5 45.394531 C 37.5 44.300781 38.386719 43.421875 39.472656 43.421875 L 43.421875 43.421875 L 43.421875 39.472656 C 43.421875 38.378906 44.308594 37.5 45.394531 37.5 Z "/>
</g>
</svg>
