<?xml version="1.0" encoding="UTF-8"?>
<svg xmlns="http://www.w3.org/2000/svg" xmlns:xlink="http://www.w3.org/1999/xlink" width="60pt" height="60pt" viewBox="0 0 60 60" version="1.1">
<g id="surface1">
<path style=" stroke:none;fill-rule:nonzero;fill:#FDFDFD;fill-opacity:1;" d="M 29.605469 3.949219 C 21.234375 3.949219 17.761719 9.320313 17.761719 15.789063 C 17.761719 17.972656 18.804688 20.160156 18.804688 20.160156 C 18.386719 20.398438 17.695313 21.164063 17.871094 22.519531 C 18.195313 25.054688 19.289063 25.703125 19.992188 25.75 C 20.261719 28.117188 22.796875 31.140625 23.683594 31.578125 L 23.683594 35.527344 C 21.710938 41.449219 5.921875 37.5 5.921875 51.316406 L 28.664063 51.316406 C 28.007813 49.457031 27.632813 47.476563 27.632813 45.394531 C 27.632813 38.410156 31.671875 32.386719 37.53125 29.480469 C 38.339844 28.355469 39.082031 26.96875 39.21875 25.75 C 39.921875 25.703125 41.015625 25.054688 41.339844 22.519531 C 41.515625 21.164063 40.824219 20.398438 40.40625 20.160156 C 40.40625 20.160156 41.449219 18.1875 41.449219 15.789063 C 41.449219 11 39.566406 6.90625 35.527344 6.90625 C 35.527344 6.90625 34.125 3.949219 29.605469 3.949219 Z M 45.394531 31.578125 C 37.761719 31.578125 31.578125 37.761719 31.578125 45.394531 C 31.578125 53.027344 37.761719 59.210938 45.394531 59.210938 C 53.027344 59.210938 59.210938 53.027344 59.210938 45.394531 C 59.210938 37.761719 53.027344 31.578125 45.394531 31.578125 Z M 45.394531 37.5 C 46.480469 37.5 47.367188 38.378906 47.367188 39.472656 L 47.367188 43.421875 L 51.316406 43.421875 C 52.402344 43.421875 53.289063 44.300781 53.289063 45.394531 C 53.289063 46.488281 52.402344 47.367188 51.316406 47.367188 L 47.367188 47.367188 L 47.367188 51.316406 C 47.367188 52.410156 46.480469 53.289063 45.394531 53.289063 C 44.308594 53.289063 43.421875 52.410156 43.421875 51.316406 L 43.421875 47.367188 L 39.472656 47.367188 C 38.386719 47.367188 37.5 46.488281 37.5 45.394531 C 37.5 44.300781 38.386719 43.421875 39.472656 43.421875 L 43.421875 43.421875 L 43.421875 39.472656 C 43.421875 38.378906 44.308594 37.5 45.394531 37.5 Z "/>
</g>
</svg>
