<?xml version="1.0" encoding="UTF-8"?>
<svg xmlns="http://www.w3.org/2000/svg" xmlns:xlink="http://www.w3.org/1999/xlink" width="60pt" height="60pt" viewBox="0 0 60 60" version="1.1">
<g id="surface1">
<path style=" stroke:none;fill-rule:nonzero;fill:#FDFDFD;fill-opacity:1;" d="M 7.894531 5.921875 C 5.710938 5.921875 3.949219 7.6875 3.949219 9.867188 L 3.949219 15.789063 L 55.261719 15.789063 L 55.261719 13.816406 C 55.261719 11.632813 53.496094 9.867188 51.316406 9.867188 L 22.105469 9.867188 L 20.886719 7.832031 C 20.175781 6.644531 18.890625 5.921875 17.5 5.921875 Z M 5.921875 19.738281 C 4.835938 19.738281 3.949219 20.625 3.949219 21.710938 L 3.949219 45.394531 C 3.949219 47.578125 5.710938 49.34375 7.894531 49.34375 L 28.085938 49.34375 C 27.792969 48.070313 27.632813 46.75 27.632813 45.394531 C 27.632813 35.582031 35.582031 27.632813 45.394531 27.632813 C 49.050781 27.632813 52.441406 28.734375 55.261719 30.621094 L 55.261719 21.710938 C 55.261719 20.625 54.375 19.738281 53.289063 19.738281 Z M 45.394531 31.578125 C 37.761719 31.578125 31.578125 37.761719 31.578125 45.394531 C 31.578125 53.027344 37.761719 59.210938 45.394531 59.210938 C 53.027344 59.210938 59.210938 53.027344 59.210938 45.394531 C 59.210938 37.761719 53.027344 31.578125 45.394531 31.578125 Z M 45.394531 37.5 C 46.480469 37.5 47.367188 38.378906 47.367188 39.472656 L 47.367188 43.421875 L 51.316406 43.421875 C 52.402344 43.421875 53.289063 44.300781 53.289063 45.394531 C 53.289063 46.488281 52.402344 47.367188 51.316406 47.367188 L 47.367188 47.367188 L 47.367188 51.316406 C 47.367188 52.410156 46.480469 53.289063 45.394531 53.289063 C 44.308594 53.289063 43.421875 52.410156 43.421875 51.316406 L 43.421875 47.367188 L 39.472656 47.367188 C 38.386719 47.367188 37.5 46.488281 37.5 45.394531 C 37.5 44.300781 38.386719 43.421875 39.472656 43.421875 L 43.421875 43.421875 L 43.421875 39.472656 C 43.421875 38.378906 44.308594 37.5 45.394531 37.5 Z "/>
</g>
</svg>
