<?xml version="1.0" encoding="UTF-8"?>
<svg xmlns="http://www.w3.org/2000/svg" xmlns:xlink="http://www.w3.org/1999/xlink" width="100pt" height="100pt" viewBox="0 0 100 100" version="1.1">
<g id="surface1">
<path style=" stroke:none;fill-rule:nonzero;fill:#FDFDFD;fill-opacity:1;" d="M 49.601563 0 C 45.222656 0 41.667969 3.558594 41.667969 7.9375 C 41.667969 12.316406 45.222656 15.871094 49.601563 15.871094 C 53.980469 15.871094 57.539063 12.316406 57.539063 7.9375 C 57.539063 3.558594 53.980469 0 49.601563 0 Z M 38.441406 12.089844 C 29.375 15.972656 23.808594 24.714844 23.808594 35.714844 C 23.808594 57.539063 16.269531 63.019531 11.78125 66.28125 C 9.789063 67.722656 7.9375 69.066406 7.9375 71.429688 C 7.9375 79.777344 20.398438 83.332031 49.601563 83.332031 C 78.808594 83.332031 91.269531 79.777344 91.269531 71.429688 C 91.269531 69.066406 89.417969 67.722656 87.425781 66.28125 C 82.9375 63.019531 75.398438 57.539063 75.398438 35.714844 C 75.398438 24.683594 69.839844 15.964844 60.765625 12.089844 C 59.066406 16.601563 54.695313 19.839844 49.601563 19.839844 C 44.511719 19.839844 40.140625 16.59375 38.441406 12.089844 Z M 37.699219 87.054688 C 37.699219 87.132813 37.699219 87.222656 37.699219 87.300781 C 37.699219 93.867188 43.039063 99.207031 49.601563 99.207031 C 56.167969 99.207031 61.507813 93.867188 61.507813 87.300781 C 61.507813 87.222656 61.507813 87.132813 61.507813 87.054688 C 57.773438 87.207031 53.804688 87.300781 49.601563 87.300781 C 45.402344 87.300781 41.433594 87.207031 37.699219 87.054688 Z "/>
</g>
</svg>
