<?xml version="1.0" encoding="UTF-8"?>
<svg xmlns="http://www.w3.org/2000/svg" xmlns:xlink="http://www.w3.org/1999/xlink" width="60pt" height="60pt" viewBox="0 0 60 60" version="1.1">
<g id="surface1">
<path style=" stroke:none;fill-rule:nonzero;fill:#FDFDFD;fill-opacity:1;" d="M 13.777344 17.746094 C 13.261719 17.753906 12.773438 17.972656 12.421875 18.339844 L 2.730469 28.03125 C 2.234375 28.410156 1.949219 28.988281 1.949219 29.605469 C 1.941406 30.214844 2.226563 30.792969 2.714844 31.171875 C 2.722656 31.171875 2.722656 31.179688 2.730469 31.179688 L 12.421875 40.867188 C 12.914063 41.386719 13.652344 41.59375 14.339844 41.410156 C 15.035156 41.230469 15.574219 40.691406 15.75 39.996094 C 15.9375 39.3125 15.726563 38.570313 15.210938 38.078125 L 8.710938 31.578125 L 55.261719 31.578125 C 55.972656 31.585938 56.636719 31.214844 56.996094 30.601563 C 57.351563 29.984375 57.351563 29.226563 56.996094 28.609375 C 56.636719 27.992188 55.972656 27.625 55.261719 27.632813 L 8.710938 27.632813 L 15.210938 21.132813 C 15.796875 20.5625 15.96875 19.699219 15.652344 18.949219 C 15.335938 18.195313 14.59375 17.71875 13.777344 17.746094 Z "/>
</g>
</svg>
