<?xml version="1.0" encoding="UTF-8"?>
<svg xmlns="http://www.w3.org/2000/svg" xmlns:xlink="http://www.w3.org/1999/xlink" width="60pt" height="60pt" viewBox="0 0 60 60" version="1.1">
<g id="surface1">
<path style=" stroke:none;fill-rule:nonzero;fill:#FDFDFD;fill-opacity:1;" d="M 29.605469 5.921875 C 16.523438 5.921875 5.921875 16.523438 5.921875 29.605469 C 5.921875 42.6875 16.523438 53.289063 29.605469 53.289063 C 42.6875 53.289063 53.289063 42.6875 53.289063 29.605469 C 53.289063 16.523438 42.6875 5.921875 29.605469 5.921875 Z M 31.996094 15.789063 L 31.601563 33.550781 L 27.609375 33.550781 L 27.214844 15.789063 Z M 29.613281 43.792969 C 27.976563 43.792969 27 42.921875 27 41.460938 C 27 39.976563 27.976563 39.105469 29.613281 39.105469 C 31.230469 39.105469 32.210938 39.976563 32.210938 41.460938 C 32.210938 42.921875 31.230469 43.792969 29.613281 43.792969 Z "/>
</g>
</svg>
