<?xml version="1.0" encoding="UTF-8"?>
<svg xmlns="http://www.w3.org/2000/svg" xmlns:xlink="http://www.w3.org/1999/xlink" width="60pt" height="60pt" viewBox="0 0 60 60" version="1.1">
<g id="surface1">
<path style=" stroke:none;fill-rule:nonzero;fill:#FDFDFD;fill-opacity:1;" d="M 43.421875 3.960938 C 40.382813 3.960938 37.351563 5.113281 35.046875 7.417969 L 31.101563 11.363281 C 27.730469 14.734375 26.84375 19.652344 28.410156 23.847656 C 28.640625 24.523438 29.226563 25.027344 29.9375 25.15625 C 30.636719 25.28125 31.363281 25.011719 31.816406 24.457031 C 32.265625 23.890625 32.378906 23.128906 32.101563 22.464844 C 31.0625 19.660156 31.632813 16.414063 33.890625 14.15625 L 37.839844 10.207031 C 40.9375 7.109375 45.902344 7.109375 49.003906 10.207031 C 52.101563 13.308594 52.101563 18.273438 49.003906 21.371094 L 45.054688 25.320313 C 42.796875 27.578125 39.542969 28.148438 36.738281 27.101563 C 35.71875 26.722656 34.578125 27.238281 34.199219 28.257813 C 33.824219 29.28125 34.339844 30.421875 35.363281 30.800781 C 39.558594 32.367188 44.476563 31.480469 47.847656 28.109375 L 51.792969 24.164063 C 56.402344 19.550781 56.402344 12.027344 51.792969 7.417969 C 49.488281 5.113281 46.457031 3.960938 43.421875 3.960938 Z M 21.679688 7.863281 C 20.59375 7.886719 19.722656 8.78125 19.738281 9.867188 L 19.738281 15.789063 C 19.730469 16.5 20.097656 17.160156 20.714844 17.523438 C 21.332031 17.878906 22.089844 17.878906 22.703125 17.523438 C 23.320313 17.160156 23.691406 16.5 23.683594 15.789063 L 23.683594 9.867188 C 23.691406 9.335938 23.484375 8.820313 23.105469 8.441406 C 22.726563 8.0625 22.210938 7.855469 21.679688 7.863281 Z M 9.867188 19.738281 C 9.160156 19.730469 8.496094 20.097656 8.132813 20.714844 C 7.777344 21.332031 7.777344 22.089844 8.132813 22.703125 C 8.496094 23.320313 9.160156 23.691406 9.867188 23.683594 L 15.789063 23.683594 C 16.5 23.691406 17.160156 23.320313 17.523438 22.703125 C 17.878906 22.089844 17.878906 21.332031 17.523438 20.714844 C 17.160156 20.097656 16.5 19.730469 15.789063 19.738281 Z M 18.941406 27.6875 C 18.386719 27.722656 17.839844 27.792969 17.300781 27.910156 C 15.117188 28.347656 13.050781 29.414063 11.363281 31.101563 L 7.417969 35.046875 C 2.804688 39.660156 2.804688 47.183594 7.417969 51.792969 C 12.027344 56.402344 19.550781 56.402344 24.164063 51.792969 L 28.109375 47.847656 C 31.480469 44.476563 32.367188 39.558594 30.800781 35.363281 C 30.570313 34.6875 29.984375 34.183594 29.273438 34.054688 C 28.570313 33.929688 27.847656 34.199219 27.390625 34.753906 C 26.945313 35.316406 26.828125 36.082031 27.105469 36.746094 C 28.148438 39.550781 27.578125 42.796875 25.320313 45.054688 L 21.371094 49.003906 C 18.273438 52.101563 13.308594 52.101563 10.207031 49.003906 C 7.109375 45.902344 7.109375 40.9375 10.207031 37.839844 L 14.15625 33.890625 C 16.414063 31.632813 19.667969 31.0625 22.472656 32.109375 C 23.492188 32.488281 24.632813 31.972656 25.011719 30.953125 C 25.386719 29.929688 24.871094 28.789063 23.847656 28.410156 C 22.273438 27.824219 20.601563 27.578125 18.941406 27.6875 Z M 43.421875 35.527344 C 42.710938 35.519531 42.046875 35.890625 41.6875 36.503906 C 41.332031 37.121094 41.332031 37.878906 41.6875 38.496094 C 42.046875 39.109375 42.710938 39.480469 43.421875 39.472656 L 49.34375 39.472656 C 50.050781 39.480469 50.714844 39.109375 51.078125 38.496094 C 51.429688 37.878906 51.429688 37.121094 51.078125 36.503906 C 50.714844 35.890625 50.050781 35.519531 49.34375 35.527344 Z M 37.46875 41.417969 C 36.382813 41.441406 35.511719 42.335938 35.527344 43.421875 L 35.527344 49.34375 C 35.519531 50.050781 35.890625 50.714844 36.503906 51.078125 C 37.121094 51.429688 37.878906 51.429688 38.496094 51.078125 C 39.109375 50.714844 39.480469 50.050781 39.472656 49.34375 L 39.472656 43.421875 C 39.480469 42.890625 39.273438 42.371094 38.894531 41.996094 C 38.519531 41.617188 38 41.410156 37.46875 41.417969 Z "/>
</g>
</svg>
