<?xml version="1.0" encoding="UTF-8"?>
<svg xmlns="http://www.w3.org/2000/svg" xmlns:xlink="http://www.w3.org/1999/xlink" width="60pt" height="60pt" viewBox="0 0 60 60" version="1.1">
<g id="surface1">
<path style=" stroke:none;fill-rule:nonzero;fill:#FDFDFD;fill-opacity:1;" d="M 47.367188 7.894531 L 11.84375 7.894531 C 9.660156 7.894531 7.894531 9.660156 7.894531 11.84375 L 7.894531 47.367188 C 7.894531 49.550781 9.660156 51.316406 11.84375 51.316406 L 47.367188 51.316406 C 49.550781 51.316406 51.316406 49.550781 51.316406 47.367188 L 51.316406 11.84375 C 51.316406 9.660156 49.550781 7.894531 47.367188 7.894531 Z M 42.84375 23.105469 L 27.925781 38.023438 C 27.554688 38.394531 27.046875 38.601563 26.527344 38.601563 C 26.003906 38.601563 25.503906 38.394531 25.132813 38.023438 L 18.316406 31.207031 C 17.546875 30.4375 17.546875 29.1875 18.316406 28.417969 C 19.089844 27.648438 20.339844 27.648438 21.109375 28.417969 L 26.527344 33.835938 L 40.050781 20.316406 C 40.824219 19.542969 42.070313 19.542969 42.84375 20.316406 C 43.613281 21.085938 43.613281 22.335938 42.84375 23.105469 Z "/>
</g>
</svg>
