<?xml version="1.0" encoding="UTF-8"?>
<svg xmlns="http://www.w3.org/2000/svg" xmlns:xlink="http://www.w3.org/1999/xlink" width="60pt" height="60pt" viewBox="0 0 60 60" version="1.1">
<g id="surface1">
<path style=" stroke:none;fill-rule:nonzero;fill:#FDFDFD;fill-opacity:1;" d="M 13.816406 3.949219 C 11.632813 3.949219 9.867188 5.710938 9.867188 7.894531 L 9.867188 35.527344 C 9.867188 37.707031 11.632813 39.472656 13.816406 39.472656 L 45.394531 39.472656 C 47.578125 39.472656 49.34375 37.707031 49.34375 35.527344 L 49.34375 7.894531 C 49.34375 5.710938 47.578125 3.949219 45.394531 3.949219 Z M 33.550781 9.867188 C 37.917969 9.867188 41.449219 13.398438 41.449219 17.761719 C 41.449219 17.886719 41.417969 17.996094 41.417969 18.117188 C 43.730469 18.917969 45.394531 21.09375 45.394531 23.683594 C 45.394531 26.953125 42.742188 29.605469 39.472656 29.605469 L 21.710938 29.605469 C 18.441406 29.605469 15.789063 26.953125 15.789063 23.683594 C 15.789063 21.085938 17.46875 18.902344 19.796875 18.101563 C 20.121094 15.6875 22.164063 13.816406 24.671875 13.816406 C 25.335938 13.816406 25.964844 13.953125 26.550781 14.1875 C 27.855469 11.632813 30.484375 9.867188 33.550781 9.867188 Z M 9.867188 42.320313 L 9.867188 51.316406 C 9.867188 53.496094 11.632813 55.261719 13.816406 55.261719 L 45.394531 55.261719 C 47.578125 55.261719 49.34375 53.496094 49.34375 51.316406 L 49.34375 42.320313 C 48.179688 43.003906 46.835938 43.421875 45.394531 43.421875 L 13.816406 43.421875 C 12.375 43.421875 11.03125 43.003906 9.867188 42.320313 Z M 43.421875 47.367188 C 44.507813 47.367188 45.394531 48.253906 45.394531 49.34375 C 45.394531 50.429688 44.507813 51.316406 43.421875 51.316406 C 42.335938 51.316406 41.449219 50.429688 41.449219 49.34375 C 41.449219 48.253906 42.335938 47.367188 43.421875 47.367188 Z "/>
</g>
</svg>
