<?xml version="1.0" encoding="UTF-8"?>
<svg xmlns="http://www.w3.org/2000/svg" xmlns:xlink="http://www.w3.org/1999/xlink" width="480pt" height="480pt" viewBox="0 0 480 480" version="1.1">
<g id="surface1">
<path style=" stroke:none;fill-rule:nonzero;fill:#FDFDFD;fill-opacity:1;" d="M 120.269531 63.15625 C 108.367188 63.15625 97.328125 69.941406 92.023438 80.675781 L 63.15625 138.40625 L 63.15625 378.949219 C 63.15625 396.402344 77.28125 410.527344 94.738281 410.527344 L 378.949219 410.527344 C 396.402344 410.527344 410.527344 396.402344 410.527344 378.949219 L 410.527344 138.40625 L 381.660156 80.613281 C 376.296875 69.941406 365.316406 63.15625 353.414063 63.15625 Z M 120.269531 94.738281 L 353.351563 94.738281 L 377.035156 142.105469 L 96.585938 142.105469 Z M 236.84375 189.472656 C 245.601563 189.472656 252.632813 196.566406 252.632813 205.261719 L 252.632813 309.25 L 273.046875 288.835938 C 279.214844 282.667969 289.207031 282.667969 295.375 288.835938 C 301.542969 295.003906 301.542969 304.996094 295.375 311.164063 L 248.003906 358.53125 C 244.921875 361.617188 240.914063 363.15625 236.84375 363.15625 C 232.769531 363.15625 228.761719 361.617188 225.679688 358.53125 L 178.308594 311.164063 C 172.140625 304.996094 172.140625 295.003906 178.308594 288.835938 C 184.476563 282.667969 194.46875 282.667969 200.636719 288.835938 L 221.050781 309.25 L 221.050781 205.261719 C 221.050781 196.566406 228.082031 189.472656 236.84375 189.472656 Z "/>
</g>
</svg>
