<?xml version="1.0" encoding="UTF-8"?>
<svg xmlns="http://www.w3.org/2000/svg" xmlns:xlink="http://www.w3.org/1999/xlink" width="60pt" height="60pt" viewBox="0 0 60 60" version="1.1">
<g id="surface1">
<path style=" stroke:none;fill-rule:nonzero;fill:#FDFDFD;fill-opacity:1;" d="M 51.277344 5.90625 C 51.199219 5.90625 51.128906 5.914063 51.0625 5.921875 L 39.472656 5.921875 C 38.765625 5.914063 38.101563 6.285156 37.738281 6.898438 C 37.382813 7.515625 37.382813 8.273438 37.738281 8.890625 C 38.101563 9.507813 38.765625 9.875 39.472656 9.867188 L 46.550781 9.867188 L 26.234375 30.183594 C 25.71875 30.675781 25.511719 31.417969 25.695313 32.101563 C 25.875 32.796875 26.414063 33.335938 27.105469 33.515625 C 27.792969 33.699219 28.535156 33.492188 29.027344 32.972656 L 49.34375 12.660156 L 49.34375 19.738281 C 49.335938 20.445313 49.703125 21.109375 50.320313 21.472656 C 50.9375 21.828125 51.695313 21.828125 52.308594 21.472656 C 52.925781 21.109375 53.296875 20.445313 53.289063 19.738281 L 53.289063 8.140625 C 53.367188 7.570313 53.1875 6.992188 52.804688 6.554688 C 52.417969 6.121094 51.855469 5.882813 51.277344 5.90625 Z M 11.84375 13.816406 C 9.683594 13.816406 7.894531 15.605469 7.894531 17.761719 L 7.894531 47.367188 C 7.894531 49.527344 9.683594 51.316406 11.84375 51.316406 L 41.449219 51.316406 C 43.605469 51.316406 45.394531 49.527344 45.394531 47.367188 L 45.394531 22.542969 L 41.449219 26.492188 L 41.449219 47.367188 L 11.84375 47.367188 L 11.84375 17.761719 L 32.71875 17.761719 L 36.667969 13.816406 Z "/>
</g>
</svg>
