<?xml version="1.0" encoding="UTF-8"?>
<svg xmlns="http://www.w3.org/2000/svg" xmlns:xlink="http://www.w3.org/1999/xlink" width="60pt" height="60pt" viewBox="0 0 60 60" version="1.1">
<g id="surface1">
<path style=" stroke:none;fill-rule:nonzero;fill:#FDFDFD;fill-opacity:1;" d="M 29.574219 4.902344 C 28.488281 4.925781 27.617188 5.820313 27.632813 6.90625 L 27.632813 7.894531 L 16.777344 7.894531 C 16.253906 7.886719 15.734375 8.09375 15.367188 8.464844 C 14.988281 8.835938 14.78125 9.335938 14.773438 9.867188 L 11.84375 9.867188 C 11.132813 9.859375 10.46875 10.230469 10.109375 10.847656 C 9.753906 11.464844 9.753906 12.21875 10.109375 12.835938 C 10.46875 13.453125 11.132813 13.824219 11.84375 13.816406 L 47.367188 13.816406 C 48.078125 13.824219 48.742188 13.453125 49.101563 12.835938 C 49.457031 12.21875 49.457031 11.464844 49.101563 10.847656 C 48.742188 10.230469 48.078125 9.859375 47.367188 9.867188 L 44.4375 9.867188 C 44.429688 9.335938 44.222656 8.835938 43.84375 8.464844 C 43.476563 8.09375 42.957031 7.886719 42.433594 7.894531 L 31.578125 7.894531 L 31.578125 6.90625 C 31.585938 6.375 31.378906 5.859375 31 5.480469 C 30.621094 5.105469 30.105469 4.894531 29.574219 4.902344 Z M 11.84375 17.761719 L 15.382813 47.832031 C 15.613281 49.820313 17.292969 51.316406 19.296875 51.316406 L 39.914063 51.316406 C 41.917969 51.316406 43.597656 49.820313 43.828125 47.832031 L 47.367188 17.761719 Z "/>
</g>
</svg>
