<?xml version="1.0" encoding="UTF-8"?>
<svg xmlns="http://www.w3.org/2000/svg" xmlns:xlink="http://www.w3.org/1999/xlink" width="60pt" height="60pt" viewBox="0 0 60 60" version="1.1">
<g id="surface1">
<path style=" stroke:none;fill-rule:nonzero;fill:#FDFDFD;fill-opacity:1;" d="M 7.894531 5.921875 C 5.710938 5.921875 3.949219 7.6875 3.949219 9.867188 L 3.949219 15.789063 L 55.261719 15.789063 L 55.261719 13.816406 C 55.261719 11.632813 53.496094 9.867188 51.316406 9.867188 L 22.105469 9.867188 L 20.886719 7.832031 C 20.175781 6.644531 18.890625 5.921875 17.5 5.921875 Z M 5.921875 19.738281 C 4.835938 19.738281 3.949219 20.625 3.949219 21.710938 L 3.949219 45.394531 C 3.949219 47.578125 5.710938 49.34375 7.894531 49.34375 L 51.316406 49.34375 C 53.496094 49.34375 55.261719 47.578125 55.261719 45.394531 L 55.261719 21.710938 C 55.261719 20.625 54.375 19.738281 53.289063 19.738281 Z "/>
</g>
</svg>
