<?xml version="1.0" encoding="UTF-8"?>
<svg xmlns="http://www.w3.org/2000/svg" xmlns:xlink="http://www.w3.org/1999/xlink" width="60pt" height="60pt" viewBox="0 0 60 60" version="1.1">
<g id="surface1">
<path style=" stroke:none;fill-rule:nonzero;fill:#FDFDFD;fill-opacity:1;" d="M 46.382813 5.921875 C 43.992188 5.921875 41.949219 7.632813 41.53125 9.992188 C 30.261719 6.539063 25.566406 19.328125 22.074219 22.019531 C 18.902344 24.460938 9.675781 24.007813 8.574219 29.605469 C 8.566406 29.605469 8.566406 29.613281 8.566406 29.613281 C 7.15625 33.597656 11.265625 38.902344 19.746094 44.324219 C 19.746094 44.355469 19.738281 44.378906 19.738281 44.40625 C 19.738281 48.222656 22.828125 51.316406 26.644531 51.316406 C 28.15625 51.316406 29.527344 50.824219 30.660156 50.003906 C 35.496094 51.980469 40.214844 53.289063 43.082031 53.289063 C 45.457031 53.289063 47.808594 52.21875 48.546875 50.921875 C 52.449219 46.742188 47.96875 39.328125 48.101563 35.316406 C 48.207031 31.480469 53.636719 21.703125 49.035156 15.011719 C 50.453125 14.101563 51.316406 12.535156 51.316406 10.855469 C 51.316406 8.132813 49.101563 5.921875 46.382813 5.921875 Z M 14.515625 31.480469 C 17.601563 31.480469 23.476563 32.953125 30.683594 37.089844 C 39.574219 42.195313 43.96875 46.984375 44.816406 48.996094 C 44.390625 49.171875 43.769531 49.34375 43.082031 49.34375 C 41.078125 49.34375 37.300781 48.363281 33.121094 46.734375 C 33.382813 46.003906 33.550781 45.226563 33.550781 44.40625 C 33.550781 40.589844 30.460938 37.5 26.644531 37.5 C 24.308594 37.5 22.257813 38.664063 21 40.4375 C 15.082031 36.496094 12.742188 33.390625 12.3125 31.789063 C 12.875 31.625 13.675781 31.480469 14.515625 31.480469 Z "/>
</g>
</svg>
