<?xml version="1.0" encoding="UTF-8"?>
<svg xmlns="http://www.w3.org/2000/svg" xmlns:xlink="http://www.w3.org/1999/xlink" width="60pt" height="60pt" viewBox="0 0 60 60" version="1.1">
<g id="surface1">
<path style=" stroke:none;fill-rule:nonzero;fill:#FDFDFD;fill-opacity:1;" d="M 29.605469 11.84375 C 23.320313 11.84375 20.722656 15.867188 20.722656 20.722656 C 20.722656 22.359375 21.503906 24 21.503906 24 C 21.195313 24.183594 20.667969 24.757813 20.800781 25.78125 C 21.039063 27.679688 21.863281 28.15625 22.390625 28.195313 C 22.589844 29.96875 24.5 32.234375 25.164063 32.566406 L 25.164063 35.21875 C 23.683594 39.660156 11.84375 38.980469 11.84375 49.34375 L 47.367188 49.34375 C 47.367188 38.980469 35.527344 39.660156 34.046875 35.21875 L 34.046875 32.566406 C 34.71875 32.234375 36.621094 29.96875 36.820313 28.195313 C 37.347656 28.15625 38.171875 27.679688 38.410156 25.78125 C 38.539063 24.757813 38.015625 24.183594 37.707031 24 C 37.707031 24 38.488281 22.519531 38.488281 20.722656 C 38.488281 17.132813 37.074219 14.0625 34.046875 14.0625 C 34.046875 14.0625 32.996094 11.84375 29.605469 11.84375 Z M 44.40625 15.789063 C 43.398438 15.789063 42.535156 15.96875 41.75 16.230469 C 42.179688 17.570313 42.433594 19.066406 42.433594 20.722656 C 42.433594 21.773438 42.273438 22.734375 42.0625 23.539063 C 42.347656 24.386719 42.441406 25.320313 42.320313 26.273438 C 42.039063 28.449219 41.199219 29.921875 40.144531 30.855469 C 39.835938 31.601563 39.410156 32.304688 38.957031 32.980469 C 39.519531 34.132813 40.335938 35.15625 40.707031 35.363281 L 40.707031 35.386719 C 44.722656 37.269531 51.316406 40.4375 51.316406 49.34375 L 59.210938 49.34375 C 59.210938 39.558594 49.34375 40.960938 48.109375 36.765625 L 48.109375 35.363281 C 48.664063 35.046875 50.25 32.90625 50.421875 31.230469 C 50.851563 31.195313 51.539063 30.746094 51.746094 28.949219 C 51.855469 27.984375 51.414063 27.445313 51.160156 27.269531 C 51.160156 27.269531 51.808594 25.867188 51.808594 24.175781 C 51.808594 20.785156 50.628906 17.886719 48.109375 17.886719 C 48.109375 17.886719 47.230469 15.789063 44.40625 15.789063 Z M 14.800781 15.789063 C 11.980469 15.789063 11.101563 17.886719 11.101563 17.886719 C 8.582031 17.886719 7.402344 20.785156 7.402344 24.175781 C 7.402344 25.875 8.050781 27.269531 8.050781 27.269531 C 7.785156 27.445313 7.355469 27.984375 7.464844 28.949219 C 7.671875 30.746094 8.355469 31.203125 8.789063 31.238281 C 8.957031 32.914063 10.546875 35.054688 11.101563 35.363281 L 11.101563 36.765625 C 9.867188 40.960938 0 39.558594 0 49.34375 L 7.894531 49.34375 C 7.894531 40.4375 14.488281 37.277344 18.503906 35.386719 L 18.503906 35.363281 C 18.875 35.15625 19.691406 34.136719 20.253906 32.980469 C 19.796875 32.304688 19.375 31.59375 19.074219 30.847656 C 18.011719 29.921875 17.160156 28.449219 16.882813 26.273438 C 16.761719 25.3125 16.867188 24.363281 17.160156 23.507813 C 16.945313 22.699219 16.777344 21.734375 16.777344 20.722656 C 16.777344 19.089844 17.007813 17.59375 17.425781 16.222656 C 16.644531 15.96875 15.796875 15.789063 14.800781 15.789063 Z "/>
</g>
</svg>
