<?xml version="1.0" encoding="UTF-8"?>
<svg xmlns="http://www.w3.org/2000/svg" xmlns:xlink="http://www.w3.org/1999/xlink" width="60pt" height="60pt" viewBox="0 0 60 60" version="1.1">
<g id="surface1">
<path style=" stroke:none;fill-rule:nonzero;fill:#FDFDFD;fill-opacity:1;" d="M 29.605469 5.921875 C 16.523438 5.921875 5.921875 16.523438 5.921875 29.605469 C 5.921875 42.6875 16.523438 53.289063 29.605469 53.289063 C 42.6875 53.289063 53.289063 42.6875 53.289063 29.605469 C 53.289063 16.523438 42.6875 5.921875 29.605469 5.921875 Z M 29.605469 44.40625 C 27.972656 44.40625 26.644531 43.082031 26.644531 41.449219 C 26.644531 39.8125 27.972656 38.488281 29.605469 38.488281 C 31.238281 38.488281 32.566406 39.8125 32.566406 41.449219 C 32.566406 43.082031 31.238281 44.40625 29.605469 44.40625 Z M 33.683594 30.59375 C 32.378906 31.792969 31.578125 32.589844 31.578125 33.550781 L 27.632813 33.550781 C 27.632813 30.808594 29.503906 29.082031 31.007813 27.691406 C 32.589844 26.234375 33.550781 25.265625 33.550781 23.683594 C 33.550781 21.511719 31.78125 19.738281 29.605469 19.738281 C 27.429688 19.738281 25.65625 21.511719 25.65625 23.683594 L 21.710938 23.683594 C 21.710938 19.328125 25.25 15.789063 29.605469 15.789063 C 33.960938 15.789063 37.5 19.328125 37.5 23.683594 C 37.5 27.070313 35.386719 29.019531 33.683594 30.59375 Z "/>
</g>
</svg>
