<?xml version="1.0" encoding="UTF-8"?>
<svg xmlns="http://www.w3.org/2000/svg" xmlns:xlink="http://www.w3.org/1999/xlink" width="60pt" height="60pt" viewBox="0 0 60 60" version="1.1">
<g id="surface1">
<path style=" stroke:none;fill-rule:nonzero;fill:#FDFDFD;fill-opacity:1;" d="M 29.605469 5.921875 C 16.523438 5.921875 5.921875 16.523438 5.921875 29.605469 C 5.921875 42.6875 16.523438 53.289063 29.605469 53.289063 C 42.6875 53.289063 53.289063 42.6875 53.289063 29.605469 C 53.289063 16.523438 42.6875 5.921875 29.605469 5.921875 Z M 31.578125 41.449219 L 27.632813 41.449219 L 27.632813 27.632813 L 31.578125 27.632813 Z M 29.605469 22.699219 C 27.972656 22.699219 26.644531 21.371094 26.644531 19.738281 C 26.644531 18.101563 27.972656 16.777344 29.605469 16.777344 C 31.238281 16.777344 32.566406 18.101563 32.566406 19.738281 C 32.566406 21.371094 31.238281 22.699219 29.605469 22.699219 Z "/>
</g>
</svg>
