<?xml version="1.0" encoding="UTF-8"?>
<svg xmlns="http://www.w3.org/2000/svg" xmlns:xlink="http://www.w3.org/1999/xlink" width="60pt" height="60pt" viewBox="0 0 60 60" version="1.1">
<g id="surface1">
<path style=" stroke:none;fill-rule:nonzero;fill:#FDFDFD;fill-opacity:1;" d="M 29.605469 5.921875 C 16.546875 5.921875 5.921875 16.546875 5.921875 29.605469 C 5.921875 42.664063 16.546875 53.289063 29.605469 53.289063 C 31.65625 53.289063 33.628906 53.003906 35.527344 52.511719 L 35.527344 42.15625 C 33.96875 46.589844 31.726563 49.34375 29.605469 49.34375 C 27.085938 49.34375 24.363281 45.472656 22.867188 39.472656 L 35.527344 39.472656 L 35.527344 35.527344 L 22.113281 35.527344 C 21.847656 33.675781 21.710938 31.6875 21.710938 29.605469 C 21.710938 27.507813 21.886719 25.550781 22.148438 23.683594 L 37.0625 23.683594 C 37.324219 25.550781 37.5 27.507813 37.5 29.605469 C 37.5 30.144531 37.460938 30.660156 37.445313 31.1875 C 38.503906 30.214844 39.898438 29.605469 41.449219 29.605469 C 41.449219 27.539063 41.316406 25.566406 41.085938 23.683594 L 48.425781 23.683594 C 49.019531 25.558594 49.34375 27.539063 49.34375 29.605469 C 49.34375 30.976563 49.1875 32.3125 48.917969 33.605469 L 52.371094 36.066406 C 52.957031 34.007813 53.289063 31.847656 53.289063 29.605469 C 53.289063 16.546875 42.664063 5.921875 29.605469 5.921875 Z M 29.605469 9.867188 C 32.117188 9.867188 34.800781 13.761719 36.304688 19.738281 L 22.90625 19.738281 C 24.410156 13.761719 27.09375 9.867188 29.605469 9.867188 Z M 21.832031 11.472656 C 20.523438 13.691406 19.484375 16.507813 18.78125 19.738281 L 12.519531 19.738281 C 14.648438 16.074219 17.917969 13.152344 21.832031 11.472656 Z M 37.375 11.472656 C 41.292969 13.152344 44.5625 16.074219 46.691406 19.738281 L 40.429688 19.738281 C 39.726563 16.507813 38.6875 13.691406 37.375 11.472656 Z M 10.777344 23.683594 L 18.117188 23.683594 C 17.894531 25.566406 17.761719 27.539063 17.761719 29.605469 C 17.761719 31.671875 17.894531 33.644531 18.117188 35.527344 L 10.777344 35.527344 C 10.191406 33.652344 9.867188 31.671875 9.867188 29.605469 C 9.867188 27.539063 10.191406 25.558594 10.777344 23.683594 Z M 41.476563 33.53125 C 40.90625 33.515625 40.367188 33.753906 39.984375 34.167969 C 39.597656 34.585938 39.410156 35.148438 39.472656 35.710938 L 39.472656 53.289063 C 39.472656 54.375 40.359375 55.261719 41.449219 55.261719 C 42.019531 55.261719 42.519531 55.015625 42.875 54.632813 L 42.890625 54.640625 L 46.597656 50.242188 L 50.539063 58.125 C 51.023438 59.09375 52.210938 59.488281 53.1875 59.003906 C 54.160156 58.515625 54.554688 57.328125 54.066406 56.351563 L 50.050781 48.324219 L 55.8125 47.292969 L 55.8125 47.253906 C 56.628906 47.023438 57.238281 46.289063 57.238281 45.394531 C 57.238281 44.707031 56.859375 44.128906 56.320313 43.777344 L 56.335938 43.738281 L 42.835938 34.109375 C 42.472656 33.746094 41.988281 33.539063 41.476563 33.53125 Z M 12.535156 39.472656 L 18.773438 39.472656 C 19.476563 42.703125 20.523438 45.519531 21.832031 47.738281 C 17.917969 46.058594 14.664063 43.136719 12.535156 39.472656 Z "/>
</g>
</svg>
