<?xml version="1.0" encoding="UTF-8"?>
<svg xmlns="http://www.w3.org/2000/svg" xmlns:xlink="http://www.w3.org/1999/xlink" width="60pt" height="60pt" viewBox="0 0 60 60" version="1.1">
<g id="surface1">
<path style=" stroke:none;fill-rule:nonzero;fill:#FDFDFD;fill-opacity:1;" d="M 3.367188 0.578125 L 0.578125 3.367188 L 55.839844 58.632813 L 58.632813 55.839844 L 46.742188 43.945313 C 54.824219 38.480469 58.816406 30.824219 58.871094 30.714844 C 59.09375 30.390625 59.210938 30.007813 59.210938 29.605469 C 59.210938 29.15625 59.054688 28.726563 58.777344 28.378906 C 58.578125 28.046875 47.207031 9.867188 29.605469 9.867188 C 24.609375 9.867188 20.128906 11.347656 16.253906 13.460938 Z M 29.605469 15.789063 C 37.238281 15.789063 43.421875 21.972656 43.421875 29.605469 C 43.421875 32.703125 42.371094 35.550781 40.644531 37.855469 L 34.941406 32.140625 C 35.308594 31.378906 35.527344 30.515625 35.527344 29.605469 C 35.527344 26.335938 32.875 23.683594 29.605469 23.683594 C 28.695313 23.683594 27.832031 23.898438 27.070313 24.269531 L 21.355469 18.566406 C 23.660156 16.839844 26.507813 15.789063 29.605469 15.789063 Z M 9.777344 17.917969 C 3.910156 22.84375 0.539063 28.195313 0.433594 28.371094 C 0.152344 28.726563 0 29.15625 0 29.605469 C 0 29.992188 0.109375 30.359375 0.324219 30.683594 C 0.324219 30.683594 0.324219 30.691406 0.324219 30.691406 C 0.363281 30.761719 9.90625 49.34375 29.605469 49.34375 C 33.257813 49.34375 36.550781 48.695313 39.511719 47.652344 L 34.410156 42.550781 C 32.90625 43.105469 31.292969 43.421875 29.605469 43.421875 C 21.972656 43.421875 15.789063 37.238281 15.789063 29.605469 C 15.789063 27.917969 16.105469 26.304688 16.667969 24.800781 Z "/>
</g>
</svg>
