<?xml version="1.0" encoding="UTF-8"?>
<svg xmlns="http://www.w3.org/2000/svg" xmlns:xlink="http://www.w3.org/1999/xlink" width="60pt" height="60pt" viewBox="0 0 60 60" version="1.1">
<g id="surface1">
<path style=" stroke:none;fill-rule:nonzero;fill:#FDFDFD;fill-opacity:1;" d="M 43.421875 3.949219 C 40.261719 3.949219 37.285156 5.179688 35.046875 7.417969 L 31.101563 11.363281 C 28.863281 13.601563 27.632813 16.574219 27.632813 19.738281 C 27.632813 22.234375 28.410156 24.601563 29.828125 26.589844 L 26.589844 29.828125 C 24.601563 28.410156 22.226563 27.632813 19.738281 27.632813 C 16.574219 27.632813 13.601563 28.863281 11.363281 31.101563 L 7.417969 35.046875 C 5.179688 37.285156 3.949219 40.261719 3.949219 43.421875 C 3.949219 46.582031 5.179688 49.558594 7.417969 51.792969 C 9.652344 54.03125 12.628906 55.261719 15.789063 55.261719 C 18.949219 55.261719 21.925781 54.03125 24.164063 51.792969 L 28.109375 47.847656 C 30.34375 45.609375 31.578125 42.632813 31.578125 39.472656 C 31.578125 38.386719 31.425781 37.324219 31.148438 36.304688 L 27.59375 39.851563 C 27.5 41.75 26.761719 43.613281 25.320313 45.054688 L 21.371094 49.003906 C 18.296875 52.078125 13.285156 52.078125 10.207031 49.003906 C 7.132813 45.925781 7.132813 40.914063 10.207031 37.839844 L 14.15625 33.890625 C 15.695313 32.351563 17.71875 31.585938 19.738281 31.585938 C 21.125 31.585938 22.496094 31.972656 23.722656 32.6875 L 18.339844 38.078125 C 17.824219 38.570313 17.617188 39.3125 17.800781 39.996094 C 17.980469 40.691406 18.519531 41.230469 19.210938 41.410156 C 19.898438 41.59375 20.640625 41.386719 21.132813 40.867188 L 40.867188 21.132813 C 41.453125 20.5625 41.625 19.699219 41.308594 18.949219 C 40.992188 18.195313 40.253906 17.71875 39.433594 17.746094 C 38.917969 17.753906 38.433594 17.972656 38.078125 18.339844 L 32.6875 23.722656 C 30.914063 20.699219 31.292969 16.746094 33.890625 14.15625 L 37.839844 10.207031 C 39.382813 8.664063 41.402344 7.902344 43.421875 7.902344 C 45.441406 7.902344 47.460938 8.671875 49.003906 10.207031 C 52.078125 13.285156 52.078125 18.296875 49.003906 21.371094 L 45.054688 25.320313 C 43.613281 26.761719 41.75 27.5 39.851563 27.59375 L 36.304688 31.148438 C 37.324219 31.425781 38.386719 31.578125 39.472656 31.578125 C 42.632813 31.578125 45.609375 30.34375 47.847656 28.109375 L 51.792969 24.164063 C 54.03125 21.925781 55.261719 18.949219 55.261719 15.789063 C 55.261719 12.628906 54.03125 9.652344 51.792969 7.417969 C 49.558594 5.179688 46.582031 3.949219 43.421875 3.949219 Z "/>
</g>
</svg>
