<?xml version="1.0" encoding="UTF-8"?>
<svg xmlns="http://www.w3.org/2000/svg" xmlns:xlink="http://www.w3.org/1999/xlink" width="60pt" height="60pt" viewBox="0 0 60 60" version="1.1">
<g id="surface1">
<path style=" stroke:none;fill-rule:nonzero;fill:#FDFDFD;fill-opacity:1;" d="M 9.867188 7.894531 C 8.78125 7.894531 7.894531 8.78125 7.894531 9.867188 L 7.894531 17.761719 C 7.894531 18.851563 8.78125 19.738281 9.867188 19.738281 L 19.738281 19.738281 C 20.824219 19.738281 21.710938 18.851563 21.710938 17.761719 L 21.710938 9.867188 C 21.710938 8.78125 20.824219 7.894531 19.738281 7.894531 Z M 29.605469 11.84375 C 28.894531 11.835938 28.234375 12.203125 27.871094 12.820313 C 27.515625 13.4375 27.515625 14.195313 27.871094 14.808594 C 28.234375 15.425781 28.894531 15.796875 29.605469 15.789063 L 49.34375 15.789063 C 50.050781 15.796875 50.714844 15.425781 51.078125 14.808594 C 51.429688 14.195313 51.429688 13.4375 51.078125 12.820313 C 50.714844 12.203125 50.050781 11.835938 49.34375 11.84375 Z M 9.867188 23.683594 C 8.78125 23.683594 7.894531 24.570313 7.894531 25.65625 L 7.894531 33.550781 C 7.894531 34.640625 8.78125 35.527344 9.867188 35.527344 L 19.738281 35.527344 C 20.824219 35.527344 21.710938 34.640625 21.710938 33.550781 L 21.710938 25.65625 C 21.710938 24.570313 20.824219 23.683594 19.738281 23.683594 Z M 29.605469 27.632813 C 28.894531 27.625 28.234375 27.992188 27.871094 28.609375 C 27.515625 29.226563 27.515625 29.984375 27.871094 30.601563 C 28.234375 31.214844 28.894531 31.585938 29.605469 31.578125 L 49.34375 31.578125 C 50.050781 31.585938 50.714844 31.214844 51.078125 30.601563 C 51.429688 29.984375 51.429688 29.226563 51.078125 28.609375 C 50.714844 27.992188 50.050781 27.625 49.34375 27.632813 Z M 9.867188 39.472656 C 8.78125 39.472656 7.894531 40.359375 7.894531 41.449219 L 7.894531 49.34375 C 7.894531 50.429688 8.78125 51.316406 9.867188 51.316406 L 19.738281 51.316406 C 20.824219 51.316406 21.710938 50.429688 21.710938 49.34375 L 21.710938 41.449219 C 21.710938 40.359375 20.824219 39.472656 19.738281 39.472656 Z M 29.605469 43.421875 C 28.894531 43.414063 28.234375 43.785156 27.871094 44.398438 C 27.515625 45.015625 27.515625 45.773438 27.871094 46.390625 C 28.234375 47.007813 28.894531 47.375 29.605469 47.367188 L 49.34375 47.367188 C 50.050781 47.375 50.714844 47.007813 51.078125 46.390625 C 51.429688 45.773438 51.429688 45.015625 51.078125 44.398438 C 50.714844 43.785156 50.050781 43.414063 49.34375 43.421875 Z "/>
</g>
</svg>
