<svg xmlns="http://www.w3.org/2000/svg" width="13.185" height="47.502" viewBox="0 0 13.185 47.502">
  <g id="Calque_2"  transform="translate(-0.305)">
    <g id="Calque_1" transform="translate(0.305)">
      <path id="Tracé_19" d="M7.947,264.261l-2.271,2.208L3.09,264.2l2.523-2.208Z" transform="translate(-3.09 -245.651)" fill="#fff"/>
      <path id="Tracé_20"  d="M11.543,2.99V6.144l-5.93,4.731v8.453L3.09,21.537V9.3Z" transform="translate(-3.09 -2.99)" fill="#fff"/>
      <path id="Tracé_21"  d="M141.821,401.387l-2.4,2.208-2.334-2.208,2.334-2.4Z" transform="translate(-128.637 -374.009)" fill="#fff"/>
      <path id="Tracé_22"  d="M94.976,436.99v13.437l-7.886,6.687V453.77l5.488-4.731V439.2Z" transform="translate(-81.791 -409.611)" fill="#fff"/>
      <path id="Tracé_23" d="M142.758,78.63l-2.4,1.577-2.271-1.514,2.334-1.7Z" transform="translate(-129.574 -72.322)" fill="#fff"/>
      <path id="Tracé_24"  d="M8.011,629.441l-2.334,1.388L3.09,629.378l2.523-1.388v.063Z" transform="translate(-3.09 -588.562)" fill="#fff"/>
      <path id="Tracé_25" d="M16.275,102.99v12.238L5.613,125.259v10.85L3.09,137.5V124.06l10.787-9.841v-9.652Z" transform="translate(-3.09 -96.682)" fill="#fff"/>
      <path id="Tracé_26"  d="M88.6,127.99l-1.514,1.766v5.236l1.514,1.451,1.64-1.388V129.63Z" transform="translate(-81.791 -120.104)" fill="#fff"/>
      <path id="Tracé_27"  d="M88.6,479.99l-1.514,1.766v5.236l1.514,1.451,1.64-1.388V481.63Z" transform="translate(-81.791 -449.899)" fill="#fff"/>
      <line id="Ligne_9" x1="2" y1="2" transform="translate(11.098 17)" fill="#fff"/>
      <line id="Ligne_10"  x1="2" y1="1" transform="translate(0.098 7)" fill="#fff"/>
      <line id="Ligne_11"  x2="2" y2="1" transform="translate(0.098 28)" fill="#fff"/>
      <line id="Ligne_12"  x1="2" y1="2" transform="translate(11.098 39)" fill="#fff"/>
      <path id="Tracé_28"  d="M7.947,264.261l-2.271,2.208L3.09,264.2l2.523-2.208Z" transform="translate(-3.09 -245.651)" fill="#fff"/>
      <path id="Tracé_29"  d="M11.543,2.99V6.144l-5.93,4.731v8.453L3.09,21.537V9.3Z" transform="translate(-3.09 -2.99)" fill="#fff"/>
      <path id="Tracé_30"  d="M141.821,401.387l-2.4,2.208-2.334-2.208,2.334-2.4Z" transform="translate(-128.637 -374.009)" fill="#fff"/>
      <path id="Tracé_31"  d="M94.976,436.99v13.437l-7.886,6.687V453.77l5.488-4.731V439.2Z" transform="translate(-81.791 -409.611)" fill="#fff"/>
      <path id="Tracé_32"  d="M142.758,78.63l-2.4,1.577-2.271-1.514,2.334-1.7Z" transform="translate(-129.574 -72.322)" fill="#fff"/>
      <path id="Tracé_33"  d="M8.011,629.441l-2.334,1.388L3.09,629.378l2.523-1.388v.063Z" transform="translate(-3.09 -588.562)" fill="#fff"/>
      <path id="Tracé_34"  d="M16.275,102.99v12.238L5.613,125.259v10.85L3.09,137.5V124.06l10.787-9.841v-9.652Z" transform="translate(-3.09 -96.682)" fill="#fff"/>
      <path id="Tracé_35"  d="M88.6,127.99l-1.514,1.766v5.236l1.514,1.451,1.64-1.388V129.63Z" transform="translate(-81.791 -120.104)" fill="#fff"/>
      <path id="Tracé_36"  d="M88.6,479.99l-1.514,1.766v5.236l1.514,1.451,1.64-1.388V481.63Z" transform="translate(-81.791 -449.899)" fill="#fff"/>
      <line id="Ligne_13"  x1="2" y1="2" transform="translate(11.098 17)" fill="#fff"/>
      <line id="Ligne_14"  x1="2" y1="1" transform="translate(0.098 7)" fill="#fff"/>
      <line id="Ligne_15"  x2="2" y2="1" transform="translate(0.098 28)" fill="#fff"/>
      <line id="Ligne_16" x1="2" y1="2" transform="translate(11.098 39)" fill="#fff"/>
    </g>
  </g>
</svg>
