<?xml version="1.0" encoding="UTF-8"?>
<svg xmlns="http://www.w3.org/2000/svg" xmlns:xlink="http://www.w3.org/1999/xlink" width="480pt" height="480pt" viewBox="0 0 480 480" version="1.1">
<g id="surface1">
<path style=" stroke:none;fill-rule:nonzero;fill:#FDFDFD;fill-opacity:1;" d="M 236.84375 63.15625 C 210.691406 63.15625 189.472656 84.375 189.472656 110.527344 C 189.472656 136.675781 210.691406 157.894531 236.84375 157.894531 C 262.992188 157.894531 284.210938 136.675781 284.210938 110.527344 C 284.210938 84.375 262.992188 63.15625 236.84375 63.15625 Z M 236.84375 189.472656 C 210.691406 189.472656 189.472656 210.691406 189.472656 236.84375 C 189.472656 262.992188 210.691406 284.210938 236.84375 284.210938 C 262.992188 284.210938 284.210938 262.992188 284.210938 236.84375 C 284.210938 210.691406 262.992188 189.472656 236.84375 189.472656 Z M 236.84375 315.789063 C 210.691406 315.789063 189.472656 337.007813 189.472656 363.15625 C 189.472656 389.308594 210.691406 410.527344 236.84375 410.527344 C 262.992188 410.527344 284.210938 389.308594 284.210938 363.15625 C 284.210938 337.007813 262.992188 315.789063 236.84375 315.789063 Z "/>
</g>
</svg>
