<?xml version="1.0" encoding="UTF-8"?>
<svg xmlns="http://www.w3.org/2000/svg" xmlns:xlink="http://www.w3.org/1999/xlink" width="60pt" height="60pt" viewBox="0 0 60 60" version="1.1">
<g id="surface1">
<path style=" stroke:none;fill-rule:nonzero;fill:#FDFDFD;fill-opacity:1;" d="M 9.867188 7.894531 C 6.621094 7.894531 3.949219 10.570313 3.949219 13.816406 L 3.949219 39.472656 C 3.949219 40.992188 4.546875 42.363281 5.503906 43.421875 L 0 43.421875 C 0 46.691406 2.652344 49.34375 5.921875 49.34375 L 13.816406 49.34375 L 13.816406 41.449219 L 9.867188 41.449219 C 8.75 41.449219 7.894531 40.589844 7.894531 39.472656 L 7.894531 13.816406 C 7.894531 12.699219 8.75 11.84375 9.867188 11.84375 L 49.34375 11.84375 L 49.34375 7.894531 Z M 35.527344 15.789063 C 33.351563 15.789063 31.578125 17.5625 31.578125 19.738281 L 31.578125 21.710938 L 35.527344 21.710938 L 35.527344 19.738281 L 55.261719 19.738281 L 55.261719 45.394531 L 47.367188 45.394531 C 47.367188 46.480469 46.480469 47.367188 45.394531 47.367188 C 44.308594 47.367188 43.421875 46.480469 43.421875 45.394531 L 41.449219 45.394531 L 41.449219 51.316406 L 55.261719 51.316406 C 57.4375 51.316406 59.210938 49.542969 59.210938 47.367188 L 59.210938 19.738281 C 59.210938 17.5625 57.4375 15.789063 55.261719 15.789063 Z M 21.710938 25.65625 C 19.527344 25.65625 17.761719 27.421875 17.761719 29.605469 L 17.761719 49.34375 C 17.761719 51.523438 19.527344 53.289063 21.710938 53.289063 L 33.550781 53.289063 C 35.734375 53.289063 37.5 51.523438 37.5 49.34375 L 37.5 29.605469 C 37.5 27.421875 35.734375 25.65625 33.550781 25.65625 Z M 21.710938 29.605469 L 33.550781 29.605469 L 33.550781 49.34375 L 29.605469 49.34375 C 29.605469 50.429688 28.6875 51.316406 27.632813 51.316406 C 26.574219 51.316406 25.65625 50.429688 25.65625 49.34375 L 21.710938 49.34375 Z "/>
</g>
</svg>
