<svg xmlns="http://www.w3.org/2000/svg" width="166" height="129.986" viewBox="0 0 166 129.986">
  <g id="Groupe_109"  transform="translate(-55 -109)">
    <g id="undraw_share_online_r87b" transform="translate(54.998 109)">
      <path id="Tracé_555"  d="M321.981,191.991a6.99,6.99,0,0,1-7.923,6.931.568.568,0,0,1-.1-.015,6.307,6.307,0,0,1-.751-.153c-.164-.04-.324-.09-.482-.145a6.994,6.994,0,1,1,8.363-10.036,6.768,6.768,0,0,1,.512,1.141,6.841,6.841,0,0,1,.313,1.318,6.317,6.317,0,0,1,.063.727C321.979,191.837,321.981,191.912,321.981,191.991Z" transform="translate(-274.804 -165.209)" fill="#2f2e41"/>
      <path id="Tracé_556"  d="M139.813,416.5l-5.459,2.218s-9.894-2.9-8.018,0,8.529,1.876,8.529,1.876l8.359-1.876Z" transform="translate(-123.939 -357.222)" fill="#a0616a"/>
      <path id="Tracé_557"  d="M375.488,581.841l.512,9.212s0,10.406.682,14.159,1.876,10.235,1.876,10.235l3.241-.341s-.341-7.335,0-9.212,0-13.647,0-13.647l.512-10.747Z" transform="translate(-330.785 -494.075)" fill="#a0616a"/>
      <path id="Tracé_558"  d="M457.488,560.4l2.9,9.894s1.876,11.259,4.435,16.376l1.535,4.947,4.265-.682-1.706-6.994-2.559-13.988L464.482,557.5Z" transform="translate(-398.797 -474.169)" fill="#a0616a"/>
      <path id="Tracé_559"  d="M393.582,765.281s-2.559-.341-4.094.853c0,0,.512,9.212,1.194,9.382s5.288,1.194,5.459,0-1.365-3.753-1.365-3.753Z" transform="translate(-342.397 -646.468)" fill="#2f2e41"/>
      <path id="Tracé_560"  d="M502.487,749.182s.853,2.559.512,2.9-1.706,4.265-.853,4.776,5.118,2.559,5.629,4.094,7.847,1.706,7.165.341-5.118-5.288-5.118-5.288l-2.388-7.506Z" transform="translate(-435.608 -632.587)" fill="#2f2e41"/>
      <circle id="Ellipse_58"  cx="5.288" cy="5.288" r="5.288" transform="translate(37.197 23.967)" fill="#a0616a"/>
      <path id="Tracé_561"  d="M327.547,251.314l-2.559,7.335,8.7,1.365s-1.535-6.994-.512-8.7S327.547,251.314,327.547,251.314Z" transform="translate(-288.899 -219.585)" fill="#a0616a"/>
      <path id="Tracé_562"  d="M330.649,324.532c-.312,5.776-9.481,6.409-11.036,6.475a.277.277,0,0,1-.279-.206l-1.787-6.766a.277.277,0,0,0-.545.071v6.717a.28.28,0,0,1-.181.261c-10.753,4.025-15.133-2.114-15.634-2.889a.274.274,0,0,1-.043-.169l1.812-24.541.058-.786c-.041-.02-.082-.043-.125-.068-3.481-2.018-8.334-16.267-9.008-18.288a.276.276,0,0,1,.15-.34l4.3-1.913a.277.277,0,0,0,.117-.1l1.609-2.372a.276.276,0,0,1,.443-.02,30.228,30.228,0,0,0,2.381,2.342.275.275,0,0,0,.29.049l4-1.655a.277.277,0,0,1,.119-.021l5.346.258a3.28,3.28,0,0,1,3.038,2.541l3.357,14.6a.266.266,0,0,0,.029.075l.128.221c.162.28.45.785.832,1.465C322.88,304.531,330.93,319.334,330.649,324.532Z" transform="translate(-263.087 -243.589)" fill="#2f2e41"/>
      <path id="Tracé_563"  d="M218.388,306.853,217.023,306s-3.071,1.876-3.071,3.582-4.094,8.359-4.094,8.359l-8.87,6.994,4.776,3.923,15.864-11.429Z" transform="translate(-186.052 -265.571)" fill="#2f2e41"/>
      <rect id="Rectangle_195" width="146.801" height="0.341" transform="translate(19.201 129.645)" fill="#3f3d56"/>
      <circle id="Ellipse_59"  cx="2.436" cy="2.436" r="2.436" transform="translate(32.24 18.123)" fill="#2f2e41"/>
      <path id="Tracé_564"  d="M297.452,175.636a2.436,2.436,0,0,1,2.2-2.424c-.076-.007-.153-.012-.232-.012a2.436,2.436,0,0,0,0,4.872c.078,0,.156,0,.232-.012A2.436,2.436,0,0,1,297.452,175.636Z" transform="translate(-265.676 -155.425)" fill="#2f2e41"/>
      <path id="Tracé_565"  d="M322.837,200.717l1.011.368c.313-.2,1.012-.585,1.039-.6a22.527,22.527,0,0,0-1.034-3.257,21.493,21.493,0,0,0-4.236-1.122,8.9,8.9,0,0,0-4.926.592,5.51,5.51,0,0,0-3.137,3.7,5.949,5.949,0,0,1-.622,2.353,1.9,1.9,0,0,1-.337.355,8.113,8.113,0,0,0,2.6,3.656,8.024,8.024,0,0,0,2.307,1.283l.116.04c0-.008,0-.017,0-.025-.006-.056-.01-.112-.015-.168-.029-.322-.06-.64-.089-.962a2.477,2.477,0,0,1,.073-1.124.839.839,0,0,1,.879-.567c.372.079.561.648.247.86a1.212,1.212,0,0,0,1.411-.075,4.226,4.226,0,0,0,.964-1.16c1.12-1.678,2.75-2.444,4.43-3.561Z" transform="translate(-276.962 -174.336)" fill="#2f2e41"/>
      <path id="Tracé_566"  d="M346.825,393.478l.058-.786c-.041-.02-.082-.043-.125-.068,3.512-.867,13.022-3.265,16.308-4.623.162.28.45.785.832,1.465C359.762,390.38,350.371,392.483,346.825,393.478Z" transform="translate(-306.956 -333.583)" fill="#cfcce0"/>
      <rect id="Rectangle_196"  width="39.576" height="19.276" transform="matrix(0.994, 0.112, -0.112, 0.994, 2.162, 62.836)" fill="#3f3d56"/>
      <path id="Tracé_567" d="M224.74,487.34a12.309,12.309,0,0,0,3.861,6.676,10.6,10.6,0,0,0-2.173-14.2A12.308,12.308,0,0,0,224.74,487.34Z" transform="translate(-205.669 -409.735)" fill="#fff"/>
      <path id="Tracé_568"  d="M201.94,501.768a12.309,12.309,0,0,1,2.383,7.335,10.6,10.6,0,0,1-9.106-11.112A12.308,12.308,0,0,1,201.94,501.768Z" transform="translate(-181.264 -424.811)" fill="#6c63ff"/>
      <path id="Tracé_569"  d="M275.255,269l2.047,7.676-3.753,5.8,1.706-5.8Z" transform="translate(-226.884 -223.112)" opacity="0.1"/>
      <path id="Tracé_570"  d="M323.322,276s-1.876,2.729-1.535,3.071,4.265,1.024,4.265,1.024v-1.024Z" transform="translate(-286.21 -240.689)" fill="#cfcce0"/>
      <path id="Tracé_571"  d="M351.253,276s1.876,2.729,1.535,3.071-5.8,1.024-5.8,1.024v-1.024Z" transform="translate(-307.146 -240.689)" fill="#cfcce0"/>
      <circle id="Ellipse_60"  cx="1.024" cy="1.024" r="1.024" transform="translate(52.806 77.787)" fill="#cfcce0"/>
      <circle id="Ellipse_61"  cx="1.024" cy="1.024" r="1.024" transform="translate(51.612 73.864)" fill="#cfcce0"/>
      <circle id="Ellipse_62"  cx="1.024" cy="1.024" r="1.024" transform="translate(50.588 69.94)" fill="#cfcce0"/>
      <circle id="Ellipse_63" cx="1.024" cy="1.024" r="1.024" transform="translate(49.565 65.846)" fill="#cfcce0"/>
      <circle id="Ellipse_64"  cx="1.024" cy="1.024" r="1.024" transform="translate(48.2 61.923)" fill="#cfcce0"/>
      <path id="Tracé_572"  d="M349.129,419.5l-5.629,4.776s-6.141,5.288-3.412,6.653,5.971-5.459,5.971-5.459l7.506-5.459Z" transform="translate(-300.844 -359.71)" fill="#a0616a"/>
      <path id="Tracé_573"  d="M390.07,288.976h0a2.99,2.99,0,0,1,3.194,1.1,8.3,8.3,0,0,1,1.07,1.8c.512,1.365,1.535,21.323,1.535,21.323l-9.382-1.365,3.582-6.994Z" transform="translate(-339.908 -251.362)" fill="#2f2e41"/>
      <path id="Tracé_574" d="M584.313,382.331" transform="translate(-503.987 -328.881)" fill="none" stroke="#3f3d56" stroke-miterlimit="10" stroke-width="2"/>
      <path id="Tracé_575"  d="M584.313,472.472" transform="translate(-503.987 -403.645)" fill="none" stroke="#3f3d56" stroke-miterlimit="10" stroke-width="2"/>
      <rect id="Rectangle_197"  width="0.341" height="8.8" transform="translate(80.155 68.827)" fill="#3f3d56"/>
      <path id="Tracé_576"  d="M639.26,650.049h-47.8a8.16,8.16,0,0,1-8.15-8.152V613.326h.341V641.9a7.818,7.818,0,0,0,7.808,7.811h47.8a7.819,7.819,0,0,0,7.811-7.811v-28.98h.341V641.9A8.161,8.161,0,0,1,639.26,650.049Z" transform="translate(-503.158 -520.133)" fill="#3f3d56"/>
      <rect id="Rectangle_198"  width="0.341" height="8.595" transform="translate(143.912 68.851)" fill="#3f3d56"/>
      <path id="Tracé_577" d="M958.067,472.614" transform="translate(-813.984 -403.763)" fill="none" stroke="#3f3d56" stroke-miterlimit="10" stroke-width="2"/>
      <path id="Tracé_578"  d="M958.067,382.472" transform="translate(-813.984 -328.998)" fill="none" stroke="#3f3d56" stroke-miterlimit="10" stroke-width="2"/>
      <path id="Tracé_579" d="M647.412,122.474h-.341V114.1h.535a.342.342,0,0,0,.341-.341V99.075a.342.342,0,0,0-.341-.341h-.535V77.15a7.818,7.818,0,0,0-7.811-7.809h-47.8a7.817,7.817,0,0,0-7.808,7.809v45.3h-.341V77.15a8.159,8.159,0,0,1,8.15-8.15h47.8a8.16,8.16,0,0,1,8.152,8.15V98.392h.194a.683.683,0,0,1,.682.683v14.684a.683.683,0,0,1-.682.683h-.194Z" transform="translate(-503.158 -69)" fill="#3f3d56"/>
      <rect id="Rectangle_199"  width="8.903" height="1.808" rx="0.904" transform="translate(106.171 4.263)" fill="#e6e8ec"/>
      <circle id="Ellipse_65"  cx="1.025" cy="1.025" r="1.025" transform="translate(116.42 4.142)" fill="#e6e8ec"/>
      <path id="Tracé_580"  d="M663.961,101.406V214.1a5.064,5.064,0,0,1-5.064,5.062H613.144a5.055,5.055,0,0,1-5.064-5.062v-112.7a5.064,5.064,0,0,1,5.064-5.064h6.848v.879a4.17,4.17,0,0,0,4.17,4.17H647.43a4.17,4.17,0,0,0,4.169-4.17v-.879h7.3A5.062,5.062,0,0,1,663.961,101.406Z" transform="translate(-523.7 -91.678)" fill="#e6e8ec"/>
      <rect id="Rectangle_200" width="39.576" height="19.276" transform="translate(92.382 99.622)" opacity="0.2"/>
      <path id="Tracé_581" d="M637.594,397.068H568.059V381.32h69.535Zm-69.126-.409h68.717v-14.93H568.468Z" transform="translate(-490.506 -328.043)" fill="#3f3d56"/>
      <rect id="Rectangle_201" width="7.772" height="7.772" transform="translate(83.075 58.595)" fill="#6c63ff"/>
      <path id="Tracé_582"  d="M600.218,412.28h-8.181V404.1h8.181Zm-7.772-.409h7.363v-7.362h-7.363Z" transform="translate(-510.394 -346.936)" fill="#3f3d56"/>
      <rect id="Rectangle_202"  width="36.403" height="0.409" transform="translate(102.708 58.799)" fill="#3f3d56"/>
      <rect id="Rectangle_203"  width="36.403" height="0.409" transform="translate(102.708 61.662)" fill="#3f3d56"/>
      <rect id="Rectangle_204"  width="36.403" height="0.409" transform="translate(102.708 64.526)" fill="#3f3d56"/>
      <path id="Tracé_583" d="M637.594,538.747H568.059V523h69.535Zm-69.126-.409h68.717v-14.93H568.468Z" transform="translate(-490.506 -445.553)" fill="#3f3d56"/>
      <rect id="Rectangle_205" width="7.772" height="7.772" transform="translate(141.566 90.535) rotate(180)" fill="#6c63ff"/>
      <path id="Tracé_584" d="M911.931,553.959H903.75v-8.181h8.181Zm-7.772-.409h7.363v-7.362h-7.363Z" transform="translate(-768.933 -464.447)" fill="#3f3d56"/>
      <rect id="Rectangle_206" width="36.403" height="0.409" transform="translate(85.529 82.968)" fill="#3f3d56"/>
      <rect id="Rectangle_207" width="36.403" height="0.409" transform="translate(85.529 85.831)" fill="#3f3d56"/>
      <rect id="Rectangle_208" width="36.403" height="0.409" transform="translate(85.529 88.694)" fill="#3f3d56"/>
      <rect id="Rectangle_209" width="36.403" height="0.409" transform="translate(94.042 28.16)" fill="#3f3d56"/>
      <rect id="Rectangle_210"  width="36.403" height="0.409" transform="translate(94.042 31.023)" fill="#3f3d56"/>
      <rect id="Rectangle_211"  width="36.403" height="0.409" transform="translate(94.042 33.887)" fill="#3f3d56"/>
    </g>
    <path id="Tracé_623"  d="M0,0H12.184V8.529H0Z" transform="translate(160.851 218.153)" fill="#fad16b"/>
    <path id="Tracé_620"  d="M775.785,310.369h-11.7a.488.488,0,0,1-.487-.487V301.84a.488.488,0,0,1,.487-.487h11.7a.488.488,0,0,1,.487.487v8.041A.488.488,0,0,1,775.785,310.369Zm-11.7-8.529v8.041h11.7V301.84Z" transform="translate(-601.532 -87.321)" fill="#3f3d56"/>
    <path id="Tracé_621"  d="M787.617,270.361h-.487a4.021,4.021,0,1,0-8.041,0H778.6a4.508,4.508,0,1,1,9.016,0Z" transform="translate(-614.704 -56.146)" fill="#3f3d56"/>
    <path id="Tracé_622"  d="M808.036,321.56a1.218,1.218,0,1,0-1.863,1.032V323.9a.645.645,0,0,0,.645.645h0a.645.645,0,0,0,.645-.645v-1.308A1.216,1.216,0,0,0,808.036,321.56Z" transform="translate(-638.414 -103.995)" fill="#3f3d56"/>
  </g>
</svg>
