<svg xmlns="http://www.w3.org/2000/svg" xmlns:xlink="http://www.w3.org/1999/xlink" width="187.286" height="159.67" viewBox="0 0 187.286 159.67">
  <defs>
    <linearGradient id="linear-gradient" x1="0.641" y1="0.15" x2="0.457" y2="0.637" gradientUnits="objectBoundingBox">
      <stop offset="0" stop-color="#7a7ff1"/>
      <stop offset="1" stop-color="#9fbaff"/>
    </linearGradient>
    <linearGradient id="linear-gradient-2" x1="0.679" y1="0.093" x2="0.405" y2="0.697" xlink:href="#linear-gradient"/>
  </defs>
  <g id="Groupe_112"  transform="translate(-46 -101.344)">
    <g id="Groupe_110">
      <g id="files_and_folder_isometric" transform="translate(24.368 106.484)">
        <path id="Tracé_199"  d="M23.188,134.276l82.945,48.505a9.685,9.685,0,0,0,9.958-.108l91.331-56.067a3.144,3.144,0,0,0-.191-5.463L120.379,75.906a3.144,3.144,0,0,0-2.989.046L23.234,128.823a3.144,3.144,0,0,0-.046,5.453Z" transform="translate(0 -29.577)" fill="#9fbaff"/>
        <path id="Tracé_200"  d="M85.015,165.25l-34.785,20.2s53.556,31.229,63.4,37.068l30.012-17.6" transform="translate(-13.858 -73.044)" fill="url(#linear-gradient)"/>
        <path id="Tracé_201"  d="M235.543,54.571s-2.355-15.746,2.778-17.472,12.427,2.33,13.983,7.144,4.175,23.106,1.928,24.771-18.039-.964-19.148-5.35" transform="translate(-103.397 -10.747)" fill="#f23db4"/>
        <path id="Tracé_202" d="M138.1,142.465,93.45,116.684,142.131,50l44.65,25.781Z" transform="translate(-34.802 -17.195)" fill="#ffb9ad"/>
        <path id="Tracé_203"  d="M93.471,78.832l-.021,9.984v27.868l48.681-28.43V50Z" transform="translate(-34.802 -17.195)" fill="#ff8c79"/>
        <path id="Tracé_204"  d="M115.03,78.135l-5.551-3.206c-.211-.124-16.029,9.736-16.029,9.736v7.479" transform="translate(-34.802 -29.275)" fill="#ff8c79"/>
        <path id="Tracé_205"  d="M243.8,31.216c.577-.227,1.165-.423,1.716-.6,1.459-.469,2.958-.794,4.438-1.17-.273-6.546-4.268-13.916-11.231-13.292a4.922,4.922,0,0,0-2.783,1.031A5.309,5.309,0,0,0,234.39,21.9a5.845,5.845,0,0,0,2.752,4.52C241.193,29.01,242.936,29.778,243.8,31.216Z" transform="translate(-103.085 -0.777)" fill="#581b7a"/>
        <path id="Tracé_206"  d="M236.53,23.473s.289,9.277,3.51,9.793,5.494-4.345,5.494-4.345,1.747-4.252,0-5.448S239.066,20.313,236.53,23.473Z" transform="translate(-104.137 -3.512)" fill="#ffb9ad"/>
        <path id="Tracé_207" d="M247.443,32.933c-.412,2.325-.577,5.252,1.546,6.793a16.808,16.808,0,0,0,4.031-1.175,16.194,16.194,0,0,0,3.855-2.747,9.147,9.147,0,0,0,0-1.247c-.155-2.577-3.381-24.327-13.215-15.864l1.593,3.3a27.676,27.676,0,0,1,2.118,5A14.431,14.431,0,0,1,247.443,32.933Z" transform="translate(-107.592 -1.082)" fill="#581b7a"/>
        <path id="Tracé_208" d="M236.53,17.007c-.031-.093,1.4-2.732,6.664-2.474,6,.3,6.664,7.324,6.664,7.324" transform="translate(-104.137 0)" fill="#581b7a"/>
        <path id="Tracé_209" d="M235.74,21.226c-.1.2-.356,3.092.345,3.927,0,0,3.762,1.917,5.886,2,0,0,0-2.448.283-2.7s-.155-4.546-2.933-5.118" transform="translate(-103.692 -2.338)" fill="#581b7a"/>
        <path id="Tracé_210"  d="M82.041,192.468c-3.551-2.062-7.077-4.226-10.664-6.252a10.664,10.664,0,0,0-4.829-1.608c-2.185-.067-5,1.5-3.665,3.984a8.265,8.265,0,0,0,3.165,2.757c2.33,1.459,4.706,2.855,7.046,4.3,2.809,1.727,6.427,4.7,9.973,4.262,2.062-.253,3.458-1.876,1.871-3.608a12.893,12.893,0,0,0-3.159-2.062L69.347,187.18a.644.644,0,1,0-.649,1.113l10.442,5.932c1.118.634,2.268,1.242,3.366,1.912.345.211.995.459,1.211.794,1.206,1.866-1.6,1.773-2.613,1.546a19.588,19.588,0,0,1-5.427-2.727c-2.026-1.258-4.061-2.489-6.1-3.726-1.252-.763-7.87-3.726-4.35-5.979,1.6-1.031,4.427.685,5.891,1.546q5.154,2.995,10.267,6.02a.644.644,0,0,0,.649-1.113Z" transform="translate(-19.822 -82.424)" fill="#2e3192"/>
        <path id="Tracé_211"  d="M260.62,87.125a21.186,21.186,0,0,0,4.01-5.185l-.515,7.216Z" transform="translate(-115.811 -32.673)" fill="#581b7a"/>
        <path id="Tracé_212"  d="M158.59,65.982,156.9,64.766h0a1.788,1.788,0,0,0-2.015-.124l-44.64,26.446a2.675,2.675,0,0,0-1.314,2.3v34.378a1.1,1.1,0,0,0,.4.85h0l.149.1h0l1.737,1.206.778-1.505-.6-.175L157.575,101.3V66.188h0Z" transform="translate(-42.304 -24.168)" fill="#68e1fd"/>
        <path id="Tracé_213" d="M158.59,65.982,156.9,64.766h0a1.788,1.788,0,0,0-2.015-.124l-44.64,26.446a2.675,2.675,0,0,0-1.314,2.3v34.378a1.1,1.1,0,0,0,.4.85h0l.149.1h0l1.737,1.206.778-1.505-.6-.175L157.575,101.3V66.188h0Z" transform="translate(-42.304 -24.168)" opacity="0.5"/>
        <path id="Tracé_214"  d="M123.533,96.437a8.294,8.294,0,0,1,10.349,2.469c.954,1.407,1.49,3.211,2.943,4.092a4.273,4.273,0,0,0,3.9.057c3.742-1.68,5.015-5.907,6.432-9.386,1.593-3.912,3.737-8.695,7.582-10.824a52.249,52.249,0,0,1,6-2.35V68.44a1.8,1.8,0,0,0-2.716-1.546l-44.64,26.446a2.675,2.675,0,0,0-1.314,2.3V117.7a58.634,58.634,0,0,1,4.2-12.411C117.827,101.875,120.033,98.148,123.533,96.437Z" transform="translate(-43.825 -25.26)" fill="#7162d9"/>
        <path id="Tracé_215"  d="M160.741,116.55V93.49a52.253,52.253,0,0,0-6,2.35c-3.85,2.139-5.994,6.922-7.582,10.824-1.417,3.484-2.69,7.705-6.432,9.386a4.273,4.273,0,0,1-3.9-.057c-1.453-.876-1.989-2.685-2.943-4.092a8.293,8.293,0,0,0-10.349-2.469c-3.484,1.706-5.711,5.453-7.278,8.865a58.633,58.633,0,0,0-4.2,12.411v12.318a1.124,1.124,0,0,0,1.685.969Z" transform="translate(-43.82 -38.27)" fill="#68e1fd"/>
        <ellipse id="Ellipse_5"  cx="4.577" cy="2.727" rx="4.577" ry="2.727" transform="matrix(0.25, -0.968, 0.968, 0.25, 92.199, 69.434)" fill="#e0ff4b"/>
        <path id="Tracé_216"  d="M171.674,82.176l-44.64,26.446a2.675,2.675,0,0,0-1.314,2.3V145.3a1.1,1.1,0,0,0,.4.85h0l.149.1h0l1.737,1.206.778-1.505-.6-.175,46.2-26.982V83.723a1.8,1.8,0,0,0-2.711-1.546Z" transform="translate(-50.44 -32.667)" fill="#68e1fd"/>
        <path id="Tracé_217"  d="M218.446,82.65l1.716,1.216-2.082.412" transform="translate(-95.196 -33.017)" fill="#006da8"/>
        <path id="Tracé_218"  d="M171.674,82.176l-44.64,26.446a2.675,2.675,0,0,0-1.314,2.3V145.3a1.1,1.1,0,0,0,.4.85h0l.149.1h0l1.737,1.206.778-1.505-.6-.175,46.2-26.982V83.723a1.8,1.8,0,0,0-2.711-1.546Z" transform="translate(-50.44 -32.667)" opacity="0.5"/>
        <path id="Tracé_219"  d="M140.378,113.982a8.294,8.294,0,0,1,10.349,2.469c.954,1.407,1.49,3.211,2.943,4.092a4.273,4.273,0,0,0,3.9.057c3.742-1.68,5.015-5.907,6.432-9.386,1.593-3.912,3.737-8.7,7.582-10.824a52.254,52.254,0,0,1,6-2.386V85.98a1.8,1.8,0,0,0-2.716-1.546L130.234,110.89a2.675,2.675,0,0,0-1.314,2.3v22.06a58.635,58.635,0,0,1,4.165-12.421C134.672,119.415,136.878,115.688,140.378,113.982Z" transform="translate(-51.99 -33.759)" fill="#7162d9"/>
        <path id="Tracé_220"  d="M177.556,134.07V111a52.253,52.253,0,0,0-6,2.35c-3.85,2.139-5.994,6.922-7.582,10.824-1.417,3.484-2.69,7.705-6.432,9.386a4.273,4.273,0,0,1-3.9-.057c-1.453-.876-1.989-2.685-2.943-4.092a8.293,8.293,0,0,0-10.349-2.469c-3.484,1.706-5.706,5.469-7.293,8.881a58.634,58.634,0,0,0-4.2,12.411v12.318a1.124,1.124,0,0,0,1.685.969Z" transform="translate(-51.961 -46.755)" fill="#68e1fd"/>
        <ellipse id="Ellipse_6"  cx="4.577" cy="2.727" rx="4.577" ry="2.727" transform="matrix(0.25, -0.968, 0.968, 0.25, 100.876, 78.473)" fill="#e0ff4b"/>
        <path id="Tracé_221"  d="M200.474,89.926l-44.64,26.446a2.675,2.675,0,0,0-1.314,2.3v34.378a1.1,1.1,0,0,0,.4.85h0l.149.1h0l1.737,1.206.778-1.505-.6-.175,46.2-26.982V91.473a1.8,1.8,0,0,0-2.711-1.546Z" transform="translate(-64.396 -36.423)" fill="#68e1fd"/>
        <path id="Tracé_222"  d="M247.241,90.39l1.716,1.222-2.077.407" transform="translate(-109.152 -36.768)" fill="#006da8"/>
        <path id="Tracé_223"  d="M200.474,89.926l-44.64,26.446a2.675,2.675,0,0,0-1.314,2.3v34.378a1.1,1.1,0,0,0,.4.85h0l.149.1h0l1.737,1.206.778-1.505-.6-.175,46.2-26.982V91.473a1.8,1.8,0,0,0-2.711-1.546Z" transform="translate(-64.396 -36.423)" opacity="0.5"/>
        <path id="Tracé_224"  d="M169.163,121.717a8.294,8.294,0,0,1,10.349,2.469c.954,1.407,1.49,3.211,2.943,4.092a4.273,4.273,0,0,0,3.9.057c3.742-1.68,5.015-5.907,6.432-9.386,1.593-3.912,3.737-8.7,7.582-10.824a52.253,52.253,0,0,1,6-2.35V93.72a1.8,1.8,0,0,0-2.716-1.546l-44.64,26.446a2.675,2.675,0,0,0-1.314,2.3v22.07a58.633,58.633,0,0,1,4.2-12.411C163.457,127.155,165.663,123.428,169.163,121.717Z" transform="translate(-65.937 -37.51)" fill="#7162d9"/>
        <path id="Tracé_225"  d="M206.371,141.824V118.77a52.251,52.251,0,0,0-6,2.35c-3.85,2.139-5.994,6.922-7.582,10.824-1.417,3.484-2.69,7.705-6.432,9.386a4.273,4.273,0,0,1-3.9-.057c-1.453-.876-1.99-2.685-2.943-4.092a8.293,8.293,0,0,0-10.349-2.469c-3.484,1.706-5.706,5.438-7.272,8.85A58.633,58.633,0,0,0,157.69,156v12.318a1.124,1.124,0,0,0,1.685.969Z" transform="translate(-65.932 -50.52)" fill="#68e1fd"/>
        <ellipse id="Ellipse_7"  cx="4.577" cy="2.727" rx="4.577" ry="2.727" transform="matrix(0.25, -0.968, 0.968, 0.25, 115.717, 82.459)" fill="#e0ff4b"/>
        <path id="Tracé_226"  d="M242.1,213.452,231.3,221l-11.02-8.819,8.509-7.159Z" transform="translate(-96.262 -92.316)" fill="url(#linear-gradient-2)"/>
        <path id="Tracé_227"  d="M180.971,128.348a1.758,1.758,0,0,0-.861,1.51V166.71l48.681-28.435V100Z" transform="translate(-76.797 -41.425)" fill="#ff8c79"/>
        <path id="Tracé_228"  d="M265.976,169.2v18.586l-14.39,8.308-11.726-6.968V171.86" transform="translate(-105.751 -74.958)" fill="#ffaf68"/>
        <path id="Tracé_229"  d="M251.586,199.259V180.925l-11.726-5.2v16.56Z" transform="translate(-105.751 -78.123)" fill="#f49e5d"/>
        <path id="Tracé_230"  d="M239.86,172.48v1.675l1.113.34.742-1.134" transform="translate(-105.751 -76.548)" fill="#ea8e50"/>
        <path id="Tracé_231"  d="M254.127,158.82l11.854,7.02-14.823,8.535c-.438.253-11.3-6.865-11.3-6.865Z" transform="translate(-105.751 -69.928)" fill="#ea8e50"/>
        <path id="Tracé_232"  d="M288.529,169.882v-1.675L286.4,167.15l.258,2.969" transform="translate(-128.303 -73.965)" fill="#ea8e50"/>
        <path id="Tracé_233"  d="M254.127,155.58l11.854,7.02-14.823,8.556c-.438.253-11.3-6.865-11.3-6.865Z" transform="translate(-105.751 -68.358)" fill="#ffb883"/>
        <path id="Tracé_234"  d="M276.382,179.37v3.85L265.6,189.369V185.6Z" transform="translate(-118.224 -79.886)" fill="#ea8e50"/>
        <path id="Tracé_235"  d="M276.662,190.52v3.85l-10.782,6.149v-3.773Z" transform="translate(-118.36 -85.29)" fill="#ea8e50"/>
        <ellipse id="Ellipse_8" cx="0.685" cy="0.484" rx="0.685" ry="0.484" transform="translate(152.708 104.926) rotate(-84.55)" fill="#ffb883"/>
        <ellipse id="Ellipse_9"  cx="0.685" cy="0.484" rx="0.685" ry="0.484" transform="translate(153.147 110.474) rotate(-84.55)" fill="#ffb883"/>
        <path id="Tracé_236"  d="M221.08,179.008,201.422,167.87l-7.1,4.458,8.886,8.963,11.4,5.17" transform="translate(-83.683 -74.314)" fill="#68e1fd"/>
        <path id="Tracé_237"  d="M221.08,179.008,201.422,167.87l-7.1,4.458,8.886,8.963,11.4,5.17" transform="translate(-83.683 -74.314)" fill="#fff" opacity="0.5"/>
        <path id="Tracé_238"  d="M213.3,187.668,194.32,176.52v23.307L213.3,210.388v-.093l.165.093,7.618-4.639V183.2Z" transform="translate(-83.683 -78.505)" fill="#68e1fd"/>
        <path id="Tracé_239" d="M233.78,198.493v9.752l5.5-3.232V195.37Z" transform="translate(-102.804 -87.64)" fill="#ffecb3"/>
        <path id="Tracé_240" d="M213.3,187.668v22.719L194.32,199.827V176.52Z" transform="translate(-83.683 -78.505)" opacity="0.2"/>
        <ellipse id="Ellipse_10"  cx="1.84" cy="1.252" rx="1.84" ry="1.252" transform="matrix(0.227, -0.974, 0.974, 0.227, 132.502, 124.692)" fill="#ffecb3"/>
        <path id="Tracé_241"  d="M259.856,152.5s-1.933,8.87-1.783,9.38c.376,1.3,5.757,2.062,7.345,0l-1.953-9.38Z" transform="translate(-114.572 -66.866)" fill="#f23db4"/>
        <ellipse id="Ellipse_11" cx="1.861" cy="1.046" rx="1.861" ry="1.046" transform="translate(145.186 84.702)" fill="#934600"/>
        <path id="Tracé_242" d="M266.1,116.712a4.221,4.221,0,0,0-5.8,2.062c-2.191,3.989,1.031,5.907,4.613,6.051S269.128,118.057,266.1,116.712Z" transform="translate(-115.309 -49.298)" fill="#e0ff4b"/>
        <path id="Tracé_243" d="M267.439,117.033c-2.953,5.469-3.407,11.777-3.659,17.869,0,.32.484.32.515,0,.247-6,.68-12.231,3.608-17.617C268.017,117,267.589,116.75,267.439,117.033Z" transform="translate(-117.342 -49.619)" fill="#1a892d"/>
        <path id="Tracé_244"  d="M270.808,136.928s-4.989-.2-4.412,3.123,4.829,2.654,5.458.861S270.808,136.928,270.808,136.928Z" transform="translate(-118.587 -59.318)" fill="#e0ff4b"/>
        <path id="Tracé_245"  d="M270.655,137.188a29.039,29.039,0,0,0-4.443,8.458.186.186,0,0,0,.356.108,28.719,28.719,0,0,1,4.4-8.37C271.114,137.2,270.8,137,270.655,137.188Z" transform="translate(-118.517 -59.408)" fill="#1a892d"/>
        <path id="Tracé_246"  d="M252.9,131.895s-2.68,4.211.484,5.381,4.721-2.845,3.489-4.288S252.9,131.895,252.9,131.895Z" transform="translate(-111.558 -56.862)" fill="#e0ff4b"/>
        <path id="Tracé_247"  d="M259.047,142.355a68.1,68.1,0,0,0-5.2-11.154.187.187,0,1,0-.325.186,67.545,67.545,0,0,1,5.154,11.061C258.763,142.669,259.124,142.582,259.047,142.355Z" transform="translate(-112.361 -56.499)" fill="#1a892d"/>
        <path id="Tracé_248" d="M238.543,92.237a.618.618,0,0,0-.887.371c-.057.191-.124.381-.191.572a.634.634,0,0,0-.325.35c-.077.2-.155.387-.237.577l-.052-.088c.237-.551-.479-1.155-.948-.753a.777.777,0,0,0-.186-.046q.448-.294.887-.6c.649-.464.026-1.546-.629-1.077-1.711,1.216-3.814,1.989-5.154,3.716-.2.253-1.232,1.495-1.1,1.809a.711.711,0,0,0,.515.428c.9.124,1.335-.871,2.026-1.448-.454,1.17-1.283,2.16-1.438,3.464a.6.6,0,0,0,.686.608l-.134.283c-.35.722.727,1.35,1.077.629l.216-.454a.66.66,0,0,0,1.031.247,6.625,6.625,0,0,0,.541-.515.6.6,0,0,0,.861,0c1.165-1.129,1.649-2.675,2.407-4.061a15.427,15.427,0,0,0,1.969-3.185C239.8,92.377,238.951,91.8,238.543,92.237Z" transform="translate(-100.831 -37.27)" fill="#ffb9ad"/>
        <path id="Tracé_249"  d="M234.325,102.771l-1.345,2.649c-.108.216.216.4.325.191l1.319-2.639C234.753,102.745,234.428,102.554,234.325,102.771Z" transform="translate(-102.406 -42.721)" fill="#0d0d0d"/>
        <path id="Tracé_250"  d="M236.5,104.65q-.515,1.2-1.093,2.376c-.1.216.216.407.325.191q.572-1.175,1.093-2.376C236.916,104.625,236.6,104.434,236.5,104.65Z" transform="translate(-103.585 -43.632)" fill="#0d0d0d"/>
        <path id="Tracé_251"  d="M239.015,103.921l-1.031,2.392c-.093.216.227.407.325.191l1.031-2.392C239.443,103.921,239.123,103.72,239.015,103.921Z" transform="translate(-104.834 -43.285)" fill="#0d0d0d"/>
        <path id="Tracé_252"  d="M243.762,64.59s-4.453,9.556-8.6,12.581c0,0,3.546,8.422,7.788,6.293,1.546-.763,8.834-7.381,10.617-12.592" transform="translate(-103.473 -24.265)" fill="#f23db4"/>
        <path id="Tracé_253"  d="M202.814,85.693a16.172,16.172,0,0,0-1.716,1.763c-.381.459-.933.974-.83,1.613.031.191.325.113.294-.082-.1-.593.783-1.371,1.155-1.783a16.38,16.38,0,0,1,1.314-1.294C203.175,85.78,202.959,85.564,202.814,85.693Z" transform="translate(-86.559 -34.472)" fill="#0d0d0d"/>
        <path id="Tracé_254" d="M204.23,90.46h.005Z" transform="translate(-88.48 -36.802)" fill="#ffb9ad"/>
        <path id="Tracé_255"  d="M211.155,74.867a.634.634,0,0,0-.515-.588l.278-.175a.608.608,0,0,0,.2-.794c-2.928,1.737-6.02,3.2-8.953,4.927a23.343,23.343,0,0,0-2.371,1.943c-.443.417.057,1.258.624.917q.716-.428,1.423-.871c-.4.484-.783.974-1.16,1.474-.309.412-.979,1.587-.237,1.5.283-.144,1.108-.758,1.546-1.031h0l.155-.1-.129.088c.108-.057.515-.309.515-.294.34-.186.675-.381,1.031-.577a.129.129,0,0,0,.1.1h.088a.149.149,0,0,0,.144.191,1.634,1.634,0,0,0,.515-.134,1.314,1.314,0,0,0,.515-.366.16.16,0,0,0,.026-.041,1.545,1.545,0,0,0,.216-.33.149.149,0,0,0,0-.134l.093-.129c.129-.129.242-.263.366-.4l1.572-.969.211-.088,1.191-.4a.155.155,0,0,0-.082-.294l-.1.031h0l.32-.2.515-.392A15.721,15.721,0,0,0,211.67,75.7C212.026,75.289,211.6,74.846,211.155,74.867Z" transform="translate(-86.251 -28.491)" fill="#ffb9ad"/>
        <path id="Tracé_256"  d="M212.623,82.822a4.845,4.845,0,0,1-2.149.938c-.258.041-.747-.026-.979.134a.85.85,0,0,0-.258.428,5.264,5.264,0,0,1-.515.995c-.216.309-.758.887-1.2.789-.618-.139.34-2.026.515-2.325a.155.155,0,0,0-.263-.155,6.628,6.628,0,0,0-.567,1.3,2.474,2.474,0,0,0-.2,1.149c.155.639,1.1.232,1.428,0a2.675,2.675,0,0,0,.727-.876c.108-.2.18-.417.289-.618a.752.752,0,0,1,.222-.309c.18-.165.273-.139.515-.16a5.056,5.056,0,0,0,2.6-1.031C212.932,82.966,212.778,82.7,212.623,82.822Z" transform="translate(-89.827 -33.086)" fill="#0d0d0d"/>
        <path id="Tracé_257"  d="M223.623,45.13s-3.01,7.664-5,9.4-8.324,5.958-8.324,5.958a5.964,5.964,0,0,0,5.154,5.876s10.659-6.03,13.014-7.731" transform="translate(-91.426 -14.835)" fill="#f23db4"/>
        <path id="Tracé_258" d="M237.019,61.2l-.68,8.633c-.026.33.49.33.515,0l.68-8.633C237.561,60.868,237.045,60.868,237.019,61.2Z" transform="translate(-104.044 -22.502)" fill="#581b7a"/>
      </g>
      <path id="Tracé_338"  d="M642.658,434.335a23.451,23.451,0,0,1,46.012-4.944c.284-.01.568-.022.855-.022a9.205,9.205,0,0,1,2.874.489c11.665,3.83,8.593,21.247-3.685,21.247H658.539a15.862,15.862,0,0,1-15.9-16.424Q642.649,434.508,642.658,434.335Z" transform="translate(-583.068 -310.863)" fill="#6c63ff"/>
    </g>
    <path id="Tracé_339"  d="M453.854,346.248v-9.6h-5.169v9.6h-4.126l3.355,5.812,3.356,5.812,3.355-5.812,3.355-5.812Z" transform="translate(-366.761 -223.141)" fill="#fff"/>
  </g>
</svg>
