<svg xmlns="http://www.w3.org/2000/svg" xmlns:xlink="http://www.w3.org/1999/xlink" width="195" height="147.771" viewBox="0 0 195 147.771">
  <defs>
    <linearGradient id="linear-gradient" x1="0.415" y1="0.892" x2="0.633" y2="-0.366" gradientUnits="objectBoundingBox">
      <stop offset="0" stop-color="#fff" stop-opacity="0"/>
      <stop offset="0.98" stop-color="#0800bf"/>
    </linearGradient>
    <linearGradient id="linear-gradient-2" x1="0.442" y1="0.769" x2="0.577" y2="-0.035" xlink:href="#linear-gradient"/>
    <linearGradient id="linear-gradient-3" x1="0.417" y1="0.819" x2="0.605" y2="-0.369" xlink:href="#linear-gradient"/>
    <linearGradient id="linear-gradient-4" y1="0.5" x2="1" y2="0.5" gradientUnits="objectBoundingBox">
      <stop offset="0" stop-color="gray" stop-opacity="0.251"/>
      <stop offset="0.54" stop-color="gray" stop-opacity="0.122"/>
      <stop offset="1" stop-color="gray" stop-opacity="0.102"/>
    </linearGradient>
    <linearGradient id="linear-gradient-11" x1="0.5" y1="1" x2="0.5" y2="0" xlink:href="#linear-gradient-4"/>
    <linearGradient id="linear-gradient-13" x1="0" y1="0.5" y2="0.5" xlink:href="#linear-gradient-4"/>
    <linearGradient id="linear-gradient-24" x1="0.5" y1="1" x2="0.5" y2="0" xlink:href="#linear-gradient-4"/>
    <linearGradient id="linear-gradient-29" x1="0" y1="0.5" y2="0.5" xlink:href="#linear-gradient-4"/>
    <linearGradient id="linear-gradient-47" x1="0" y1="0.5" y2="0.5" xlink:href="#linear-gradient-4"/>
    <linearGradient id="linear-gradient-52" x1="0.5" y1="1" x2="0.5" y2="0" xlink:href="#linear-gradient-4"/>
    <linearGradient id="linear-gradient-53" x1="0" y1="0.5" y2="0.5" xlink:href="#linear-gradient-4"/>
    <linearGradient id="linear-gradient-54" x1="0.5" y1="0.999" x2="0.5" y2="-0.002" xlink:href="#linear-gradient-4"/>
    <linearGradient id="linear-gradient-55" x1="0" y1="0.5" y2="0.5" xlink:href="#linear-gradient-4"/>
    <linearGradient id="linear-gradient-56" x1="0.001" y1="0.501" y2="0.501" xlink:href="#linear-gradient-4"/>
    <linearGradient id="linear-gradient-61" x1="0" y1="0.5" y2="0.5" xlink:href="#linear-gradient-4"/>
    <linearGradient id="linear-gradient-63" x1="0" y1="0.5" y2="0.5" xlink:href="#linear-gradient-4"/>
    <linearGradient id="linear-gradient-64" x1="0" y1="0.498" y2="0.498" xlink:href="#linear-gradient-4"/>
    <linearGradient id="linear-gradient-65" x1="0" y1="0.498" y2="0.498" xlink:href="#linear-gradient-4"/>
    <linearGradient id="linear-gradient-67" x1="0" y1="0.502" y2="0.502" xlink:href="#linear-gradient-4"/>
    <linearGradient id="linear-gradient-68" x1="0" y1="0.502" y2="0.502" xlink:href="#linear-gradient-4"/>
    <linearGradient id="linear-gradient-70" x1="0" y1="0.5" y2="0.5" xlink:href="#linear-gradient-4"/>
    <linearGradient id="linear-gradient-73" x1="0" y1="0.499" y2="0.499" xlink:href="#linear-gradient-4"/>
    <linearGradient id="linear-gradient-74" x1="0" y1="0.501" y2="0.501" xlink:href="#linear-gradient-4"/>
    <linearGradient id="linear-gradient-89" x1="0.5" y1="1.002" x2="0.5" y2="0.003" xlink:href="#linear-gradient-4"/>
    <linearGradient id="linear-gradient-91" x1="0.5" y1="1" x2="0.5" y2="0" xlink:href="#linear-gradient-4"/>
  </defs>
  <g id="Groupe_111" transform="translate(-40 -103)">
    <g id="knowledge__isometric" transform="translate(15.7 78.333)">
      <ellipse id="Ellipse_12" cx="97.5" cy="49.146" rx="97.5" ry="49.146" transform="translate(24.3 66.39)" fill="#58e6ca"/>
      <path id="Tracé_259" d="M31.36,188.93c8.278-4.463,31.04-15.587,39.285-20.143L62.223,164.8,24.3,180.165C32.993,184.705,19.361,181.522,31.36,188.93Z" transform="translate(0 -62.542)" opacity="0.32" fill="url(#linear-gradient)"/>
      <path id="Tracé_260" d="M96.779,252.552c8.305-4.468,37.325-22.829,45.552-27.4L83.972,204.17l-37.4,20C55.246,228.715,84.775,245.127,96.779,252.552Z" transform="translate(-9.939 -80.113)" opacity="0.32" fill="url(#linear-gradient-2)"/>
      <path id="Tracé_261" d="M241.464,207.84c8.305-4.468,29.783-17.607,38.017-22.175l-22.148-3.7L224.87,193.438C233.546,197.973,229.46,200.415,241.464,207.84Z" transform="translate(-89.516 -70.201)" opacity="0.32" fill="url(#linear-gradient-3)"/>
      <path id="Tracé_262" d="M115.52,45.895s3.073-2.215,3.322-3.976a2.5,2.5,0,0,0-1.384-2.519l-2.148,2.547" transform="translate(-40.618 -6.575)" fill="#e56461"/>
      <path id="Tracé_263" d="M112.314,34.14c-.327,0-1.008-.831-1.229-1.08a5.659,5.659,0,0,1-.93-1.4c-1.323-2.868.448-6.716,3.749-6.943a6.09,6.09,0,0,1,.7,0c2.165.1,3.82,2.259,4.02,4.3a6.041,6.041,0,0,1-.52,3,4.54,4.54,0,0,1-.819,1.213c-.233.249-.941,1.013-1.3,1Z" transform="translate(-38.121 -0.02)" fill="#fbb03b"/>
      <path id="Tracé_264" d="M114.8,36.893l-.421-5.731s-.77-1.406-1.307-.41.554,1.661,2.863,1.55,2.7-1.174,2.215-1.589-1.329.161-1.368.454-.515,5.731-.515,5.731" transform="translate(-39.559 -2.556)" fill="none" stroke="#f2f2f2" stroke-miterlimit="10" stroke-width="0.5"/>
      <rect id="Rectangle_12"  width="5.587" height="1.318" rx="0.659" transform="translate(73.274 34.026)" fill="#ccc"/>
      <rect id="Rectangle_13"  width="5.587" height="1.318" rx="0.659" transform="translate(73.274 35.344)" fill="#ccc"/>
      <path id="Tracé_265" d="M111.56,45.582s.493-2.425.493-2.608.675-2.248,1.345-2.292,2.11.044,2.292.448-.991.786-1.75.8a3.483,3.483,0,0,1,.764,2.979,4.812,4.812,0,0,1-1.977,2.53" transform="translate(-38.945 -7.143)" fill="#f67770"/>
      <path id="Tracé_266" d="M94.343,157.163a2.071,2.071,0,0,0,.421,1.7c.642.692,3.1,2.868,3.322,3.322s.554,1.755,0,2.215-1.661.493-2.984,0a23.61,23.61,0,0,1-5.144-3.211c-.592-.642,0-7.27,0-7.27s3.444-.842,4.6,0Z" transform="translate(-29.186 -57.519)" fill="#42210b"/>
      <path id="Tracé_267" d="M77.973,165.153a2.071,2.071,0,0,0,.421,1.7c.642.692,3.1,2.868,3.322,3.322s.554,1.755,0,2.215-1.661.493-2.984,0a23.611,23.611,0,0,1-5.144-3.211c-.592-.642,0-7.27,0-7.27s3.444-.842,4.6,0Z" transform="translate(-21.88 -61.085)" fill="#42210b"/>
      <path id="Tracé_268" d="M86.482,82.77a85.862,85.862,0,0,1,1.871,15.077c.116,7.287-.747,26.854-.747,26.854s-2.015,1.938-6.456,1.257V98.827s-1.545.554-1.545,1.728-1.412,28.931-1.412,28.931-.792,1.473-6.595-.781c0,0-1.982-36.821,2.276-43.958" transform="translate(-20.904 -25.932)" fill="#e6e6e6"/>
      <path id="Tracé_269" d="M75.312,68.186c1.019-.039,3.876.676,5.808.554a21.356,21.356,0,0,0,5.537-.975c.072-.343.138-.7.188-1.107,1.29-9.966.947-16.932,0-18.5s-6.6-2.824-9.175-2.11-6.451,3.7-6.451,3.7A100.035,100.035,0,0,0,74.171,64.2C74.7,65.861,74.7,65.861,75.312,68.186Z" transform="translate(-20.941 -9.449)" fill="#42210b"/>
      <path id="Tracé_270" d="M86.057,45.687c.908.194,1.08-2.32.692-2.553a17.886,17.886,0,0,0-5.293.033c-1.434.637,0,2.768,0,2.768" transform="translate(-25.225 -8.161)" fill="#42210b"/>
      <path id="Tracé_271" d="M79.35,27.011c.819-.144.792-1.512,2.314-2.132a4.6,4.6,0,0,1,3.987.753c.664.482,1.152-.5,1.883.255s.266,1.9.692,2.314l.061.044a2.121,2.121,0,0,1,.061,2.06,6.218,6.218,0,0,1-1.179,1.19l-6.827,3.56c-.825-.581-2.4-6.091-2.314-6.75A1.44,1.44,0,0,1,79.35,27.011Z" transform="translate(-23.977 0)" fill="#200904"/>
      <path id="Tracé_272" d="M88.053,31.288c.31.332-.714,6.921-2.713,7.154s-4.363-2.414-4.574-3.2-.089-4.983.725-5.4S86.149,29.256,88.053,31.288Z" transform="translate(-25.161 -2.19)" fill="#f67770"/>
      <path id="Tracé_273" d="M86.128,27.957s.41,1.528-2,1.822-2.575.814-2.84,1.661c-.554,1.578-2.215,3.411-2.768-1.323-.028-.227,1.694-3.472,3.555-3.726S86.128,27.957,86.128,27.957Z" transform="translate(-24.198 -0.758)" fill="#200904"/>
      <path id="Tracé_274" d="M81.846,36.318s-.753-1.3-1.334-.681-.161,2.06.626,2.514" transform="translate(-24.966 -4.822)" fill="#f67770"/>
      <path id="Tracé_275" d="M96.252,49.254a32.468,32.468,0,0,1,2.84,6.489s3.134-7.519,3.743-7.414,2.7,1.412,2.874,2.281-3.1,12.442-7.121,13.488-6.279-7.89-6.279-7.89" transform="translate(-30.353 -10.56)" fill="#42210b"/>
      <path id="Tracé_276" d="M76.82,81.95l2.093.725s1.827.554,1.938,1.107-2.054.05-2.514,0,2.021,2.342,2.01,2.741-.41.454-.7.343.4.687-.172.858a.958.958,0,0,1-.969-.4s-.055.8-.626.687-3.112-3.045-3.366-4.07S75.746,81.585,76.82,81.95Z" transform="translate(-22.399 -25.538)" fill="#f67770"/>
      <path id="Tracé_277" d="M74.494,85.392s.974,3.1,1.55,3.051.731-1.351.731-1.351A17.207,17.207,0,0,0,74.8,84.572C74.411,84.389,74.494,85.392,74.494,85.392Z" transform="translate(-22.399 -26.726)" fill="#f67770"/>
      <path id="Tracé_278" d="M65.732,52.69S59.425,60.3,58.75,63.016s8.012,9.258,8.012,9.258l3.184-3.355s-5.62-5.321-4.817-6.129,5.122-4.867,5.122-4.867" transform="translate(-15.358 -12.507)" fill="#42210b"/>
      <path id="Tracé_279" d="M184.652,39.16l-8.272,4.413L198.965,64.84,218.876,71.1l6.633-9" transform="translate(-67.874 -6.468)" fill="#ffe8bc"/>
      <path id="Tracé_280" d="M222.5,66.139l7.68-4.369L191.32,38.732l.914-.532,39.944,23.471v59.943l-8.715,4.961-3.322-3.466" transform="translate(-74.542 -6.04)" fill="#68e1fd"/>
      <path id="Tracé_281" d="M222.5,66.139l7.68-4.369L191.32,38.732l.914-.532,39.944,23.471v59.943l-8.715,4.961-3.322-3.466" transform="translate(-74.542 -6.04)" fill="#1371a5" opacity="0.42"/>
      <path id="Tracé_282"  d="M175.867,47.13l40.414,23.56v59.871L175.23,106.026Z" transform="translate(-67.361 -10.025)" fill="#68e1fd"/>
      <path id="Tracé_283"  d="M242.473,81.281l-2.464,1.561V95.611l-1.567-2.01-1.1,1.246V81.326l2.309-1.656Z" transform="translate(-95.081 -24.548)" fill="#e85858"/>
      <path id="Tracé_284"  d="M166.152,50.28,157.88,54.7,180.465,75.96l19.911,6.262,6.633-9" transform="translate(-59.618 -11.431)" fill="#ffe8bc"/>
      <path id="Tracé_285"  d="M204,77.269l7.68-4.374L172.82,49.856l.914-.526L213.677,72.8v59.943l-8.715,4.961-3.322-3.466" transform="translate(-66.285 -11.007)" fill="#68e1fd"/>
      <path id="Tracé_286"  d="M204,77.269l7.68-4.374L172.82,49.856l.914-.526L213.677,72.8v59.943l-8.715,4.961-3.322-3.466" transform="translate(-66.285 -11.007)" fill="#1371a5" opacity="0.42"/>
      <path id="Tracé_287"  d="M157.367,58.26l40.414,23.56v59.871l-41.051-24.54Z" transform="translate(-59.104 -14.993)" fill="#68e1fd"/>
      <path id="Tracé_288"  d="M223.973,92.411l-2.464,1.561v12.768l-1.567-2.01-1.1,1.24V92.456l2.309-1.656Z" transform="translate(-86.824 -29.515)" fill="#e85858"/>
      <path id="Tracé_289"  d="M247.361,223.416c.161,0,1.589-.554.382-1.495a24.777,24.777,0,0,0-2.5-1.711" transform="translate(-98.607 -87.272)" fill="#fec64b"/>
      <path id="Tracé_290"  d="M222.832,212.35s-1.2,4.43,0,6.833L206.464,228.8l-16.184,9.38v-6.921" transform="translate(-74.078 -83.764)" fill="#ffe8bc"/>
      <path id="Tracé_291"  d="M222.357,211.1q-.055.465-.116.925L189.262,230.69v6.932l32.95-19.219v.819L188,239.017V229.6Z" transform="translate(-73.06 -83.206)" fill="#fec64b"/>
      <path id="Tracé_292"  d="M183.841,188.681l-34.008,19.468L102.11,180.132l33.277-19.086a3.283,3.283,0,0,1,3.322,0l45.148,26.76a.493.493,0,0,1-.017.875Z" transform="translate(-34.727 -60.665)" fill="#fec64b"/>
      <path id="Tracé_293"  d="M149.675,232.207s-47.69-28.083-47.546-28.238,0-8.128,0-8.128l47.723,28.017Z" transform="translate(-34.736 -76.395)" fill="#fec64b"/>
      <path id="Tracé_294"  d="M249.517,209.78a1.213,1.213,0,0,1,.5.864c.055.554-.554.864-.775.986" transform="translate(-100.392 -82.617)" fill="#fec64b"/>
      <path id="Tracé_295"  d="M247.361,206.416c.161,0,1.589-.554.382-1.495a24.78,24.78,0,0,0-2.5-1.711" transform="translate(-98.607 -79.685)" fill="#58e6ca"/>
      <path id="Tracé_296"  d="M222.832,195.31s-1.2,4.43,0,6.833l-16.362,9.607-16.19,9.369V214.2" transform="translate(-74.078 -76.159)" fill="#ffe8bc"/>
      <path id="Tracé_297"  d="M222.357,194.06q-.055.465-.116.925L189.262,213.65v6.921l32.95-19.219v.819L188,221.983V212.57Z" transform="translate(-73.06 -75.601)" fill="#58e6ca"/>
      <path id="Tracé_298"  d="M183.841,171.641l-34.008,19.468L102.11,163.092l33.277-19.086a3.283,3.283,0,0,1,3.322,0l45.148,26.76a.493.493,0,0,1-.017.875Z" transform="translate(-34.727 -53.06)" fill="#58e6ca"/>
      <path id="Tracé_299"  d="M149.675,215.177s-47.69-28.083-47.546-28.238,0-8.128,0-8.128l47.723,28.017Z" transform="translate(-34.736 -68.795)" fill="#46d1b6"/>
      <path id="Tracé_300"  d="M249.517,192.75a1.213,1.213,0,0,1,.5.864c.055.554-.554.864-.775.986" transform="translate(-100.392 -75.016)" fill="#58e6ca"/>
      <path id="Tracé_301"  d="M247.361,191.646c.161,0,1.589-.554.382-1.495a24.769,24.769,0,0,0-2.5-1.711" transform="translate(-98.607 -73.093)" fill="#3484c6"/>
      <path id="Tracé_302"  d="M222.827,180.53s-1.2,4.43,0,6.833L206.46,196.98l-16.19,9.368v-6.921" transform="translate(-74.073 -69.562)" fill="#ffe8bc"/>
      <path id="Tracé_303"  d="M222.357,179.28q-.055.465-.116.925L189.262,198.87v6.921l32.95-19.219v.819L188,207.2V197.79Z" transform="translate(-73.06 -69.005)" fill="#3484c6"/>
      <path id="Tracé_304"  d="M183.841,156.861l-34.008,19.468L102.11,148.312l33.277-19.086a3.283,3.283,0,0,1,3.322,0l45.143,26.8a.493.493,0,0,1-.011.831Z" transform="translate(-34.727 -46.464)" fill="#3484c6"/>
      <path id="Tracé_305"  d="M149.675,200.4s-47.69-28.083-47.546-28.238,0-8.128,0-8.128l47.723,28.017Z" transform="translate(-34.736 -62.198)" fill="#2571a5"/>
      <path id="Tracé_306"  d="M249.517,178a1.213,1.213,0,0,1,.5.864c.055.554-.554.864-.775.986" transform="translate(-100.392 -68.433)" fill="#3484c6"/>
      <path id="Tracé_307"  d="M247.361,174.476c.161,0,1.589-.554.382-1.495a24.78,24.78,0,0,0-2.5-1.711" transform="translate(-98.607 -65.43)" fill="#db948f"/>
      <path id="Tracé_308"  d="M222.832,163.36s-1.2,4.43,0,6.833l-16.367,9.618-16.184,9.374v-6.921" transform="translate(-74.078 -61.899)" fill="#ffe8bc"/>
      <path id="Tracé_309"  d="M222.357,162.11q-.055.465-.116.925L189.262,181.7v6.927l32.95-19.219v.819L188,190.033V180.62Z" transform="translate(-73.06 -61.341)" fill="#db948f"/>
      <path id="Tracé_310"  d="M183.841,139.7l-34.008,19.462L102.11,131.142l33.277-19.086a3.284,3.284,0,0,1,3.322,0l45.148,26.76a.493.493,0,0,1-.017.88Z" transform="translate(-34.727 -38.801)" fill="#db948f"/>
      <path id="Tracé_311"  d="M149.675,183.227s-47.69-28.083-47.546-28.238,0-8.128,0-8.128l47.723,28.017Z" transform="translate(-34.736 -54.535)" fill="#b26967"/>
      <path id="Tracé_312"  d="M249.517,160.8a1.213,1.213,0,0,1,.5.864c.055.554-.554.864-.775.986" transform="translate(-100.392 -60.757)" fill="#db948f"/>
      <path id="Tracé_313"  d="M289.284,168.653a2.547,2.547,0,0,1-1.063-.232l-.161,1.074,17.281.443v-1.29Z" transform="translate(-117.718 -64.158)" fill="#ba4d02"/>
      <path id="Tracé_314"  d="M288.215,168.49l-.155,1.035,9.54,5.509V173.7C294.378,172.133,291.277,170.345,288.215,168.49Z" transform="translate(-117.718 -64.189)" fill="#ba4d02"/>
      <path id="Tracé_315"  d="M295.585,33.808a2.769,2.769,0,0,1-1.661-.238L283,118c.67.4,1.357.77,2.032,1.146l11.074-85.418A2.789,2.789,0,0,0,295.585,33.808Z" transform="translate(-115.459 -3.973)" fill="#ba4d02"/>
      <path id="Tracé_316"  d="M308.535,33.79a5.537,5.537,0,0,1-1.2,0,6.243,6.243,0,0,0-.963.05l7.392,86.6a17.548,17.548,0,0,1,1.744-.736l.293-.15h.055Z" transform="translate(-125.889 -4.071)" fill="#ba4d02"/>
      <path id="Tracé_317"  d="M306.048,33.8a9.934,9.934,0,0,0-1.318.094,3.284,3.284,0,0,1-.52.033l-.72,91.526h0a2.254,2.254,0,0,1,1.157-.089h.626l.365-.039.72-91.487Z" transform="translate(-124.604 -4.076)" fill="#ba4d02"/>
      <path id="Tracé_318"  d="M286.55,36.43V55.35s21.766.648,21.766,0V36.43" transform="translate(-117.044 -5.25)" fill="#ffd464"/>
      <ellipse id="Ellipse_13"  cx="10.886" cy="5.039" rx="10.886" ry="5.039" transform="translate(169.501 26.103)" fill="#ba4d02"/>
      <ellipse id="Ellipse_14"  cx="10.886" cy="5.039" rx="10.886" ry="5.039" transform="translate(169.501 45.344)" fill="#ffd464"/>
      <path id="Tracé_319"  d="M110.2,154.812,99.97,198c-.244,1.041,1.357,1.484,1.6.443L111.8,155.254C112.04,154.214,110.44,153.771,110.2,154.812Z" transform="translate(-33.761 -57.819)" fill="#f2f2f2"/>
      <path id="Tracé_320"  d="M127.536,164.052,117.31,207.24c-.244,1.041,1.357,1.484,1.6.443l10.227-43.188C129.38,163.454,127.78,163.011,127.536,164.052Z" transform="translate(-41.5 -61.943)" fill="#f2f2f2"/>
      <path id="Tracé_321"  d="M116.215,166.349l9.6,5.36c.936.52,1.772-.914.836-1.434l-9.59-5.365c-.936-.52-1.772.914-.836,1.434Z" transform="translate(-40.842 -62.541)" fill="#f2f2f2"/>
      <path id="Tracé_322"  d="M114.41,177.194l9.2,5.144c.936.52,1.772-.914.836-1.434l-9.2-5.144C114.31,175.239,113.474,176.673,114.41,177.194Z" transform="translate(-40.034 -67.383)" fill="#f2f2f2"/>
      <path id="Tracé_323"  d="M112.39,185.984l9.191,5.133c.936.52,1.772-.914.836-1.434l-9.191-5.133C112.29,184.029,111.454,185.463,112.39,185.984Z" transform="translate(-39.132 -71.306)" fill="#f2f2f2"/>
      <path id="Tracé_324"  d="M109.78,195.434l9.108,5.088c.936.52,1.772-.914.836-1.434L110.616,194C109.68,193.479,108.844,194.913,109.78,195.434Z" transform="translate(-37.968 -75.524)" fill="#f2f2f2"/>
      <path id="Tracé_325"  d="M107.52,204.084l9.125,5.1c.936.52,1.772-.914.836-1.434l-9.125-5.1C107.42,202.129,106.584,203.563,107.52,204.084Z" transform="translate(-36.959 -79.385)" fill="#f2f2f2"/>
      <path id="Tracé_326"  d="M105.01,214.134l9.6,5.36c.936.52,1.772-.914.836-1.434l-9.6-5.36C104.91,212.179,104.074,213.613,105.01,214.134Z" transform="translate(-35.839 -83.87)" fill="#f2f2f2"/>
    </g>
    <g id="undraw_collecting_fjjl" transform="translate(166 183)">
      <g id="Groupe_26"  transform="translate(0 7.888)" opacity="0.7">
        <path id="Tracé_340"  d="M381.212,311.7,366.37,308.13V336.1l14.842-3.885Z" transform="translate(-343.913 -297.131)" fill="url(#linear-gradient-4)"/>
        <g id="Groupe_6"  transform="translate(22.457 10.999)" opacity="0.1">
          <path id="Tracé_341"  d="M381.212,311.7,366.37,308.13V336.1l14.842-3.885Z" transform="translate(-366.37 -308.13)" fill="url(#linear-gradient-4)"/>
        </g>
        <path id="Tracé_342"  d="M124.23,311.7l14.842-3.574V336.1L124.23,332.3Z" transform="translate(-116.615 -297.131)" fill="url(#linear-gradient-4)"/>
        <g id="Groupe_7"  transform="translate(7.615 10.999)" opacity="0.17">
          <path id="Tracé_343" d="M124.23,311.7l14.842-3.574V336.1L124.23,332.3Z" transform="translate(-124.23 -308.13)" fill="url(#linear-gradient-4)"/>
        </g>
        <path id="Tracé_344"  d="M366.37,210.552l7.693-6.372,14.842,3.808-7.693,6.138Z" transform="translate(-343.913 -199.553)" fill="url(#linear-gradient-4)"/>
        <path id="Tracé_345"  d="M0,208.065l7.615,6.061,14.842-3.574L14.92,204.18Z" transform="translate(0 -199.553)" fill="url(#linear-gradient-4)"/>
        <g id="Groupe_8"  transform="translate(0 4.627)" opacity="0.05">
          <path id="Tracé_346" d="M0,208.065l7.615,6.061,14.842-3.574L14.92,204.18Z" transform="translate(0 -204.18)" fill="url(#linear-gradient-4)"/>
        </g>
        <g id="Groupe_9"  transform="translate(11.449 7.766)" opacity="0.5">
          <rect id="Rectangle_15" width="11.016" height="10.164" rx="4.5" fill="url(#linear-gradient-11)"/>
        </g>
        <rect id="Rectangle_16"  width="10.763" height="9.918" rx="4.5" transform="translate(11.583 7.844)" fill="url(#linear-gradient-4)"/>
        <rect id="Rectangle_17"  width="1.815" height="1.634" rx="0.817" transform="translate(12.413 9.478)" fill="url(#linear-gradient-13)"/>
        <rect id="Rectangle_18"  width="7.215" height="0.181" rx="0.091" transform="translate(14.772 9.478)" fill="url(#linear-gradient-4)"/>
        <rect id="Rectangle_19"  width="7.215" height="0.181" rx="0.091" transform="translate(14.772 10.022)" fill="url(#linear-gradient-4)"/>
        <rect id="Rectangle_20"  width="9.756" height="0.181" rx="0.091" transform="translate(12.231 11.999)" fill="url(#linear-gradient-4)"/>
        <rect id="Rectangle_21"  width="9.756" height="0.181" rx="0.091" transform="translate(12.231 12.543)" fill="url(#linear-gradient-4)"/>
        <rect id="Rectangle_22"  width="9.756" height="0.181" rx="0.091" transform="translate(12.231 13.269)" fill="url(#linear-gradient-4)"/>
        <rect id="Rectangle_23"  width="5.626" height="0.181" rx="0.091" transform="translate(12.231 13.814)" fill="url(#linear-gradient-4)"/>
        <rect id="Rectangle_24"  width="9.756" height="0.181" rx="0.091" transform="translate(12.231 14.538)" fill="url(#linear-gradient-4)"/>
        <rect id="Rectangle_25"  width="9.756" height="0.181" rx="0.091" transform="translate(12.231 15.082)" fill="url(#linear-gradient-4)"/>
        <rect id="Rectangle_26"  width="9.756" height="0.181" rx="0.091" transform="translate(12.231 15.809)" fill="url(#linear-gradient-4)"/>
        <rect id="Rectangle_27"  width="5.626" height="0.181" rx="0.091" transform="translate(12.231 16.353)" fill="url(#linear-gradient-4)"/>
        <g id="Groupe_10"  transform="translate(13.111 10.114)" opacity="0.5">
          <rect id="Rectangle_28"  width="11.016" height="10.164" rx="4.5" fill="url(#linear-gradient-24)"/>
        </g>
        <rect id="Rectangle_29"  width="10.763" height="9.918" rx="4.5" transform="translate(13.246 10.193)" fill="url(#linear-gradient-4)"/>
        <rect id="Rectangle_30"  width="1.815" height="1.634" rx="0.817" transform="translate(14.075 11.827)" fill="url(#linear-gradient-13)"/>
        <rect id="Rectangle_31"  width="7.215" height="0.181" rx="0.091" transform="translate(16.435 11.827)" fill="url(#linear-gradient-4)"/>
        <rect id="Rectangle_32"  width="7.215" height="0.181" rx="0.091" transform="translate(16.435 12.371)" fill="url(#linear-gradient-4)"/>
        <rect id="Rectangle_33"  width="9.756" height="0.181" rx="0.091" transform="translate(13.894 14.347)" fill="url(#linear-gradient-29)"/>
        <rect id="Rectangle_34"  width="9.756" height="0.181" rx="0.091" transform="translate(13.894 14.892)" fill="url(#linear-gradient-29)"/>
        <rect id="Rectangle_35"  width="9.756" height="0.181" rx="0.091" transform="translate(13.894 15.618)" fill="url(#linear-gradient-29)"/>
        <rect id="Rectangle_36"  width="5.626" height="0.181" rx="0.091" transform="translate(13.894 16.162)" fill="url(#linear-gradient-4)"/>
        <rect id="Rectangle_37"  width="9.756" height="0.181" rx="0.091" transform="translate(13.894 16.887)" fill="url(#linear-gradient-29)"/>
        <rect id="Rectangle_38"  width="9.756" height="0.181" rx="0.091" transform="translate(13.894 17.431)" fill="url(#linear-gradient-29)"/>
        <rect id="Rectangle_39"  width="9.756" height="0.181" rx="0.091" transform="translate(13.894 18.157)" fill="url(#linear-gradient-29)"/>
        <rect id="Rectangle_40"  width="5.626" height="0.181" rx="0.091" transform="translate(13.894 18.702)" fill="url(#linear-gradient-4)"/>
        <g id="Groupe_11" transform="translate(19.518 11.429)" opacity="0.5">
          <rect id="Rectangle_41"  width="9.545" height="11.215" fill="url(#linear-gradient-24)"/>
        </g>
        <rect id="Rectangle_42"  width="9.049" height="10.786" transform="translate(19.811 11.61)" fill="url(#linear-gradient-4)"/>
        <g id="Groupe_12"  transform="translate(23.153 13.054)" opacity="0.5">
          <path id="Tracé_347"  d="M612.386,409.681v-.271H611.4v.271h-.692v1.331h2.366v-1.331Zm-.861-.173h.735v.172h-.735Z" transform="translate(-610.71 -409.41)" fill="url(#linear-gradient-24)"/>
        </g>
        <rect id="Rectangle_43" width="2.166" height="1.219" transform="translate(23.252 13.37)" fill="url(#linear-gradient-4)"/>
        <path id="Tracé_348"  d="M389.65,342.76v.316h.113v-.226h.677v.226h.113v-.316Z" transform="translate(-365.766 -329.638)" fill="url(#linear-gradient-4)"/>
        <rect id="Rectangle_44"  width="6.363" height="0.271" transform="translate(21.165 16.342)" fill="url(#linear-gradient-4)"/>
        <rect id="Rectangle_45"  width="6.363" height="0.271" transform="translate(21.165 18.125)" fill="url(#linear-gradient-4)"/>
        <rect id="Rectangle_46"  width="6.363" height="0.271" transform="translate(21.165 18.599)" fill="url(#linear-gradient-4)"/>
        <rect id="Rectangle_47"  width="2.685" height="0.271" transform="translate(21.165 17.651)" fill="url(#linear-gradient-4)"/>
        <g id="Groupe_13" transform="translate(25.52 17.651)" opacity="0.6">
          <rect id="Rectangle_48"  width="2.008" height="0.271" fill="url(#linear-gradient-4)"/>
        </g>
        <rect id="Rectangle_49"  width="2.008" height="0.271" transform="translate(23.399 19.705)" fill="url(#linear-gradient-47)"/>
        <path id="Tracé_349"  d="M124.23,366.44v20.592l14.842,3.808V370.4Z" transform="translate(-116.615 -351.867)" fill="url(#linear-gradient-4)"/>
        <path id="Tracé_350" d="M381.212,386.955,366.37,390.84V370.4l14.842-3.963Z" transform="translate(-343.913 -351.867)" fill="url(#linear-gradient-4)"/>
        <g id="Groupe_14"  transform="translate(22.457 14.573)" opacity="0.07">
          <path id="Tracé_351"  d="M381.212,386.955,366.37,390.84V370.4l14.842-3.963Z" transform="translate(-366.37 -366.44)" fill="url(#linear-gradient-4)"/>
        </g>
        <g id="Groupe_15" transform="translate(31.393 26.618)" opacity="0.07">
          <path id="Tracé_352"  d="M512.15,564.572v6.76l5.906-1.632v-6.76Z" transform="translate(-512.15 -562.94)" fill="url(#linear-gradient-4)"/>
        </g>
        <rect id="Rectangle_50" width="4.377" height="4.206" transform="translate(29.532 12.856)" fill="url(#linear-gradient-52)"/>
        <rect id="Rectangle_51"  width="4.24" height="4.017" transform="translate(29.6 12.959)" fill="url(#linear-gradient-53)"/>
        <g id="Groupe_16"  transform="translate(30.82 13.458)" opacity="0.5">
          <path id="Tracé_353"  d="M737.075,416.2V416h-.75v.206H735.8v1.013h1.8V416.2Zm-.656-.131h.563v.131h-.563Z" transform="translate(-735.8 -416)" fill="url(#linear-gradient-54)"/>
        </g>
        <g id="Groupe_17"  transform="translate(30.896 13.697)" opacity="0.6">
          <rect id="Rectangle_52"  width="1.648" height="0.927" fill="url(#linear-gradient-55)"/>
        </g>
        <g id="Groupe_18"  transform="translate(31.377 13.508)" opacity="0.6">
          <path id="Tracé_354" d="M511.88,349.06v.241h.086v-.172h.515v.172h.086v-.241Z" transform="translate(-511.88 -349.06)" fill="url(#linear-gradient-56)"/>
        </g>
        <g id="Groupe_19"  transform="translate(30.991 15.345)" opacity="0.6">
          <rect id="Rectangle_53"  width="1.528" height="0.206" fill="url(#linear-gradient-55)"/>
        </g>
        <rect id="Rectangle_54" width="2.609" height="0.206" transform="translate(30.416 15.723)" fill="url(#linear-gradient-4)"/>
        <g id="Groupe_20"  transform="translate(19.155)" opacity="0.5">
          <rect id="Rectangle_55" width="5.671" height="4.659" fill="url(#linear-gradient-52)"/>
        </g>
        <rect id="Rectangle_56"  width="5.528" height="4.493" transform="translate(19.221 0.088)" fill="url(#linear-gradient-4)"/>
        <rect id="Rectangle_57"  width="5.528" height="1.002" transform="translate(19.221 0.088)" fill="url(#linear-gradient-61)"/>
        <g id="Groupe_21"  transform="translate(19.221 0.088)" opacity="0.1">
          <rect id="Rectangle_58"  width="5.528" height="1.002" fill="url(#linear-gradient-61)"/>
        </g>
        <rect id="Rectangle_59" width="4.648" height="0.584" transform="translate(19.662 1.454)" fill="url(#linear-gradient-63)"/>
        <rect id="Rectangle_60" width="3.392" height="0.198" transform="translate(19.662 2.478)" fill="url(#linear-gradient-64)"/>
        <rect id="Rectangle_61" width="2.202" height="0.198" transform="translate(19.662 2.82)" fill="url(#linear-gradient-65)"/>
        <rect id="Rectangle_62" width="2.907" height="0.198" transform="translate(19.662 3.161)" fill="url(#linear-gradient-65)"/>
        <rect id="Rectangle_63" width="3.392" height="0.198" transform="translate(19.662 3.502)" fill="url(#linear-gradient-67)"/>
        <rect id="Rectangle_64" width="1.134" height="0.198" transform="translate(19.662 3.843)" fill="url(#linear-gradient-68)"/>
        <g id="Groupe_22"  transform="translate(27.493 3.498)" opacity="0.5">
          <rect id="Rectangle_65"  width="7.03" height="5.774" fill="url(#linear-gradient-24)"/>
        </g>
        <rect id="Rectangle_66"  width="6.852" height="5.569" transform="translate(27.575 3.607)" fill="url(#linear-gradient-70)"/>
        <rect id="Rectangle_67"  width="6.852" height="1.242" transform="translate(27.575 3.607)" fill="url(#linear-gradient-63)"/>
        <rect id="Rectangle_68"  width="5.76" height="0.723" transform="translate(28.121 5.3)" fill="url(#linear-gradient-4)"/>
        <rect id="Rectangle_69"  width="4.204" height="0.246" transform="translate(28.121 6.569)" fill="url(#linear-gradient-73)"/>
        <rect id="Rectangle_70"  width="2.73" height="0.246" transform="translate(28.121 6.992)" fill="url(#linear-gradient-74)"/>
        <rect id="Rectangle_71"  width="3.604" height="0.246" transform="translate(28.121 7.416)" fill="url(#linear-gradient-73)"/>
        <rect id="Rectangle_72"  width="4.204" height="0.246" transform="translate(28.121 7.839)" fill="url(#linear-gradient-73)"/>
        <rect id="Rectangle_73"  width="1.406" height="0.246" transform="translate(28.121 8.262)" fill="url(#linear-gradient-74)"/>
        <rect id="Rectangle_74"  width="1.638" height="0.218" transform="translate(28.421 5.546)" fill="url(#linear-gradient-4)"/>
        <g id="Groupe_23"  transform="translate(7.421 14.846)" opacity="0.1">
          <path id="Tracé_355"  d="M121.07,381.293l8.314,2.1,6.683-5.44V374.61l-14.842-3.73Z" transform="translate(-121.07 -370.88)" fill="url(#linear-gradient-4)"/>
        </g>
        <g id="Groupe_24"  transform="translate(22.418 14.846)" opacity="0.1">
          <path id="Tracé_356"  d="M380.728,381.293l-8.315,2.1-6.683-5.44V374.61l14.842-3.73Z" transform="translate(-365.73 -370.88)" fill="url(#linear-gradient-4)"/>
        </g>
        <path id="Tracé_357"  d="M7.615,366.44,0,372.735l14.842,3.73,7.616-6.061Z" transform="translate(0 -351.867)" fill="url(#linear-gradient-4)"/>
        <path id="Tracé_358"  d="M381.212,366.44l7.693,6.295-14.764,3.73L366.37,370.4Z" transform="translate(-343.913 -351.867)" fill="url(#linear-gradient-4)"/>
        <g id="Groupe_25"  transform="translate(22.457 14.573)" opacity="0.07">
          <path id="Tracé_359"  d="M381.212,366.44l7.693,6.295-14.764,3.73L366.37,370.4Z" transform="translate(-366.37 -366.44)" fill="url(#linear-gradient-4)"/>
        </g>
      </g>
      <path id="Tracé_360"  d="M383.6,309.084,368.88,305.54v27.735l14.715-3.852Z" transform="translate(-346.269 -286.811)" fill="#535461"/>
      <path id="Tracé_361"  d="M383.6,309.084,368.88,305.54v27.735l14.715-3.852Z" transform="translate(-346.269 -286.811)" opacity="0.1"/>
      <path id="Tracé_362"  d="M128.83,309.084l14.714-3.544v27.735L128.83,329.5Z" transform="translate(-120.933 -286.811)" fill="#535461"/>
      <path id="Tracé_363"  d="M128.83,307.084l14.714-3.544V331.4l-14.714-3.775Z" transform="translate(-120.933 -284.934)" opacity="0.17"/>
      <path id="Tracé_364"  d="M366.88,208.92l7.75-6.44,14.715,3.775-7.75,6.209Z" transform="translate(-344.391 -190.069)" fill="#535461"/>
      <path id="Tracé_365"  d="M7.66,208.332l7.55,6.01L29.924,210.8l-7.473-6.317Z" transform="translate(-7.19 -191.946)" fill="#535461"/>
      <path id="Tracé_366"  d="M5.66,206.332l7.734,6.132,14.714-3.544-7.657-6.44Z" transform="translate(-5.313 -190.069)" opacity="0.05"/>
      <g id="Groupe_27"  transform="translate(11.697 15.523)" opacity="0.5">
        <rect id="Rectangle_75"  width="10.922" height="10.077" rx="4.5" fill="url(#linear-gradient-24)"/>
      </g>
      <rect id="Rectangle_76"  width="10.67" height="9.833" rx="4.5" transform="translate(11.831 15.601)" fill="#f5f5f5"/>
      <rect id="Rectangle_77" width="1.8" height="1.619" rx="0.81" transform="translate(12.653 17.221)" fill="#6c63ff"/>
      <rect id="Rectangle_78"  width="7.153" height="0.18" rx="0.09" transform="translate(14.993 17.221)" fill="#e0e0e0"/>
      <rect id="Rectangle_79"  width="7.153" height="0.18" rx="0.09" transform="translate(14.993 17.76)" fill="#e0e0e0"/>
      <rect id="Rectangle_80"  width="9.673" height="0.18" rx="0.09" transform="translate(12.473 19.72)" fill="#e0e0e0"/>
      <rect id="Rectangle_81"  width="9.673" height="0.18" rx="0.09" transform="translate(12.473 20.26)" fill="#e0e0e0"/>
      <rect id="Rectangle_82"  width="9.673" height="0.18" rx="0.09" transform="translate(12.473 20.98)" fill="#e0e0e0"/>
      <rect id="Rectangle_83"  width="5.579" height="0.18" rx="0.09" transform="translate(12.473 21.52)" fill="#e0e0e0"/>
      <rect id="Rectangle_84"  width="9.673" height="0.18" rx="0.09" transform="translate(12.473 22.237)" fill="#e0e0e0"/>
      <rect id="Rectangle_85"  width="9.673" height="0.18" rx="0.09" transform="translate(12.473 22.777)" fill="#e0e0e0"/>
      <rect id="Rectangle_86"  width="9.673" height="0.18" rx="0.09" transform="translate(12.473 23.497)" fill="#e0e0e0"/>
      <rect id="Rectangle_87"  width="5.579" height="0.18" rx="0.09" transform="translate(12.473 24.037)" fill="#e0e0e0"/>
      <g id="Groupe_28"  transform="translate(13.346 17.852)" opacity="0.5">
        <rect id="Rectangle_88"  width="10.922" height="10.077" rx="4.5" fill="url(#linear-gradient-52)"/>
      </g>
      <rect id="Rectangle_89"  width="10.67" height="9.833" rx="4.5" transform="translate(13.479 17.93)" fill="#fff"/>
      <rect id="Rectangle_90"  width="1.8" height="1.619" rx="0.81" transform="translate(14.301 19.549)" fill="#6c63ff"/>
      <rect id="Rectangle_91"  width="7.153" height="0.18" rx="0.09" transform="translate(16.641 19.549)" fill="#e0e0e0"/>
      <rect id="Rectangle_92"  width="7.153" height="0.18" rx="0.09" transform="translate(16.641 20.089)" fill="#e0e0e0"/>
      <rect id="Rectangle_93"  width="9.673" height="0.18" rx="0.09" transform="translate(14.122 22.049)" fill="#e0e0e0"/>
      <rect id="Rectangle_94"  width="9.673" height="0.18" rx="0.09" transform="translate(14.122 22.589)" fill="#e0e0e0"/>
      <rect id="Rectangle_95"  width="9.673" height="0.18" rx="0.09" transform="translate(14.122 23.308)" fill="#e0e0e0"/>
      <rect id="Rectangle_96"  width="5.579" height="0.18" rx="0.09" transform="translate(14.122 23.848)" fill="#e0e0e0"/>
      <rect id="Rectangle_97"  width="9.673" height="0.18" rx="0.09" transform="translate(14.122 24.566)" fill="#e0e0e0"/>
      <rect id="Rectangle_98"  width="9.673" height="0.18" rx="0.09" transform="translate(14.122 25.106)" fill="#e0e0e0"/>
      <rect id="Rectangle_99"  width="9.673" height="0.18" rx="0.09" transform="translate(14.122 25.826)" fill="#e0e0e0"/>
      <rect id="Rectangle_100"  width="5.579" height="0.18" rx="0.09" transform="translate(14.122 26.366)" fill="#e0e0e0"/>
      <g id="Groupe_29" transform="translate(19.697 19.156)" opacity="0.5">
        <rect id="Rectangle_101" width="9.464" height="11.119" fill="url(#linear-gradient-24)"/>
      </g>
      <rect id="Rectangle_102"  width="8.971" height="10.694" transform="translate(19.988 19.335)" fill="#fff"/>
      <g id="Groupe_30"  transform="translate(23.301 20.766)" opacity="0.5">
        <path id="Tracé_367"  d="M614.792,406.8v-.269h-.978v.269h-.684v1.32h2.346V406.8Zm-.858-.171h.736v.171h-.736Z" transform="translate(-613.13 -406.53)" fill="url(#linear-gradient-52)"/>
      </g>
      <rect id="Rectangle_103" width="2.148" height="1.208" transform="translate(23.4 21.08)" fill="#6c63ff"/>
      <path id="Tracé_368"  d="M391.97,339.88v.313h.112v-.224h.671v.224h.112v-.313Z" transform="translate(-367.943 -319.046)" fill="#6c63ff"/>
      <rect id="Rectangle_104"  width="6.309" height="0.268" transform="translate(21.331 24.027)" fill="#e0e0e0"/>
      <rect id="Rectangle_105"  width="6.309" height="0.268" transform="translate(21.331 25.794)" fill="#e0e0e0"/>
      <rect id="Rectangle_106"  width="6.309" height="0.268" transform="translate(21.331 26.264)" fill="#e0e0e0"/>
      <rect id="Rectangle_107"  width="2.662" height="0.268" transform="translate(21.331 25.324)" fill="#e0e0e0"/>
      <rect id="Rectangle_108"  width="1.991" height="0.268" transform="translate(25.649 25.324)" fill="#3ad29f" opacity="0.6"/>
      <rect id="Rectangle_109"  width="1.991" height="0.268" transform="translate(23.545 27.36)" fill="#6c63ff"/>
      <path id="Tracé_369"  d="M128.83,363.36v20.416l14.714,3.775.2-20.262Z" transform="translate(-120.933 -341.087)" fill="#535461"/>
      <path id="Tracé_370"  d="M383.6,383.7l-14.715,3.852V367.289L383.6,363.36Z" transform="translate(-346.269 -341.087)" fill="#535461"/>
      <path id="Tracé_371"  d="M383.6,383.7l-14.715,3.852V367.289L383.6,363.36Z" transform="translate(-346.269 -341.087)" opacity="0.07"/>
      <path id="Tracé_372"  d="M513.42,559.788v6.7l5.855-1.618v-6.7Z" transform="translate(-481.949 -523.956)" opacity="0.07"/>
      <rect id="Rectangle_110"  width="4.34" height="4.169" transform="translate(29.626 20.57)" fill="url(#linear-gradient-24)"/>
      <rect id="Rectangle_111"  width="4.204" height="3.982" transform="translate(29.694 20.672)" fill="#f5f5f5"/>
      <g id="Groupe_31" transform="translate(30.904 21.163)" opacity="0.5">
        <path id="Tracé_373"  d="M738.424,413.207V413h-.744v.2h-.52v1h1.784v-1Zm-.65-.13h.558v.13h-.558Z" transform="translate(-737.16 -413)" fill="url(#linear-gradient-89)"/>
      </g>
      <rect id="Rectangle_112"  width="1.634" height="0.919" transform="translate(30.978 21.404)" fill="#6c63ff" opacity="0.6"/>
      <path id="Tracé_374"  d="M513.16,346.13v.238h.085v-.17h.511v.17h.085v-.238Z" transform="translate(-481.705 -324.913)" fill="#6c63ff" opacity="0.6"/>
      <g id="Groupe_32"  transform="translate(31.072 23.038)" opacity="0.6">
        <rect id="Rectangle_113"  width="1.515" height="0.204" fill="#6c63ff"/>
      </g>
      <rect id="Rectangle_114"  width="2.587" height="0.204" transform="translate(30.502 23.412)" fill="#bdbdbd"/>
      <rect id="Rectangle_115"  width="4.34" height="4.169" transform="translate(25.465)" fill="url(#linear-gradient-24)"/>
      <rect id="Rectangle_116"  width="4.204" height="3.982" transform="translate(25.533 0.102)" fill="#f5f5f5"/>
      <g id="Groupe_33"  transform="translate(26.743 0.596)" opacity="0.5">
        <path id="Tracé_375"  d="M670.554,77.674v-.2h-.744v.2h-.52v1h1.784v-1Zm-.65-.13h.558v.13H669.9Z" transform="translate(-669.29 -77.47)" fill="url(#linear-gradient-91)"/>
      </g>
      <rect id="Rectangle_117" width="1.634" height="0.919" transform="translate(26.818 0.834)" fill="#6c63ff" opacity="0.6"/>
      <path id="Tracé_376"  d="M445.29,10.55v.238h.085v-.17h.511v.17h.085V10.55Z" transform="translate(-417.995 -9.903)" fill="#6c63ff" opacity="0.6"/>
      <g id="Groupe_34"  transform="translate(26.912 2.468)" opacity="0.6">
        <rect id="Rectangle_118"  width="1.515" height="0.204" fill="#6c63ff"/>
      </g>
      <rect id="Rectangle_119"  width="2.587" height="0.204" transform="translate(26.342 2.842)" fill="#bdbdbd"/>
      <g id="Groupe_35"  transform="translate(19.337 7.824)" opacity="0.5">
        <rect id="Rectangle_120" width="5.623" height="4.619" fill="url(#linear-gradient-52)"/>
      </g>
      <rect id="Rectangle_121"  width="5.481" height="4.454" transform="translate(19.403 7.912)" fill="#f2f2f2"/>
      <rect id="Rectangle_122"  width="5.481" height="0.994" transform="translate(19.403 7.912)" fill="#6c63ff"/>
      <rect id="Rectangle_123"  width="5.481" height="0.994" transform="translate(19.403 7.912)" opacity="0.1"/>
      <rect id="Rectangle_124"  width="4.608" height="0.579" transform="translate(19.84 9.266)" fill="#e0e0e0"/>
      <rect id="Rectangle_125"  width="3.363" height="0.197" transform="translate(19.84 10.281)" fill="#e0e0e0"/>
      <rect id="Rectangle_126"  width="2.183" height="0.197" transform="translate(19.84 10.619)" fill="#e0e0e0"/>
      <rect id="Rectangle_127"  width="2.882" height="0.197" transform="translate(19.84 10.957)" fill="#e0e0e0"/>
      <rect id="Rectangle_128"  width="3.363" height="0.197" transform="translate(19.84 11.296)" fill="#e0e0e0"/>
      <rect id="Rectangle_129"  width="1.125" height="0.197" transform="translate(19.84 11.635)" fill="#e0e0e0"/>
      <g id="Groupe_36"  transform="translate(27.604 11.292)" opacity="0.5">
        <rect id="Rectangle_130" width="6.969" height="5.725" fill="url(#linear-gradient-24)"/>
      </g>
      <rect id="Rectangle_131" width="6.794" height="5.522" transform="translate(27.685 11.4)" fill="#fff"/>
      <rect id="Rectangle_132" width="6.794" height="1.231" transform="translate(27.685 11.4)" fill="#6c63ff"/>
      <rect id="Rectangle_133" width="5.711" height="0.717" transform="translate(28.227 13.078)" fill="#f5f5f5"/>
      <rect id="Rectangle_134" width="4.168" height="0.243" transform="translate(28.227 14.337)" fill="#e0e0e0"/>
      <rect id="Rectangle_135" width="2.707" height="0.243" transform="translate(28.227 14.757)" fill="#e0e0e0"/>
      <rect id="Rectangle_136" width="3.572" height="0.243" transform="translate(28.227 15.176)" fill="#e0e0e0"/>
      <rect id="Rectangle_137" width="4.168" height="0.243" transform="translate(28.227 15.596)" fill="#e0e0e0"/>
      <rect id="Rectangle_138" width="1.394" height="0.243" transform="translate(28.227 16.015)" fill="#e0e0e0"/>
      <rect id="Rectangle_139" width="1.624" height="0.216" transform="translate(28.525 13.322)" fill="#69f0ae"/>
      <path id="Tracé_377"  d="M125.69,378.084l8.243,2.08,6.626-5.393v-3.313l-14.715-3.7Z" transform="translate(-117.986 -345.217)" opacity="0.1"/>
      <path id="Tracé_378"  d="M383.129,378.084l-8.243,2.08-6.626-5.393v-3.313l14.715-3.7Z" transform="translate(-345.687 -345.217)" opacity="0.1"/>
      <path id="Tracé_379"  d="M13.21,363.36,5.66,369.6l14.714,3.7,7.55-6.009Z" transform="translate(-5.313 -341.087)" fill="#535461"/>
      <path id="Tracé_380"  d="M383.6,363.36l7.627,6.24-14.638,3.7-7.7-6.009Z" transform="translate(-346.269 -341.087)" fill="#535461"/>
      <path id="Tracé_381"  d="M383.6,363.36l7.627,6.24-14.638,3.7-7.7-6.009Z" transform="translate(-346.269 -341.087)" opacity="0.07"/>
    </g>
  </g>
</svg>
