<svg xmlns="http://www.w3.org/2000/svg" width="180.887" height="185.877" viewBox="0 0 180.887 185.877">
  <g id="coding__isometric" transform="translate(-64.722 -22.744)">
    <path id="Tracé_141" d="M67.951,191.992,144.5,236.678a6.46,6.46,0,0,0,6.518,0l91.351-52.741a6.46,6.46,0,0,0,0-11.2l-77.5-44.18a6.46,6.46,0,0,0-6.431,0L67.98,180.787a6.46,6.46,0,0,0-.029,11.2Z" transform="translate(0 -28.94)" fill="#aa29a4"/>
    <path id="Tracé_142" d="M146.916,23.139c-10.031,5.946-34.851,20.634-42.275,24.951a4.15,4.15,0,0,0-2.064,3.621V153.622c-.152,2.079,2.173,4.005,4.114,2.9l41.739-23.763a4.774,4.774,0,0,0,2.752-4.251V25.566a2.825,2.825,0,0,0-4.266-2.426Z" transform="translate(-10.436 0)" fill="#172d51"/>
    <path id="Tracé_143" d="M150.9,24.388l-13.254,7.634v2.839a1.362,1.362,0,0,1-.681,1.181l-10.14,5.874a.9.9,0,0,1-1.347-.775V39.062L106.353,50.244a1.21,1.21,0,0,0-.594,1.043v101.86a.826.826,0,0,0,1.238.724l44.18-25.61a4.382,4.382,0,0,1-1.941,4.041c-2.289,1.449-42.543,24.234-42.543,24.234s-3.179,1.449-4.114-2.361V51.715a4.193,4.193,0,0,1,1.753-3.426c1.847-1.34,42.615-25.168,42.615-25.168a2.9,2.9,0,0,1,3.954,1.267Z" transform="translate(-10.439 -0.01)" fill="#68e1fd"/>
    <path id="Tracé_144" d="M228.661,194.722a2.839,2.839,0,0,1-.579,2.332c-.884.949-4.244,3.926-4.563,4.57s-.768,2.4,0,3.013,2.26.681,4.085,0a32.353,32.353,0,0,0,7.047-4.4c.811-.884,0-9.959,0-9.959s-4.715-1.152-6.3,0Z" transform="translate(-43.67 -46.054)" fill="#f96156"/>
    <path id="Tracé_145" d="M223.15,206.06a1.876,1.876,0,0,0,.369,1.753c.768.608,2.26.681,4.085,0a32.352,32.352,0,0,0,7.047-4.4,4.345,4.345,0,0,0,.348-2.05C231.943,204.279,225.482,209.146,223.15,206.06Z" transform="translate(-43.663 -49.252)" fill="#391a3a"/>
    <path id="Tracé_146" d="M232.251,200.934a2.752,2.752,0,0,0-1.13-.971,3.781,3.781,0,0,0-1.673-.174.362.362,0,0,0,0,.724,2.173,2.173,0,0,1,2.173.782C231.925,201.665,232.533,201.3,232.251,200.934Z" transform="translate(-45.326 -48.811)" fill="#391a3a"/>
    <path id="Tracé_147" d="M230.724,202.673a3.238,3.238,0,0,0-3.093-1.086c-.456.094-.261.789.2.724a2.513,2.513,0,0,1,2.383.905A.375.375,0,0,0,230.724,202.673Z" transform="translate(-44.849 -49.298)" fill="#391a3a"/>
    <path id="Tracé_148" d="M244.1,202.392a2.839,2.839,0,0,1-.579,2.332c-.884.949-4.244,3.926-4.563,4.57s-.768,2.4,0,3.013,2.26.681,4.085,0a32.355,32.355,0,0,0,7.047-4.4c.811-.884,0-9.959,0-9.959s-4.715-1.152-6.3,0Z" transform="translate(-47.927 -48.169)" fill="#f96156"/>
    <path id="Tracé_149" d="M238.59,213.715a1.876,1.876,0,0,0,.369,1.753c.768.608,2.26.681,4.085,0a32.352,32.352,0,0,0,7.047-4.4,4.345,4.345,0,0,0,.362-2.064C247.383,211.933,240.922,216.807,238.59,213.715Z" transform="translate(-47.921 -51.358)" fill="#391a3a"/>
    <path id="Tracé_150" d="M247.691,208.6a2.752,2.752,0,0,0-1.13-.97,3.78,3.78,0,0,0-1.673-.174.362.362,0,0,0,0,.724,2.173,2.173,0,0,1,2.173.782C247.343,209.335,247.973,208.973,247.691,208.6Z" transform="translate(-49.583 -50.926)" fill="#391a3a"/>
    <path id="Tracé_151" d="M246.194,210.343a3.237,3.237,0,0,0-3.093-1.086c-.456.094-.261.789.2.724a2.513,2.513,0,0,1,2.383.905C246,211.227,246.512,210.684,246.194,210.343Z" transform="translate(-49.115 -51.413)" fill="#391a3a"/>
    <path id="Tracé_152" d="M230.526,118.94a49.141,49.141,0,0,0-4.092,18.251c-.159,9.98,1.021,36.8,1.021,36.8s2.767,2.658,8.843,1.724V138.5s2.129.76,2.129,2.361,1.941,39.646,1.941,39.646,1.086,2.021,9.039-1.065c0,0,1.086-49.836-4.751-59.621" transform="translate(-44.586 -26.525)" fill="#5b434d"/>
    <path id="Tracé_153" d="M191.77,140.842V198.2l16.506,9.444,18.642-11.009V139.27" transform="translate(-35.032 -32.131)" fill="#68e1fd"/>
    <path id="Tracé_154" d="M191.77,137.287l19.157-10.907,15.992,9.336-18.642,11.016Z" transform="translate(-35.032 -28.577)" fill="#68e1fd"/>
    <path id="Tracé_155" d="M214.56,150.286v57.361L233.2,196.639V139.27Z" transform="translate(-41.316 -32.131)" fill="#68e1fd"/>
    <path id="Tracé_156" d="M191.77,140.842V198.2l16.506,9.444,18.642-11.009V139.27" transform="translate(-35.032 -32.131)" fill="#2e90a0" opacity="0.1"/>
    <path id="Tracé_157" d="M191.77,137.287l19.157-10.907,15.992,9.336-18.642,11.016Z" transform="translate(-35.032 -28.577)" fill="#68e1fd"/>
    <path id="Tracé_158" d="M214.56,150.286v57.361L233.2,196.639V139.27Z" transform="translate(-41.316 -32.131)" fill="#2e90a0" opacity="0.47"/>
    <path id="Tracé_159" d="M192.825,140.73l-9.328,4.44v57.361L136.89,177.32" transform="translate(-19.9 -32.533)" fill="none" stroke="#1b1464" stroke-miterlimit="10" stroke-width="1"/>
    <path id="Tracé_160" d="M218.329,142.451l13.906-8.162-22.1-12.428-12.928,8.17Z" transform="translate(-36.532 -27.33)" fill="#5b434d"/>
    <path id="Tracé_161" d="M230.443,111.77a29.642,29.642,0,0,0,11.661,1.159,23.277,23.277,0,0,0,3.933-5.591c3.4-7.025,4.621-18.831,4.621-18.831s-5.07-3.918-8.43-4.86-10.784.724-12,2.759-1.666,11.19,0,24.2C230.277,110.843,230.407,111.546,230.443,111.77Z" transform="translate(-45.336 -16.719)" fill="#a5dd73"/>
    <path id="Tracé_162" d="M239.348,84.089c-1.188.253-1.412-3.035-.905-3.339a23.4,23.4,0,0,1,6.924.043c1.876.833,0,3.621,0,3.621" transform="translate(-47.832 -15.929)" fill="#a5dd73"/>
    <path id="Tracé_163" d="M245.061,65.293c-1.072-.188-1.036-1.977-3.027-2.788s-4.346.355-5.215.985-1.506-.652-2.462.333-.348,2.491-.905,3.027l-.08.058a2.774,2.774,0,0,0-.08,2.694,8.135,8.135,0,0,0,1.528,1.557l8.937,4.664c1.079-.76,3.143-7.967,3.027-8.829A1.883,1.883,0,0,0,245.061,65.293Z" transform="translate(-46.396 -10.887)" fill="#200904"/>
    <path id="Tracé_164" d="M236.093,69.378c-.406.435.934,9.053,3.549,9.357s5.707-3.158,5.982-4.186.116-6.518-.949-7.069S238.548,66.734,236.093,69.378Z" transform="translate(-47.234 -12.242)" fill="#f67770"/>
    <path id="Tracé_165" d="M237.8,66.007s-.514,2.006,2.615,2.383,3.346,1.079,3.715,2.173c.724,2.064,2.9,4.461,3.621-1.731.036-.3-2.216-4.541-4.65-4.874S237.8,66.007,237.8,66.007Z" transform="translate(-47.715 -11.355)" fill="#200904"/>
    <path id="Tracé_166" d="M246.94,74.188s.985-1.695,1.745-.891.21,2.694-.818,3.288" transform="translate(-50.245 -13.88)" fill="#f67770"/>
    <path id="Tracé_167" d="M212.921,124s-2.549,2.013-3.223,2.419,2.9,1.564,2.955,1.963,3.491-2.7,3.491-2.7Z" transform="translate(-39.952 -27.92)" fill="#f67770"/>
    <path id="Tracé_168" d="M216.259,140.223l-5.439-13.971L189.7,113.78l5.439,14.022Z" transform="translate(-34.461 -25.102)" fill="#172d51"/>
    <path id="Tracé_169" d="M225.563,87.56s-1.376,1.97-2.013,7.163a31.244,31.244,0,0,1-3.527,11.349c-1.057,1.637-8.075,8.2-7.786,8.85s2.173,1.811,3.4,2.245a38.182,38.182,0,0,0,9.068-7.916c3.621-4.614,3.5-12.79,3.5-12.79" transform="translate(-40.673 -17.872)" fill="#a5dd73"/>
    <path id="Tracé_170" d="M231.822,140.557a4.512,4.512,0,0,1,.333-1.6,2.173,2.173,0,0,1,.724-.637,9.638,9.638,0,0,0,1-.724l2.462-2.607-3.715-.558a28.308,28.308,0,0,1-2.535,1.5c-.167,0-2.535,1.449-2.419,1.811s1.709-.855,1.709-.855a17.777,17.777,0,0,0-2.549,1.4c-.29.34-.666,2.071-.406,2.31s.666,0,.934-.13-.181.724.232.862a2.976,2.976,0,0,0,.963.167.869.869,0,0,0,1-.138,5.628,5.628,0,0,0,1.057-2s-.094,2.079.5,1.941A1.98,1.98,0,0,0,231.822,140.557Z" transform="translate(-44.564 -30.796)" fill="#f67770"/>
    <path id="Tracé_171" d="M229.534,138.66a4.346,4.346,0,0,0-1.224.811,3.846,3.846,0,0,0-.811,2.006c-.043.2.283.246.319.043a3.216,3.216,0,0,1,.855-1.948,5.665,5.665,0,0,1,1.181-.724A1.327,1.327,0,0,1,229.534,138.66Z" transform="translate(-44.883 -31.963)" fill="#5b434d"/>
    <path id="Tracé_172" d="M230.862,139.17a6.376,6.376,0,0,0-1,.891,6.978,6.978,0,0,0-.724,2.528c-.051.2.275.246.319.043a5.151,5.151,0,0,1,1.007-2.68c.261-.253.536-.5.818-.724A3.841,3.841,0,0,1,230.862,139.17Z" transform="translate(-45.335 -32.103)" fill="#5b434d"/>
    <path id="Tracé_173" d="M251.58,90.335s1.449.311,1.26,5.577-1.492,15.709-3.882,18.244S235.6,125.744,235.6,125.744s-3.4-1.449-3.129-2.73,11.878-12.732,11.878-12.732S246.1,86.989,251.58,90.335Z" transform="translate(-46.252 -18.547)" fill="#a5dd73"/>
    <path id="Tracé_174" d="M231.351,92.877l-.811,21.279a.362.362,0,0,0,.724,0l.811-21.279C232.1,92.442,231.373,92.45,231.351,92.877Z" transform="translate(-45.723 -19.249)" fill="#75a542"/>
    <path id="Tracé_175" d="M244.329,100.379l-1.115,6.837c-.377,2.318-.464,5.019-1.608,7.119a32.607,32.607,0,0,1-4.389,5.454l-4.932,5.794c-.3.355.21.869.514.514l5.164-6.055a34.119,34.119,0,0,0,4.266-5.323c1.079-1.963,1.217-4.418,1.572-6.605l1.224-7.525C245.09,100.112,244.4,99.916,244.329,100.379Z" transform="translate(-46.178 -21.334)" fill="#75a542"/>
    <path id="Tracé_176" d="M114.36,73.746v2.883l33.511-19.49V54.77Z" transform="translate(-13.687 -8.831)" fill="#8cc63f"/>
    <path id="Tracé_177" d="M131.96,78.64l-17.6,9.966v2.883l17.6-10.241Z" transform="translate(-13.687 -15.413)" fill="#f7931e"/>
    <path id="Tracé_178" d="M142.07,75.9v2.571l3.773-2.195V73.76Z" transform="translate(-21.328 -14.067)" fill="#00a99d"/>
    <path id="Tracé_179" d="M150.68,70.275v2.477l7.206-4.186V66.19Z" transform="translate(-23.702 -11.98)" fill="#f15a24"/>
    <path id="Tracé_180" d="M129.924,90.09,114.36,98.9v2.883l15.564-9.053Z" transform="translate(-13.687 -18.57)" fill="#f15a24"/>
    <path id="Tracé_181" d="M114.96,106.083v2.883l33.511-19.49V87.1Z" transform="translate(-13.853 -17.746)" fill="#8cc63f"/>
    <path id="Tracé_182" d="M129.94,114.512v2.716l8.1-4.715V109.92Z" transform="translate(-17.983 -24.038)" fill="#00a99d"/>
    <path id="Tracé_183" d="M123.34,118.19l-8.38,4.744v2.883l8.38-4.874Z" transform="translate(-13.853 -26.318)" fill="#f15a24"/>
    <path id="Tracé_184" d="M144.53,105.381v2.557l12.1-7.04V98.53Z" transform="translate(-22.006 -20.897)" fill="#f7931e"/>
    <path id="Tracé_185" d="M142.945,112.71,114.96,128.564v2.883l27.985-16.281Z" transform="translate(-13.853 -24.807)" fill="#f7931e"/>
    <path id="Tracé_186" d="M157.01,110.121v2.419l3.056-1.782V108.39Z" transform="translate(-25.447 -23.616)" fill="#00a99d"/>
    <path id="Tracé_187"  d="M114.96,139.343v2.875l33.511-19.49V120.36Z" transform="translate(-13.853 -26.917)" fill="#00a99d"/>
    <path id="Tracé_188"  d="M132.05,143.762v2.694l21.134-12.3V131.79Z" transform="translate(-18.565 -30.068)" fill="#f7931e"/>
    <path id="Tracé_189"  d="M124.868,150.25l-9.908,5.606v2.883l9.908-5.758Z" transform="translate(-13.853 -35.159)" fill="#f15a24"/>
    <path id="Tracé_190"  d="M135.688,151.65,114.96,163.383v2.883l20.728-12.052Z" transform="translate(-13.853 -35.545)" fill="#00a99d"/>
    <path id="Tracé_191"  d="M146.99,147.495v2.528l10.313-6V141.65Z" transform="translate(-22.684 -32.787)" fill="#8cc63f"/>
    <g id="Groupe_5"  transform="translate(130.942 175.897)">
      <path id="Tracé_192"  d="M174.843,243.29l5.338,6.439-.7.681-5.338-6.431Z" transform="translate(-161.113 -236.711)" fill="#fff"/>
      <path id="Tracé_193"  d="M156.27,247.9a1.862,1.862,0,0,0,.724.884,1.239,1.239,0,0,0-.29,1.057Z" transform="translate(-156.185 -237.982)" fill="#c46200"/>
      <path id="Tracé_194"  d="M172.15,247.89l1.34.92-.717,2.774,3.2-1.079,1.34.913-5.374,1.753-.92-.63Z" transform="translate(-160.252 -237.979)" fill="#fff"/>
      <path id="Tracé_195"  d="M189.887,244.732a1.238,1.238,0,0,1-.311.905,1.68,1.68,0,0,1-.384.326l-13.037,8.184a2.608,2.608,0,0,1-1.615.333,2.984,2.984,0,0,1-1.152-.348l-16.231-9-.2-.123a1.861,1.861,0,0,1-.724-.884,1.3,1.3,0,0,1,.6-1.586l12.312-7.967a2.607,2.607,0,0,1,1.63-.348,2.977,2.977,0,0,1,1.079.311l16.955,8.749a1.8,1.8,0,0,1,1.079,1.449ZM174.511,247.9l.724-.681-5.331-6.431-.724.681,5.338,6.431M167.84,249.4l5.374-1.753-1.34-.92-3.2,1.094.724-2.774-1.34-.92-1.152,4.643.92.63m8.691-5,1.137-4.643-.927-.63-5.367,1.753,1.34.913,3.208-1.086-.724,2.781,1.34.92" transform="translate(-156.153 -234.206)" fill="#f7931e"/>
      <path id="Tracé_196"  d="M182.527,241l-5.367,1.745,1.333.913,3.216-1.086-.731,2.781,1.34.92,1.137-4.65Z" transform="translate(-161.946 -236.08)" fill="#fff"/>
      <path id="Tracé_197"  d="M202.31,249.655a1.238,1.238,0,0,0,.311-.905l.442,1.861A1.818,1.818,0,0,0,202.31,249.655Z" transform="translate(-168.88 -238.216)" fill="#c46200"/>
    </g>
    <path id="Tracé_198"  d="M189.761,249.76a1.818,1.818,0,0,1,.724.956,1.349,1.349,0,0,1,.036.152,1.318,1.318,0,0,1-.681,1.362L176.8,260.414a2.614,2.614,0,0,1-1.615.34,2.963,2.963,0,0,1-1.152-.355l-16.231-9a1.854,1.854,0,0,1-.985-1.21,1.238,1.238,0,0,1,.29-1.057l.2.123,16.289,9a2.984,2.984,0,0,0,1.152.348,2.607,2.607,0,0,0,1.615-.333l13.037-8.184A1.682,1.682,0,0,0,189.761,249.76Z" transform="translate(-25.389 -62.424)" fill="#c46200"/>
  </g>
</svg>
