<?xml version="1.0" encoding="UTF-8"?>
<svg xmlns="http://www.w3.org/2000/svg" xmlns:xlink="http://www.w3.org/1999/xlink" width="60pt" height="60pt" viewBox="0 0 60 60" version="1.1">
<g id="surface1">
<path style=" stroke:none;fill-rule:nonzero;fill:#FDFDFD;fill-opacity:1;" d="M 9.867188 7.894531 C 7.6875 7.894531 5.921875 9.660156 5.921875 11.84375 L 5.921875 21.710938 L 53.289063 21.710938 L 53.289063 15.789063 C 53.289063 13.609375 51.523438 11.84375 49.34375 11.84375 L 24.078125 11.84375 L 22.859375 9.808594 C 22.148438 8.621094 20.863281 7.894531 19.476563 7.894531 Z M 4.933594 25.65625 C 2.945313 25.65625 1.519531 27.585938 2.105469 29.488281 L 7.964844 48.53125 C 8.472656 50.183594 10.007813 51.316406 11.734375 51.316406 L 47.46875 51.316406 C 49.203125 51.316406 50.738281 50.183594 51.246094 48.53125 L 57.105469 29.488281 C 57.691406 27.585938 56.265625 25.65625 54.277344 25.65625 Z "/>
</g>
</svg>
