<?xml version="1.0" encoding="UTF-8"?>
<svg xmlns="http://www.w3.org/2000/svg" xmlns:xlink="http://www.w3.org/1999/xlink" width="60pt" height="60pt" viewBox="0 0 60 60" version="1.1">
<g id="surface1">
<path style=" stroke:none;fill-rule:nonzero;fill:#FDFDFD;fill-opacity:1;" d="M 15.789063 1.972656 C 13.609375 1.972656 11.84375 3.738281 11.84375 5.921875 L 11.84375 53.289063 C 11.84375 55.472656 13.609375 57.238281 15.789063 57.238281 L 43.421875 57.238281 C 45.601563 57.238281 47.367188 55.472656 47.367188 53.289063 L 47.367188 51.316406 L 43.421875 51.316406 L 43.421875 53.289063 L 15.789063 53.289063 L 15.789063 5.921875 L 21.710938 5.921875 L 22.527344 6.738281 C 23.269531 7.476563 24.269531 7.894531 25.320313 7.894531 L 33.890625 7.894531 C 34.941406 7.894531 35.941406 7.476563 36.683594 6.738281 L 37.5 5.921875 L 43.421875 5.921875 L 43.421875 7.894531 L 47.367188 7.894531 L 47.367188 5.921875 C 47.367188 3.738281 45.601563 1.972656 43.421875 1.972656 Z M 26.644531 3.949219 L 30.59375 3.949219 C 31.140625 3.949219 31.578125 4.386719 31.578125 4.933594 C 31.578125 5.480469 31.140625 5.921875 30.59375 5.921875 L 26.644531 5.921875 C 26.097656 5.921875 25.65625 5.480469 25.65625 4.933594 C 25.65625 4.386719 26.097656 3.949219 26.644531 3.949219 Z M 34.539063 3.949219 C 35.085938 3.949219 35.527344 4.386719 35.527344 4.933594 C 35.527344 5.480469 35.085938 5.921875 34.539063 5.921875 C 33.992188 5.921875 33.550781 5.480469 33.550781 4.933594 C 33.550781 4.386719 33.992188 3.949219 34.539063 3.949219 Z M 46.503906 12.722656 C 45.664063 12.691406 44.902344 13.199219 44.601563 13.984375 C 44.308594 14.773438 44.53125 15.660156 45.179688 16.207031 C 48.933594 19.460938 51.316406 24.238281 51.316406 29.605469 C 51.316406 34.972656 48.933594 39.75 45.179688 43.011719 C 44.355469 43.722656 44.269531 44.96875 44.976563 45.796875 C 45.695313 46.621094 46.945313 46.707031 47.769531 45.988281 C 52.347656 42.019531 55.261719 36.144531 55.261719 29.605469 C 55.261719 23.066406 52.347656 17.191406 47.769531 13.214844 C 47.421875 12.90625 46.976563 12.730469 46.503906 12.722656 Z M 40.824219 18.316406 C 39.984375 18.332031 39.242188 18.875 38.980469 19.675781 C 38.71875 20.46875 38.988281 21.347656 39.652344 21.855469 C 41.949219 23.667969 43.421875 26.453125 43.421875 29.605469 C 43.421875 32.757813 41.949219 35.542969 39.652344 37.351563 C 39.074219 37.785156 38.78125 38.496094 38.878906 39.203125 C 38.972656 39.914063 39.449219 40.515625 40.121094 40.777344 C 40.792969 41.03125 41.546875 40.90625 42.09375 40.453125 C 45.300781 37.925781 47.367188 34 47.367188 29.605469 C 47.367188 25.210938 45.300781 21.285156 42.09375 18.765625 C 41.742188 18.464844 41.285156 18.3125 40.824219 18.316406 Z M 35.21875 24.023438 C 34.269531 23.992188 33.429688 24.640625 33.222656 25.566406 C 33.003906 26.492188 33.492188 27.4375 34.363281 27.816406 C 35.046875 28.125 35.527344 28.789063 35.527344 29.605469 C 35.527344 30.421875 35.046875 31.085938 34.363281 31.394531 C 33.714844 31.6875 33.273438 32.296875 33.199219 32.996094 C 33.128906 33.707031 33.4375 34.394531 34.007813 34.808594 C 34.585938 35.21875 35.332031 35.296875 35.980469 35.003906 C 38.039063 34.070313 39.472656 31.996094 39.472656 29.605469 C 39.472656 27.214844 38.039063 25.140625 35.980469 24.207031 C 35.742188 24.101563 35.480469 24.039063 35.21875 24.023438 Z "/>
</g>
</svg>
