<?xml version="1.0" encoding="UTF-8"?>
<svg xmlns="http://www.w3.org/2000/svg" xmlns:xlink="http://www.w3.org/1999/xlink" width="60pt" height="60pt" viewBox="0 0 60 60" version="1.1">
<g id="surface1">
<path style=" stroke:none;fill-rule:nonzero;fill:#FDFDFD;fill-opacity:1;" d="M 47.367188 7.894531 L 11.84375 7.894531 C 9.660156 7.894531 7.894531 9.660156 7.894531 11.84375 L 7.894531 47.367188 C 7.894531 49.550781 9.660156 51.316406 11.84375 51.316406 L 47.367188 51.316406 C 49.550781 51.316406 51.316406 49.550781 51.316406 47.367188 L 51.316406 11.84375 C 51.316406 9.660156 49.550781 7.894531 47.367188 7.894531 Z M 41.449219 31.578125 L 31.578125 31.578125 L 31.578125 41.449219 C 31.578125 42.542969 30.691406 43.421875 29.605469 43.421875 C 28.519531 43.421875 27.632813 42.542969 27.632813 41.449219 L 27.632813 31.578125 L 17.761719 31.578125 C 16.675781 31.578125 15.789063 30.699219 15.789063 29.605469 C 15.789063 28.511719 16.675781 27.632813 17.761719 27.632813 L 27.632813 27.632813 L 27.632813 17.761719 C 27.632813 16.667969 28.519531 15.789063 29.605469 15.789063 C 30.691406 15.789063 31.578125 16.667969 31.578125 17.761719 L 31.578125 27.632813 L 41.449219 27.632813 C 42.535156 27.632813 43.421875 28.511719 43.421875 29.605469 C 43.421875 30.699219 42.535156 31.578125 41.449219 31.578125 Z "/>
</g>
</svg>
