<svg xmlns="http://www.w3.org/2000/svg" width="80" height="80" viewBox="0 0 80 80">
  <g id="Groupe_55" transform="translate(-1615 -812)">
    <rect id="Rectangle_314"  width="80" height="80" rx="20" transform="translate(1615 812)" fill="#ff5159"/>
    <g id="Calque_2"  transform="translate(1646.695 824)">
      <g id="Calque_1" transform="translate(0.305)">
        <path id="Tracé_19"  d="M8.748,264.635,6.1,267.207,3.09,264.562l2.939-2.572Z" transform="translate(-3.09 -242.958)" fill="#fff"/>
        <path id="Tracé_20"  d="M12.937,2.99V6.664L6.029,12.175v9.847L3.09,24.594V10.338Z" transform="translate(-3.09 -2.99)" fill="#fff"/>
        <path id="Tracé_21"  d="M142.6,401.782l-2.792,2.572-2.719-2.572,2.719-2.792Z" transform="translate(-127.243 -369.891)" fill="#fff"/>
        <path id="Tracé_22"  d="M96.275,436.99v15.652l-9.185,7.789v-3.895l6.393-5.511V439.562Z" transform="translate(-80.917 -405.099)" fill="#fff"/>
        <path id="Tracé_23"  d="M143.528,78.9l-2.792,1.837-2.645-1.764,2.719-1.984Z" transform="translate(-128.17 -71.552)" fill="#fff"/>
        <path id="Tracé_24"  d="M8.822,629.68,6.1,631.3l-3.013-1.69,2.939-1.617v.073Z" transform="translate(-3.09 -582.064)" fill="#fff"/>
        <path id="Tracé_25"  d="M18.448,102.99v14.256L6.029,128.929v12.639L3.09,143.185V127.533L15.655,116.07V104.827Z" transform="translate(-3.09 -95.642)" fill="#fff"/>
        <path id="Tracé_26"  d="M88.854,127.99l-1.764,2.058v6.1l1.764,1.69,1.911-1.617V129.9Z" transform="translate(-80.917 -118.805)" fill="#fff"/>
        <path id="Tracé_27"  d="M88.854,479.99l-1.764,2.058v6.1l1.764,1.69,1.911-1.617V481.9Z" transform="translate(-80.917 -444.939)" fill="#fff"/>
        <line id="Ligne_9"  x1="2" y1="3" transform="translate(13.098 19)" fill="#fff"/>
        <line id="Ligne_10"  x1="3" y1="1" transform="translate(0.098 8)" fill="#fff"/>
        <line id="Ligne_11"  x2="3" y2="1" transform="translate(0.098 33)" fill="#fff"/>
        <line id="Ligne_12"  x1="2" y1="2" transform="translate(13.098 46)" fill="#fff"/>
        <path id="Tracé_28"  d="M8.748,264.635,6.1,267.207,3.09,264.562l2.939-2.572Z" transform="translate(-3.09 -242.958)" fill="#fff"/>
        <path id="Tracé_29"  d="M12.937,2.99V6.664L6.029,12.175v9.847L3.09,24.594V10.338Z" transform="translate(-3.09 -2.99)" fill="#fff"/>
        <path id="Tracé_30"  d="M142.6,401.782l-2.792,2.572-2.719-2.572,2.719-2.792Z" transform="translate(-127.243 -369.891)" fill="#fff"/>
        <path id="Tracé_31"  d="M96.275,436.99v15.652l-9.185,7.789v-3.895l6.393-5.511V439.562Z" transform="translate(-80.917 -405.099)" fill="#fff"/>
        <path id="Tracé_32"  d="M143.528,78.9l-2.792,1.837-2.645-1.764,2.719-1.984Z" transform="translate(-128.17 -71.552)" fill="#fff"/>
        <path id="Tracé_33"  d="M8.822,629.68,6.1,631.3l-3.013-1.69,2.939-1.617v.073Z" transform="translate(-3.09 -582.064)" fill="#fff"/>
        <path id="Tracé_34"  d="M18.448,102.99v14.256L6.029,128.929v12.639L3.09,143.185V127.533L15.655,116.07V104.827Z" transform="translate(-3.09 -95.642)" fill="#fff"/>
        <path id="Tracé_35"  d="M88.854,127.99l-1.764,2.058v6.1l1.764,1.69,1.911-1.617V129.9Z" transform="translate(-80.917 -118.805)" fill="#fff"/>
        <path id="Tracé_36"  d="M88.854,479.99l-1.764,2.058v6.1l1.764,1.69,1.911-1.617V481.9Z" transform="translate(-80.917 -444.939)" fill="#fff"/>
        <line id="Ligne_13"  x1="2" y1="3" transform="translate(13.098 19)" fill="#fff"/>
        <line id="Ligne_14"  x1="3" y1="1" transform="translate(0.098 8)" fill="#fff"/>
        <line id="Ligne_15"  x2="3" y2="1" transform="translate(0.098 33)" fill="#fff"/>
        <line id="Ligne_16"  x1="2" y1="2" transform="translate(13.098 46)" fill="#fff"/>
      </g>
    </g>
  </g>
</svg>
