<?xml version="1.0" encoding="UTF-8"?>
<svg xmlns="http://www.w3.org/2000/svg" xmlns:xlink="http://www.w3.org/1999/xlink" width="60pt" height="60pt" viewBox="0 0 60 60" version="1.1">
<g id="surface1">
<path style=" stroke:none;fill-rule:nonzero;fill:#FDFDFD;fill-opacity:1;" d="M 45.394531 5.921875 C 41.03125 5.921875 37.5 9.453125 37.5 13.816406 C 37.5 14.371094 37.570313 14.925781 37.683594 15.464844 L 19.761719 24.425781 C 18.265625 22.703125 16.097656 21.71875 13.816406 21.710938 C 9.453125 21.710938 5.921875 25.242188 5.921875 29.605469 C 5.921875 33.96875 9.453125 37.5 13.816406 37.5 C 16.097656 37.5 18.265625 36.503906 19.769531 34.785156 L 37.675781 43.746094 C 37.5625 44.285156 37.5 44.839844 37.5 45.394531 C 37.5 49.757813 41.03125 53.289063 45.394531 53.289063 C 49.757813 53.289063 53.289063 49.757813 53.289063 45.394531 C 53.289063 41.03125 49.757813 37.5 45.394531 37.5 C 43.113281 37.5 40.945313 38.496094 39.441406 40.214844 L 21.53125 31.253906 C 21.648438 30.714844 21.710938 30.160156 21.710938 29.605469 C 21.710938 29.050781 21.640625 28.503906 21.527344 27.964844 L 39.449219 18.996094 C 40.945313 20.714844 43.113281 21.710938 45.394531 21.710938 C 49.757813 21.710938 53.289063 18.179688 53.289063 13.816406 C 53.289063 9.453125 49.757813 5.921875 45.394531 5.921875 Z "/>
</g>
</svg>
