<?xml version="1.0" encoding="UTF-8"?>
<svg xmlns="http://www.w3.org/2000/svg" xmlns:xlink="http://www.w3.org/1999/xlink" width="96pt" height="96pt" viewBox="0 0 96 96" version="1.1">
<g id="surface1">
<path style=" stroke:none;fill-rule:nonzero;fill:#FFC107;fill-opacity:1;" d="M 79.976563 24 C 79.976563 24 81.976563 70 48.347656 88 C 14.023438 70 16.023438 24 16.023438 24 C 32.011719 24 48 8 48 8 C 48 8 61.988281 24 79.976563 24 Z "/>
<path style=" stroke:none;fill-rule:nonzero;fill:#5D4037;fill-opacity:1;" d="M 44 64.285156 C 44 63.746094 44.09375 63.253906 44.285156 62.792969 C 44.472656 62.335938 44.742188 61.941406 45.09375 61.609375 C 45.433594 61.273438 45.855469 61.011719 46.339844 60.820313 C 46.828125 60.636719 47.375 60.539063 47.988281 60.539063 C 48.601563 60.539063 49.152344 60.636719 49.644531 60.820313 C 50.144531 61.011719 50.566406 61.273438 50.90625 61.609375 C 51.257813 61.941406 51.527344 62.335938 51.714844 62.792969 C 51.90625 63.253906 52 63.746094 52 64.285156 C 52 64.824219 51.90625 65.316406 51.714844 65.765625 C 51.527344 66.214844 51.257813 66.601563 50.90625 66.941406 C 50.566406 67.273438 50.144531 67.53125 49.644531 67.722656 C 49.152344 67.90625 48.601563 68 47.988281 68 C 47.375 68 46.828125 67.90625 46.339844 67.722656 C 45.855469 67.53125 45.433594 67.269531 45.09375 66.9375 C 44.742188 66.601563 44.472656 66.210938 44.285156 65.761719 C 44.09375 65.3125 44 64.820313 44 64.285156 M 50.960938 56 L 45.015625 56 L 44.171875 32 L 51.800781 32 Z "/>
</g>
</svg>
