<?xml version="1.0" encoding="UTF-8"?>
<svg xmlns="http://www.w3.org/2000/svg" xmlns:xlink="http://www.w3.org/1999/xlink" width="60pt" height="60pt" viewBox="0 0 60 60" version="1.1">
<g id="surface1">
<path style=" stroke:none;fill-rule:nonzero;fill:#FDFDFD;fill-opacity:1;" d="M 3.367188 0.578125 L 0.578125 3.367188 L 55.839844 58.632813 L 58.632813 55.839844 L 40.867188 38.078125 L 47.738281 31.207031 C 43.089844 26.558594 36.683594 23.683594 29.605469 23.683594 C 28.609375 23.683594 27.632813 23.761719 26.667969 23.871094 L 23.261719 20.46875 C 25.304688 20.007813 27.421875 19.738281 29.605469 19.738281 C 37.769531 19.738281 45.171875 23.058594 50.53125 28.417969 L 57.515625 21.433594 C 50.375 14.285156 40.507813 9.867188 29.605469 9.867188 C 24.570313 9.867188 19.773438 10.832031 15.351563 12.558594 Z M 8.027344 16.3125 C 5.742188 17.800781 3.617188 19.503906 1.695313 21.433594 L 8.679688 28.417969 C 10.609375 26.492188 12.804688 24.832031 15.203125 23.5 Z M 18.132813 26.421875 C 15.667969 27.664063 13.40625 29.273438 11.472656 31.207031 L 18.441406 38.179688 C 20.429688 36.195313 22.953125 34.753906 25.757813 34.046875 Z M 29.234375 37.523438 C 26.121094 37.617188 23.296875 38.910156 21.242188 40.976563 L 29.605469 49.34375 L 35.332031 43.613281 Z "/>
</g>
</svg>
