<?xml version="1.0" encoding="UTF-8"?>
<svg xmlns="http://www.w3.org/2000/svg" width="60pt" height="60pt" viewBox="0 0 60 60" version="1.1">
<g id="surface1">
<path style=" stroke:none;fill-rule:nonzero;fill:#FDFDFD;fill-opacity:1;" d="M 29.605469 5.921875 C 16.523438 5.921875 5.921875 16.523438 5.921875 29.605469 C 5.921875 42.6875 16.523438 53.289063 29.605469 53.289063 C 42.6875 53.289063 53.289063 42.6875 53.289063 29.605469 C 53.289063 16.523438 42.6875 5.921875 29.605469 5.921875 Z M 39.472656 31.578125 L 31.578125 31.578125 L 31.578125 39.472656 C 31.578125 40.570313 30.691406 41.449219 29.605469 41.449219 C 28.519531 41.449219 27.632813 40.570313 27.632813 39.472656 L 27.632813 31.578125 L 19.738281 31.578125 C 18.648438 31.578125 17.761719 30.699219 17.761719 29.605469 C 17.761719 28.511719 18.648438 27.632813 19.738281 27.632813 L 27.632813 27.632813 L 27.632813 19.738281 C 27.632813 18.640625 28.519531 17.761719 29.605469 17.761719 C 30.691406 17.761719 31.578125 18.640625 31.578125 19.738281 L 31.578125 27.632813 L 39.472656 27.632813 C 40.5625 27.632813 41.449219 28.511719 41.449219 29.605469 C 41.449219 30.699219 40.5625 31.578125 39.472656 31.578125 Z "/>
</g>
</svg>
