<?xml version="1.0" encoding="UTF-8"?>
<svg xmlns="http://www.w3.org/2000/svg" width="60pt" height="60pt" viewBox="0 0 60 60" version="1.1">
<g id="surface1">
<path style=" stroke:none;fill-rule:nonzero;fill:#FDFDFD;fill-opacity:1;" d="M 43.421875 3.949219 C 40.261719 3.949219 37.285156 5.179688 35.046875 7.417969 L 31.101563 11.363281 C 28.863281 13.601563 27.632813 16.574219 27.632813 19.738281 C 27.632813 22.234375 28.410156 24.601563 29.828125 26.589844 L 26.589844 29.828125 C 24.601563 28.410156 22.226563 27.632813 19.738281 27.632813 C 16.574219 27.632813 13.601563 28.863281 11.363281 31.101563 L 7.417969 35.046875 C 5.179688 37.285156 3.949219 40.261719 3.949219 43.421875 C 3.949219 46.582031 5.179688 49.558594 7.417969 51.792969 C 9.652344 54.03125 12.628906 55.261719 15.789063 55.261719 C 18.949219 55.261719 21.925781 54.03125 24.164063 51.792969 L 27.855469 48.101563 C 27.722656 47.214844 27.632813 46.320313 27.632813 45.394531 C 27.632813 44.347656 27.738281 43.328125 27.910156 42.335938 C 27.714844 42.589844 27.523438 42.851563 27.292969 43.082031 L 21.371094 49.003906 C 18.296875 52.078125 13.285156 52.078125 10.207031 49.003906 C 7.132813 45.925781 7.132813 40.914063 10.207031 37.839844 L 14.15625 33.890625 C 15.695313 32.351563 17.71875 31.585938 19.738281 31.585938 C 21.125 31.585938 22.496094 31.972656 23.722656 32.6875 L 18.339844 38.078125 C 17.824219 38.570313 17.617188 39.3125 17.800781 39.996094 C 17.980469 40.691406 18.519531 41.230469 19.210938 41.410156 C 19.898438 41.59375 20.640625 41.386719 21.132813 40.867188 L 40.867188 21.132813 C 41.453125 20.5625 41.625 19.699219 41.308594 18.949219 C 40.992188 18.195313 40.253906 17.71875 39.433594 17.746094 C 38.917969 17.753906 38.433594 17.972656 38.078125 18.339844 L 32.6875 23.722656 C 30.914063 20.699219 31.292969 16.746094 33.890625 14.15625 L 37.839844 10.207031 C 39.382813 8.664063 41.402344 7.902344 43.421875 7.902344 C 45.441406 7.902344 47.460938 8.671875 49.003906 10.207031 C 52.078125 13.285156 52.078125 18.296875 49.003906 21.371094 L 43.082031 27.292969 C 42.851563 27.523438 42.589844 27.714844 42.335938 27.910156 C 43.328125 27.738281 44.347656 27.632813 45.394531 27.632813 C 46.320313 27.632813 47.214844 27.722656 48.101563 27.855469 L 51.792969 24.164063 C 54.03125 21.925781 55.261719 18.949219 55.261719 15.789063 C 55.261719 12.628906 54.03125 9.652344 51.792969 7.417969 C 49.558594 5.179688 46.582031 3.949219 43.421875 3.949219 Z M 45.394531 31.578125 C 37.761719 31.578125 31.578125 37.761719 31.578125 45.394531 C 31.578125 53.027344 37.761719 59.210938 45.394531 59.210938 C 53.027344 59.210938 59.210938 53.027344 59.210938 45.394531 C 59.210938 37.761719 53.027344 31.578125 45.394531 31.578125 Z M 45.394531 37.5 C 46.480469 37.5 47.367188 38.378906 47.367188 39.472656 L 47.367188 43.421875 L 51.316406 43.421875 C 52.402344 43.421875 53.289063 44.300781 53.289063 45.394531 C 53.289063 46.488281 52.402344 47.367188 51.316406 47.367188 L 47.367188 47.367188 L 47.367188 51.316406 C 47.367188 52.410156 46.480469 53.289063 45.394531 53.289063 C 44.308594 53.289063 43.421875 52.410156 43.421875 51.316406 L 43.421875 47.367188 L 39.472656 47.367188 C 38.386719 47.367188 37.5 46.488281 37.5 45.394531 C 37.5 44.300781 38.386719 43.421875 39.472656 43.421875 L 43.421875 43.421875 L 43.421875 39.472656 C 43.421875 38.378906 44.308594 37.5 45.394531 37.5 Z "/>
</g>
</svg>
