<?xml version="1.0" encoding="UTF-8"?>
<svg xmlns="http://www.w3.org/2000/svg" width="60pt" height="60pt" viewBox="0 0 60 60" version="1.1">
<g id="surface1">
<path style=" stroke:none;fill-rule:nonzero;fill:#FDFDFD;fill-opacity:1;" d="M 29.519531 5.921875 C 29.179688 5.9375 28.851563 6.035156 28.558594 6.222656 L 4.503906 21.253906 C 3.886719 21.625 3.515625 22.296875 3.539063 23.011719 C 3.554688 23.722656 3.960938 24.378906 4.59375 24.703125 C 5.226563 25.035156 5.992188 24.996094 6.59375 24.609375 L 8.34375 23.507813 L 15.042969 50.296875 C 15.480469 52.054688 17.0625 53.289063 18.875 53.289063 L 40.335938 53.289063 C 42.15625 53.289063 43.730469 52.054688 44.167969 50.296875 L 50.859375 23.507813 L 52.617188 24.609375 C 53.21875 24.996094 53.984375 25.035156 54.617188 24.703125 C 55.246094 24.378906 55.65625 23.722656 55.671875 23.011719 C 55.695313 22.296875 55.324219 21.625 54.707031 21.253906 L 30.652344 6.222656 C 30.316406 6.011719 29.921875 5.90625 29.519531 5.921875 Z M 29.605469 19.738281 C 33.96875 19.738281 37.5 23.269531 37.5 27.632813 C 37.5 31.996094 33.96875 35.527344 29.605469 35.527344 C 25.242188 35.527344 21.710938 31.996094 21.710938 27.632813 C 21.710938 23.269531 25.242188 19.738281 29.605469 19.738281 Z M 23.683594 41.449219 L 35.527344 41.449219 C 36.613281 41.449219 37.5 42.335938 37.5 43.421875 C 37.5 44.507813 36.613281 45.394531 35.527344 45.394531 L 23.683594 45.394531 C 22.597656 45.394531 21.710938 44.507813 21.710938 43.421875 C 21.710938 42.335938 22.597656 41.449219 23.683594 41.449219 Z "/>
</g>
</svg>
