<?xml version="1.0" encoding="UTF-8"?>
<svg xmlns="http://www.w3.org/2000/svg" width="60pt" height="60pt" viewBox="0 0 60 60" version="1.1">
<g id="surface1">
<path style=" stroke:none;fill-rule:nonzero;fill:#FDFDFD;fill-opacity:1;" d="M 29.605469 3.949219 C 19.097656 3.949219 11.84375 9.265625 11.84375 29.605469 C 11.84375 49.9375 19.097656 55.261719 29.605469 55.261719 C 40.121094 55.261719 47.367188 49.9375 47.367188 29.605469 C 47.367188 9.265625 40.121094 3.949219 29.605469 3.949219 Z M 29.488281 9.867188 C 30.082031 9.835938 30.675781 10.070313 31.085938 10.53125 L 38.980469 19.414063 C 39.660156 20.175781 39.636719 21.332031 38.941406 22.082031 L 31.855469 29.605469 L 38.941406 37.128906 C 39.636719 37.878906 39.660156 39.035156 38.980469 39.796875 L 31.085938 48.679688 C 30.699219 49.109375 30.160156 49.34375 29.605469 49.34375 C 29.375 49.34375 29.136719 49.304688 28.902344 49.21875 C 28.140625 48.925781 27.632813 48.1875 27.632813 47.367188 L 27.632813 34.085938 L 23.152344 38.855469 C 22.398438 39.652344 21.148438 39.683594 20.355469 38.933594 C 19.566406 38.1875 19.527344 36.9375 20.269531 36.144531 L 26.429688 29.605469 L 20.269531 23.066406 C 19.527344 22.273438 19.566406 21.023438 20.355469 20.269531 C 21.148438 19.519531 22.398438 19.558594 23.152344 20.355469 L 27.632813 25.125 L 27.632813 11.84375 C 27.632813 11.023438 28.140625 10.285156 28.902344 9.992188 C 29.097656 9.921875 29.296875 9.882813 29.488281 9.867188 Z M 31.578125 17.039063 L 31.578125 24.140625 L 34.824219 20.683594 Z M 31.578125 35.070313 L 31.578125 42.179688 L 34.824219 38.523438 Z "/>
</g>
</svg>
