<?xml version="1.0" encoding="UTF-8"?>
<svg xmlns="http://www.w3.org/2000/svg"  width="60pt" height="60pt" viewBox="0 0 60 60" version="1.1">
<g id="surface1">
<path style=" stroke:none;fill-rule:nonzero;fill:#FDFDFD;fill-opacity:1;" d="M 51.285156 26.335938 C 51.292969 26.105469 51.316406 25.890625 51.316406 25.65625 C 51.316406 16.9375 44.246094 9.867188 35.527344 9.867188 C 29.390625 9.867188 24.078125 13.375 21.472656 18.496094 C 20.324219 18.03125 19.074219 17.761719 17.761719 17.761719 C 12.765625 17.761719 8.6875 21.488281 8.027344 26.296875 C 3.363281 27.886719 0 32.296875 0 37.5 C 0 44.039063 5.304688 49.34375 11.84375 49.34375 L 47.367188 49.34375 C 53.90625 49.34375 59.210938 44.039063 59.210938 37.5 C 59.210938 32.335938 55.894531 27.949219 51.285156 26.335938 Z M 29.605469 45.394531 C 23.074219 45.394531 17.761719 40.082031 17.761719 33.550781 L 13.816406 33.550781 L 19.738281 27.632813 L 25.65625 33.550781 L 21.710938 33.550781 C 21.710938 37.910156 25.25 41.449219 29.605469 41.449219 Z M 39.472656 39.472656 L 33.550781 33.550781 L 37.5 33.550781 C 37.5 29.195313 33.960938 25.65625 29.605469 25.65625 L 29.605469 21.710938 C 36.136719 21.710938 41.449219 27.023438 41.449219 33.550781 L 45.394531 33.550781 Z "/>
</g>
</svg>
