<?xml version="1.0" encoding="UTF-8"?>
<svg xmlns="http://www.w3.org/2000/svg"  width="480pt" height="480pt" viewBox="0 0 480 480" version="1.1">
<g id="surface1">
<path style=" stroke:none;fill-rule:nonzero;fill:#FDFDFD;fill-opacity:1;" d="M 236.84375 15.789063 C 228.144531 15.789063 221.050781 22.882813 221.050781 31.578125 L 221.050781 94.738281 L 252.632813 94.738281 L 252.632813 31.578125 C 252.632813 22.882813 245.539063 15.789063 236.84375 15.789063 Z M 252.632813 94.738281 L 252.632813 293.460938 L 288.835938 257.257813 C 295.003906 251.089844 304.996094 251.089844 311.164063 257.257813 C 317.332031 263.425781 317.332031 273.417969 311.164063 279.585938 L 248.003906 342.742188 C 244.921875 345.828125 240.914063 347.367188 236.84375 347.367188 C 232.769531 347.367188 228.761719 345.828125 225.679688 342.742188 L 162.519531 279.585938 C 156.351563 273.417969 156.351563 263.425781 162.519531 257.257813 C 168.6875 251.089844 178.679688 251.089844 184.847656 257.257813 L 221.050781 293.460938 L 221.050781 94.738281 L 94.738281 94.738281 C 77.28125 94.738281 63.15625 108.859375 63.15625 126.316406 L 63.15625 394.738281 C 63.15625 412.191406 77.28125 426.316406 94.738281 426.316406 L 378.949219 426.316406 C 396.402344 426.316406 410.527344 412.191406 410.527344 394.738281 L 410.527344 126.316406 C 410.527344 108.859375 396.402344 94.738281 378.949219 94.738281 Z "/>
</g>
</svg>
