<?xml version="1.0" encoding="UTF-8"?>
<svg xmlns="http://www.w3.org/2000/svg" width="60pt" height="60pt" viewBox="0 0 60 60" version="1.1">
<g id="surface1">
<path style=" stroke:none;fill-rule:nonzero;fill:#FDFDFD;fill-opacity:1;" d="M 7.894531 5.921875 C 5.710938 5.921875 3.949219 7.6875 3.949219 9.867188 L 3.949219 45.394531 C 3.949219 47.578125 5.710938 49.34375 7.894531 49.34375 L 51.316406 49.34375 C 53.496094 49.34375 55.261719 47.578125 55.261719 45.394531 L 55.261719 13.816406 C 55.261719 11.632813 53.496094 9.867188 51.316406 9.867188 L 22.105469 9.867188 L 20.886719 7.832031 C 20.175781 6.644531 18.890625 5.921875 17.5 5.921875 Z M 29.605469 17.761719 C 30.699219 17.761719 31.578125 18.648438 31.578125 19.738281 L 31.578125 34.710938 L 36.105469 30.183594 C 36.875 29.414063 38.125 29.414063 38.894531 30.183594 C 39.667969 30.953125 39.667969 32.203125 38.894531 32.972656 L 31 40.867188 C 30.617188 41.253906 30.113281 41.449219 29.605469 41.449219 C 29.097656 41.449219 28.59375 41.253906 28.210938 40.867188 L 20.316406 32.972656 C 19.542969 32.203125 19.542969 30.953125 20.316406 30.183594 C 21.085938 29.414063 22.335938 29.414063 23.105469 30.183594 L 27.632813 34.710938 L 27.632813 19.738281 C 27.632813 18.648438 28.511719 17.761719 29.605469 17.761719 Z "/>
</g>
</svg>
