<?xml version="1.0" encoding="UTF-8"?>
<svg xmlns="http://www.w3.org/2000/svg" width="60pt" height="60pt" viewBox="0 0 60 60" version="1.1">
<g id="surface1">
<path style=" stroke:none;fill-rule:nonzero;fill:#FDFDFD;fill-opacity:1;" d="M 29.605469 1.972656 C 28.519531 1.972656 27.632813 2.859375 27.632813 3.949219 L 27.632813 11.84375 L 31.578125 11.84375 L 31.578125 3.949219 C 31.578125 2.859375 30.691406 1.972656 29.605469 1.972656 Z M 31.578125 11.84375 L 31.578125 36.683594 L 36.105469 32.15625 C 36.875 31.386719 38.125 31.386719 38.894531 32.15625 C 39.667969 32.929688 39.667969 34.175781 38.894531 34.949219 L 31 42.84375 C 30.617188 43.226563 30.113281 43.421875 29.605469 43.421875 C 29.097656 43.421875 28.59375 43.226563 28.210938 42.84375 L 20.316406 34.949219 C 19.542969 34.175781 19.542969 32.929688 20.316406 32.15625 C 21.085938 31.386719 22.335938 31.386719 23.105469 32.15625 L 27.632813 36.683594 L 27.632813 11.84375 L 11.84375 11.84375 C 9.660156 11.84375 7.894531 13.609375 7.894531 15.789063 L 7.894531 49.34375 C 7.894531 51.523438 9.660156 53.289063 11.84375 53.289063 L 47.367188 53.289063 C 49.550781 53.289063 51.316406 51.523438 51.316406 49.34375 L 51.316406 15.789063 C 51.316406 13.609375 49.550781 11.84375 47.367188 11.84375 Z "/>
</g>
</svg>
