<?xml version="1.0" encoding="UTF-8"?>
<svg xmlns="http://www.w3.org/2000/svg"width="60pt" height="60pt" viewBox="0 0 60 60" version="1.1">
<g id="surface1">
<path style=" stroke:none;fill-rule:nonzero;fill:#FDFDFD;fill-opacity:1;" d="M 25.65625 3.949219 C 24.570313 3.949219 23.683594 4.835938 23.683594 5.921875 C 23.683594 15.90625 9.867188 23.683594 9.867188 37.5 C 9.867188 47.992188 21.242188 54.785156 25.25 55.226563 C 25.378906 55.246094 25.519531 55.261719 25.65625 55.261719 C 26.746094 55.261719 27.632813 54.375 27.632813 53.289063 C 27.632813 52.695313 27.363281 52.132813 26.898438 51.753906 C 26.90625 51.753906 26.90625 51.753906 26.898438 51.753906 C 25.109375 50.296875 21.710938 46.074219 21.710938 42.21875 C 21.710938 35.882813 27.632813 33.550781 27.632813 33.550781 C 24.253906 43.105469 35.316406 44.261719 37.546875 53.722656 L 37.554688 53.722656 C 37.746094 54.617188 38.546875 55.261719 39.472656 55.261719 C 39.890625 55.261719 40.289063 55.132813 40.628906 54.886719 C 40.667969 54.863281 40.699219 54.832031 40.738281 54.800781 C 41.054688 54.59375 49.34375 49.117188 49.34375 37.5 C 49.34375 32.757813 46.96875 24.609375 45.265625 21 C 45.265625 21 45.265625 20.992188 45.265625 20.992188 C 45.257813 20.992188 45.257813 20.984375 45.257813 20.984375 C 44.957031 20.230469 44.230469 19.738281 43.421875 19.738281 C 42.472656 19.738281 41.65625 20.414063 41.476563 21.347656 C 41.476563 21.355469 41.476563 21.355469 41.476563 21.363281 C 41.476563 21.378906 40.570313 25.402344 37.5 27.632813 C 37.5 18.332031 30.785156 8.726563 27.246094 4.75 C 27.191406 4.679688 27.136719 4.609375 27.078125 4.546875 C 26.699219 4.164063 26.191406 3.949219 25.65625 3.949219 Z "/>
</g>
</svg>
