<?xml version="1.0" encoding="UTF-8"?>
<svg xmlns="http://www.w3.org/2000/svg"  width="60pt" height="60pt" viewBox="0 0 60 60" version="1.1">
<g id="surface1">
<path style=" stroke:none;fill-rule:nonzero;fill:#FDFDFD;fill-opacity:1;" d="M 18.84375 5.921875 C 10.640625 5.921875 3.949219 12.613281 3.949219 20.816406 C 3.949219 28.1875 9.675781 35.695313 15.117188 41.6875 C 20.5625 47.667969 25.996094 52.046875 25.996094 52.046875 C 26.011719 52.054688 26.027344 52.070313 26.050781 52.085938 C 26.929688 52.75 28.03125 53.179688 29.226563 53.257813 C 29.351563 53.28125 29.480469 53.289063 29.605469 53.289063 C 29.730469 53.289063 29.851563 53.28125 29.976563 53.257813 C 29.984375 53.257813 29.992188 53.257813 30 53.257813 C 31.195313 53.171875 32.289063 52.742188 33.160156 52.085938 C 33.183594 52.070313 33.199219 52.054688 33.214844 52.046875 C 33.214844 52.046875 38.648438 47.667969 44.09375 41.6875 C 49.535156 35.695313 55.261719 28.1875 55.261719 20.816406 C 55.261719 12.613281 48.570313 5.921875 40.367188 5.921875 C 35.210938 5.921875 31.554688 8.757813 29.605469 10.769531 C 27.65625 8.757813 24 5.921875 18.84375 5.921875 Z M 18.84375 9.867188 C 24.230469 9.867188 27.507813 14.292969 27.839844 14.757813 C 28.179688 15.410156 28.859375 15.820313 29.597656 15.820313 C 29.605469 15.820313 29.628906 15.820313 29.636719 15.820313 C 29.660156 15.8125 29.675781 15.8125 29.691406 15.8125 C 29.734375 15.8125 29.789063 15.804688 29.835938 15.804688 C 30.484375 15.726563 31.0625 15.34375 31.363281 14.757813 C 31.679688 14.324219 34.964844 9.867188 40.367188 9.867188 C 46.441406 9.867188 51.316406 14.742188 51.316406 20.816406 C 51.316406 25.949219 46.382813 33.296875 41.167969 39.027344 C 35.972656 44.738281 30.808594 48.910156 30.769531 48.941406 C 30.421875 49.195313 30.035156 49.34375 29.605469 49.34375 C 29.171875 49.34375 28.789063 49.195313 28.441406 48.941406 C 28.402344 48.910156 23.238281 44.738281 18.039063 39.027344 C 12.828125 33.296875 7.894531 25.949219 7.894531 20.816406 C 7.894531 14.742188 12.765625 9.867188 18.84375 9.867188 Z "/>
</g>
</svg>
