<?xml version="1.0" encoding="UTF-8"?>
<svg xmlns="http://www.w3.org/2000/svg" width="60pt" height="60pt" viewBox="0 0 60 60" version="1.1">
<g id="surface1">
<path style=" stroke:none;fill-rule:nonzero;fill:#FDFDFD;fill-opacity:1;" d="M 9.867188 9.867188 C 7.6875 9.867188 5.921875 11.632813 5.921875 13.816406 L 5.921875 43.421875 C 5.921875 45.601563 7.6875 47.367188 9.867188 47.367188 L 17.761719 47.367188 L 17.761719 55.261719 C 17.761719 56.351563 18.648438 57.238281 19.738281 57.238281 C 20.40625 57.238281 21.023438 56.898438 21.394531 56.335938 L 28.125 47.367188 L 49.34375 47.367188 C 51.523438 47.367188 53.289063 45.601563 53.289063 43.421875 L 53.289063 13.816406 C 53.289063 11.632813 51.523438 9.867188 49.34375 9.867188 Z M 17.761719 15.789063 C 18.550781 15.789063 19.265625 16.257813 19.582031 16.984375 L 25.503906 30.800781 C 25.929688 31.800781 25.464844 32.964844 24.460938 33.398438 C 24.207031 33.507813 23.945313 33.550781 23.683594 33.550781 C 22.921875 33.550781 22.1875 33.105469 21.863281 32.359375 L 21.53125 31.578125 L 13.984375 31.578125 L 13.660156 32.359375 C 13.230469 33.359375 12.066406 33.832031 11.0625 33.398438 C 10.0625 32.964844 9.597656 31.800781 10.023438 30.808594 L 15.945313 16.992188 C 16.257813 16.257813 16.976563 15.789063 17.761719 15.789063 Z M 41.449219 21.710938 C 42.535156 21.710938 43.421875 22.597656 43.421875 23.683594 L 43.421875 25.65625 L 47.367188 25.65625 C 48.457031 25.65625 49.34375 26.542969 49.34375 27.632813 C 49.34375 28.726563 48.457031 29.605469 47.367188 29.605469 L 47.152344 29.605469 C 46.734375 31.65625 45.742188 34.054688 44.261719 36.160156 L 46.574219 37.894531 C 47.453125 38.546875 47.628906 39.789063 46.976563 40.652344 C 46.589844 41.175781 45.988281 41.449219 45.394531 41.449219 C 44.976563 41.449219 44.570313 41.316406 44.214844 41.046875 L 41.601563 39.097656 C 39.882813 40.515625 37.839844 41.449219 35.527344 41.449219 C 34.4375 41.449219 33.550781 40.570313 33.550781 39.472656 C 33.550781 38.378906 34.4375 37.5 35.527344 37.5 C 36.519531 37.5 37.453125 37.167969 38.308594 36.628906 L 36.320313 35.132813 C 35.441406 34.476563 35.265625 33.238281 35.917969 32.375 C 36.574219 31.492188 37.808594 31.324219 38.679688 31.980469 L 41.140625 33.824219 C 42.070313 32.472656 42.75 30.960938 43.113281 29.605469 L 35.527344 29.605469 C 34.4375 29.605469 33.550781 28.726563 33.550781 27.632813 C 33.550781 26.542969 34.4375 25.65625 35.527344 25.65625 L 39.472656 25.65625 L 39.472656 23.683594 C 39.472656 22.597656 40.359375 21.710938 41.449219 21.710938 Z M 17.761719 22.773438 L 15.679688 27.632813 L 19.84375 27.632813 Z "/>
</g>
</svg>
