<?xml version="1.0" encoding="UTF-8"?>
<svg xmlns="http://www.w3.org/2000/svg"  width="60pt" height="60pt" viewBox="0 0 60 60" version="1.1">
<g id="surface1">
<path style=" stroke:none;fill-rule:nonzero;fill:#FDFDFD;fill-opacity:1;" d="M 18.84375 7.894531 C 11.703125 7.894531 5.921875 13.675781 5.921875 20.816406 C 5.921875 33.230469 20.332031 45.101563 27.054688 50.382813 C 27.0625 50.390625 27.070313 50.390625 27.078125 50.398438 C 27.121094 50.4375 27.183594 50.484375 27.230469 50.523438 L 27.230469 50.515625 C 27.917969 51.03125 28.75 51.316406 29.605469 51.316406 C 30.460938 51.316406 31.292969 51.039063 31.980469 50.515625 L 31.980469 50.523438 C 31.996094 50.515625 32.011719 50.5 32.027344 50.484375 C 32.035156 50.476563 32.050781 50.46875 32.066406 50.460938 C 32.074219 50.453125 32.085938 50.4375 32.101563 50.421875 C 38.8125 45.164063 53.289063 33.257813 53.289063 20.816406 C 53.289063 13.675781 47.507813 7.894531 40.367188 7.894531 C 33.550781 7.894531 29.605469 13.816406 29.605469 13.816406 C 29.605469 13.816406 25.65625 7.894531 18.84375 7.894531 Z "/>
</g>
</svg>
