<?xml version="1.0" encoding="UTF-8"?>
<svg xmlns="http://www.w3.org/2000/svg"  width="60pt" height="60pt" viewBox="0 0 60 60" version="1.1">
<g id="surface1">
<path style=" stroke:none;fill-rule:nonzero;fill:#FDFDFD;fill-opacity:1;" d="M 29.605469 3.949219 C 26.335938 3.949219 23.683594 6.597656 23.683594 9.867188 C 23.683594 13.136719 26.335938 15.789063 29.605469 15.789063 C 32.875 15.789063 35.527344 13.136719 35.527344 9.867188 C 35.527344 6.597656 32.875 3.949219 29.605469 3.949219 Z M 27.632813 19.738281 C 24.386719 19.738281 21.710938 22.414063 21.710938 25.65625 L 21.710938 37.5 C 21.703125 38.023438 21.910156 38.539063 22.28125 38.910156 C 22.652344 39.289063 23.152344 39.496094 23.683594 39.503906 L 23.683594 51.253906 C 23.683594 52.371094 24.601563 53.289063 25.71875 53.289063 C 26.800781 53.289063 27.6875 52.457031 27.753906 51.386719 L 28.617188 38.417969 C 28.65625 37.902344 29.089844 37.5 29.605469 37.5 C 30.121094 37.5 30.554688 37.902344 30.59375 38.425781 L 31.457031 51.386719 C 31.523438 52.457031 32.410156 53.289063 33.492188 53.289063 C 34.609375 53.289063 35.527344 52.371094 35.527344 51.253906 L 35.527344 39.503906 C 36.058594 39.496094 36.558594 39.289063 36.929688 38.910156 C 37.300781 38.539063 37.507813 38.023438 37.5 37.5 L 37.5 25.65625 C 37.5 22.414063 34.824219 19.738281 31.578125 19.738281 Z "/>
</g>
</svg>
