<?xml version="1.0" encoding="UTF-8"?>
<svg xmlns="http://www.w3.org/2000/svg" xmlns:xlink="http://www.w3.org/1999/xlink" width="60pt" height="60pt" viewBox="0 0 60 60" version="1.1">
<g id="surface1">
<path style=" stroke:none;fill-rule:nonzero;fill:#FDFDFD;fill-opacity:1;" d="M 29.605469 3.949219 C 21.996094 3.949219 15.789063 10.152344 15.789063 17.761719 L 15.789063 21.710938 L 11.84375 21.710938 C 9.660156 21.710938 7.894531 23.476563 7.894531 25.65625 L 7.894531 49.34375 C 7.894531 51.523438 9.660156 53.289063 11.84375 53.289063 L 47.367188 53.289063 C 49.550781 53.289063 51.316406 51.523438 51.316406 49.34375 L 51.316406 25.65625 C 51.316406 23.476563 49.550781 21.710938 47.367188 21.710938 L 43.421875 21.710938 L 43.421875 17.761719 C 43.421875 10.40625 37.570313 4.480469 30.308594 4.085938 C 30.082031 4 29.84375 3.953125 29.605469 3.949219 Z M 29.605469 7.894531 C 35.078125 7.894531 39.472656 12.289063 39.472656 17.761719 L 39.472656 21.710938 L 19.738281 21.710938 L 19.738281 17.761719 C 19.738281 12.289063 24.132813 7.894531 29.605469 7.894531 Z M 29.605469 27.632813 C 35.054688 27.632813 39.472656 32.050781 39.472656 37.5 C 39.472656 42.949219 35.054688 47.367188 29.605469 47.367188 C 24.15625 47.367188 19.738281 42.949219 19.738281 37.5 C 19.738281 32.050781 24.15625 27.632813 29.605469 27.632813 Z M 29.605469 31.578125 C 26.335938 31.578125 23.683594 34.230469 23.683594 37.5 C 23.683594 40.769531 26.335938 43.421875 29.605469 43.421875 C 32.875 43.421875 35.527344 40.769531 35.527344 37.5 C 35.527344 36.582031 35.304688 35.734375 34.933594 34.964844 C 34.578125 35.308594 34.09375 35.527344 33.550781 35.527344 C 32.464844 35.527344 31.578125 34.640625 31.578125 33.550781 C 31.578125 33.011719 31.792969 32.527344 32.140625 32.171875 C 31.371094 31.800781 30.523438 31.578125 29.605469 31.578125 Z "/>
</g>
</svg>
