<?xml version="1.0" encoding="UTF-8"?>
<svg xmlns="http://www.w3.org/2000/svg" xmlns:xlink="http://www.w3.org/1999/xlink" width="60pt" height="60pt" viewBox="0 0 60 60" version="1.1">
<g id="surface1">
<path style=" stroke:none;fill-rule:nonzero;fill:#FDFDFD;fill-opacity:1;" d="M 11.84375 7.894531 C 9.660156 7.894531 7.894531 9.660156 7.894531 11.84375 L 7.894531 19.738281 C 7.894531 21.917969 9.660156 23.683594 11.84375 23.683594 L 19.738281 23.683594 C 21.917969 23.683594 23.683594 21.917969 23.683594 19.738281 L 23.683594 11.84375 C 23.683594 9.660156 21.917969 7.894531 19.738281 7.894531 Z M 39.472656 7.894531 C 37.292969 7.894531 35.527344 9.660156 35.527344 11.84375 L 35.527344 19.738281 C 35.527344 21.917969 37.292969 23.683594 39.472656 23.683594 L 47.367188 23.683594 C 49.550781 23.683594 51.316406 21.917969 51.316406 19.738281 L 51.316406 11.84375 C 51.316406 9.660156 49.550781 7.894531 47.367188 7.894531 Z M 11.84375 11.84375 L 19.738281 11.84375 L 19.738281 19.738281 L 11.84375 19.738281 Z M 27.632813 11.84375 L 27.632813 15.789063 L 31.578125 15.789063 L 31.578125 11.84375 Z M 39.472656 11.84375 L 47.367188 11.84375 L 47.367188 19.738281 L 39.472656 19.738281 Z M 13.816406 13.816406 L 13.816406 17.761719 L 17.761719 17.761719 L 17.761719 13.816406 Z M 41.449219 13.816406 L 41.449219 17.761719 L 45.394531 17.761719 L 45.394531 13.816406 Z M 27.632813 19.738281 L 27.632813 23.683594 L 31.578125 23.683594 L 31.578125 19.738281 Z M 11.84375 27.632813 L 11.84375 31.578125 L 15.789063 31.578125 L 15.789063 27.632813 Z M 19.738281 27.632813 L 19.738281 31.578125 L 23.683594 31.578125 L 23.683594 27.632813 Z M 27.632813 27.632813 L 27.632813 31.578125 L 31.578125 31.578125 L 31.578125 27.632813 Z M 31.578125 31.578125 L 31.578125 35.527344 L 35.527344 35.527344 L 35.527344 31.578125 Z M 35.527344 31.578125 L 39.472656 31.578125 L 39.472656 27.632813 L 35.527344 27.632813 Z M 39.472656 31.578125 L 39.472656 35.527344 L 43.421875 35.527344 L 43.421875 31.578125 Z M 43.421875 31.578125 L 47.367188 31.578125 L 47.367188 27.632813 L 43.421875 27.632813 Z M 47.367188 31.578125 L 47.367188 35.527344 L 51.316406 35.527344 L 51.316406 31.578125 Z M 47.367188 35.527344 L 43.421875 35.527344 L 43.421875 39.472656 L 47.367188 39.472656 Z M 47.367188 39.472656 L 47.367188 43.421875 L 51.316406 43.421875 L 51.316406 39.472656 Z M 47.367188 43.421875 L 43.421875 43.421875 L 43.421875 47.367188 L 47.367188 47.367188 Z M 43.421875 47.367188 L 39.472656 47.367188 L 39.472656 51.316406 L 43.421875 51.316406 Z M 39.472656 47.367188 L 39.472656 43.421875 L 35.527344 43.421875 L 35.527344 47.367188 Z M 35.527344 47.367188 L 31.578125 47.367188 L 31.578125 51.316406 L 35.527344 51.316406 Z M 31.578125 47.367188 L 31.578125 43.421875 L 27.632813 43.421875 L 27.632813 47.367188 Z M 31.578125 43.421875 L 35.527344 43.421875 L 35.527344 39.472656 L 31.578125 39.472656 Z M 31.578125 39.472656 L 31.578125 35.527344 L 27.632813 35.527344 L 27.632813 39.472656 Z M 35.527344 39.472656 L 39.472656 39.472656 L 39.472656 35.527344 L 35.527344 35.527344 Z M 39.472656 39.472656 L 39.472656 43.421875 L 43.421875 43.421875 L 43.421875 39.472656 Z M 11.84375 35.527344 C 9.660156 35.527344 7.894531 37.292969 7.894531 39.472656 L 7.894531 47.367188 C 7.894531 49.550781 9.660156 51.316406 11.84375 51.316406 L 19.738281 51.316406 C 21.917969 51.316406 23.683594 49.550781 23.683594 47.367188 L 23.683594 39.472656 C 23.683594 37.292969 21.917969 35.527344 19.738281 35.527344 Z M 11.84375 39.472656 L 19.738281 39.472656 L 19.738281 47.367188 L 11.84375 47.367188 Z M 13.816406 41.449219 L 13.816406 45.394531 L 17.761719 45.394531 L 17.761719 41.449219 Z "/>
</g>
</svg>
