<?xml version="1.0" encoding="UTF-8"?>
<svg xmlns="http://www.w3.org/2000/svg" xmlns:xlink="http://www.w3.org/1999/xlink" width="60pt" height="60pt" viewBox="0 0 60 60" version="1.1">
<g id="surface1">
<path style=" stroke:none;fill-rule:nonzero;fill:#FDFDFD;fill-opacity:1;" d="M 25.65625 5.921875 C 14.78125 5.921875 5.921875 14.78125 5.921875 25.65625 C 5.921875 36.535156 14.78125 45.394531 25.65625 45.394531 C 30.390625 45.394531 34.730469 43.714844 38.140625 40.921875 L 49.921875 52.710938 C 50.414063 53.226563 51.152344 53.4375 51.839844 53.25 C 52.535156 53.074219 53.074219 52.535156 53.25 51.839844 C 53.4375 51.152344 53.226563 50.414063 52.710938 49.921875 L 40.921875 38.140625 C 43.714844 34.730469 45.394531 30.390625 45.394531 25.65625 C 45.394531 14.78125 36.535156 5.921875 25.65625 5.921875 Z M 25.65625 9.867188 C 34.402344 9.867188 41.449219 16.914063 41.449219 25.65625 C 41.449219 34.402344 34.402344 41.449219 25.65625 41.449219 C 16.914063 41.449219 9.867188 34.402344 9.867188 25.65625 C 9.867188 16.914063 16.914063 9.867188 25.65625 9.867188 Z "/>
</g>
</svg>
