<?xml version="1.0" encoding="UTF-8"?>
<svg xmlns="http://www.w3.org/2000/svg" xmlns:xlink="http://www.w3.org/1999/xlink" width="100pt" height="100pt" viewBox="0 0 100 100" version="1.1">
<g id="surface1">
<path style=" stroke:none;fill-rule:nonzero;fill:#FDFDFD;fill-opacity:1;" d="M 93.570313 42.109375 L 81.84375 40.1875 C 81.15625 37.839844 80.21875 35.574219 79.046875 33.4375 L 85.890625 23.679688 C 86.441406 22.886719 86.347656 21.816406 85.667969 21.136719 L 77.953125 13.425781 C 77.265625 12.734375 76.179688 12.640625 75.390625 13.214844 L 65.777344 20.121094 C 63.625 18.925781 61.335938 17.980469 58.972656 17.292969 L 56.925781 5.613281 C 56.757813 4.664063 55.933594 3.96875 54.972656 3.96875 L 44.0625 3.96875 C 43.085938 3.96875 42.253906 4.671875 42.101563 5.632813 L 40.203125 17.246094 C 37.824219 17.933594 35.535156 18.871094 33.382813 20.050781 L 23.800781 13.207031 C 23.011719 12.640625 21.933594 12.726563 21.242188 13.417969 L 13.53125 21.128906 C 12.851563 21.808594 12.757813 22.878906 13.308594 23.671875 L 20.050781 33.3125 C 18.855469 35.488281 17.894531 37.792969 17.199219 40.179688 L 5.632813 42.109375 C 4.671875 42.261719 3.976563 43.09375 3.976563 44.0625 L 3.976563 54.972656 C 3.976563 55.933594 4.664063 56.765625 5.613281 56.925781 L 17.175781 58.980469 C 17.871094 61.367188 18.824219 63.671875 20.035156 65.847656 L 13.207031 75.398438 C 12.640625 76.1875 12.726563 77.265625 13.417969 77.953125 L 21.128906 85.675781 C 21.808594 86.355469 22.878906 86.449219 23.671875 85.898438 L 33.335938 79.132813 C 35.503906 80.320313 37.792969 81.273438 40.171875 81.953125 L 42.109375 93.578125 C 42.261719 94.539063 43.09375 95.238281 44.0625 95.238281 L 54.972656 95.238281 C 55.933594 95.238281 56.757813 94.546875 56.925781 93.601563 L 58.996094 81.914063 C 61.375 81.21875 63.65625 80.265625 65.800781 79.070313 L 75.535156 85.890625 C 76.328125 86.449219 77.394531 86.355469 78.078125 85.675781 L 85.789063 77.953125 C 86.480469 77.265625 86.574219 76.179688 86 75.390625 L 79.0625 65.753906 C 80.234375 63.609375 81.171875 61.34375 81.851563 58.988281 L 93.59375 56.925781 C 94.539063 56.765625 95.230469 55.933594 95.230469 54.972656 L 95.230469 44.0625 C 95.238281 43.09375 94.53125 42.261719 93.570313 42.109375 Z M 49.601563 63.492188 C 41.929688 63.492188 35.714844 57.277344 35.714844 49.601563 C 35.714844 41.929688 41.929688 35.714844 49.601563 35.714844 C 57.277344 35.714844 63.492188 41.929688 63.492188 49.601563 C 63.492188 57.277344 57.277344 63.492188 49.601563 63.492188 Z "/>
</g>
</svg>
