<?xml version="1.0" encoding="UTF-8"?>
<svg xmlns="http://www.w3.org/2000/svg" xmlns:xlink="http://www.w3.org/1999/xlink" width="60pt" height="60pt" viewBox="0 0 60 60" version="1.1">
<g id="surface1">
<path style=" stroke:none;fill-rule:nonzero;fill:#FDFDFD;fill-opacity:1;" d="M 13.816406 3.949219 C 11.632813 3.949219 9.867188 5.710938 9.867188 7.894531 L 9.867188 35.527344 C 9.867188 37.707031 11.632813 39.472656 13.816406 39.472656 L 45.394531 39.472656 C 47.578125 39.472656 49.34375 37.707031 49.34375 35.527344 L 49.34375 7.894531 C 49.34375 5.710938 47.578125 3.949219 45.394531 3.949219 Z M 35.527344 7.972656 C 37.570313 7.972656 39.613281 8.710938 41.109375 10.207031 C 42.597656 11.695313 43.421875 13.683594 43.421875 15.789063 C 43.421875 17.894531 42.605469 19.882813 41.109375 21.371094 L 37.160156 25.320313 C 35.671875 26.8125 33.683594 27.632813 31.578125 27.632813 C 30.398438 27.632813 29.257813 27.371094 28.21875 26.882813 C 26.96875 26.289063 26.660156 24.65625 27.640625 23.675781 C 28.242188 23.066406 29.144531 22.960938 29.921875 23.304688 C 31.378906 23.945313 33.207031 23.691406 34.363281 22.527344 L 38.21875 18.671875 C 38.925781 17.972656 39.40625 17.039063 39.464844 16.035156 C 39.535156 14.894531 39.117188 13.800781 38.308594 13 C 37.507813 12.195313 36.421875 11.78125 35.273438 11.851563 C 34.269531 11.910156 33.34375 12.390625 32.636719 13.089844 L 31.957031 13.769531 C 30.46875 13.121094 28.878906 12.804688 27.292969 12.859375 L 29.945313 10.207031 C 31.433594 8.710938 33.476563 7.972656 35.527344 7.972656 Z M 27.632813 15.867188 C 28.8125 15.867188 29.953125 16.121094 30.992188 16.605469 C 32.242188 17.199219 32.550781 18.84375 31.570313 19.820313 C 30.96875 20.421875 30.066406 20.539063 29.289063 20.199219 C 27.832031 19.550781 26.003906 19.804688 24.847656 20.96875 L 20.992188 24.824219 C 20.285156 25.527344 19.804688 26.460938 19.746094 27.453125 C 19.675781 28.601563 20.089844 29.699219 20.902344 30.5 C 21.703125 31.300781 22.789063 31.71875 23.9375 31.648438 C 24.941406 31.585938 25.867188 31.109375 26.574219 30.40625 L 27.253906 29.730469 C 28.742188 30.375 30.328125 30.691406 31.917969 30.636719 L 29.265625 33.289063 C 26.28125 36.273438 21.085938 36.273438 18.101563 33.289063 C 16.605469 31.792969 15.789063 29.8125 15.789063 27.699219 C 15.789063 25.597656 16.605469 23.613281 18.101563 22.125 L 22.050781 18.179688 C 23.539063 16.683594 25.527344 15.867188 27.632813 15.867188 Z M 9.867188 42.320313 L 9.867188 51.316406 C 9.867188 53.496094 11.632813 55.261719 13.816406 55.261719 L 45.394531 55.261719 C 47.578125 55.261719 49.34375 53.496094 49.34375 51.316406 L 49.34375 42.320313 C 48.179688 43.003906 46.835938 43.421875 45.394531 43.421875 L 13.816406 43.421875 C 12.375 43.421875 11.03125 43.003906 9.867188 42.320313 Z M 43.421875 47.367188 C 44.507813 47.367188 45.394531 48.253906 45.394531 49.34375 C 45.394531 50.429688 44.507813 51.316406 43.421875 51.316406 C 42.335938 51.316406 41.449219 50.429688 41.449219 49.34375 C 41.449219 48.253906 42.335938 47.367188 43.421875 47.367188 Z "/>
</g>
</svg>
