<?xml version="1.0" encoding="UTF-8"?>
<svg xmlns="http://www.w3.org/2000/svg" xmlns:xlink="http://www.w3.org/1999/xlink" width="60pt" height="60pt" viewBox="0 0 60 60" version="1.1">
<g id="surface1">
<path style=" stroke:none;fill-rule:nonzero;fill:#FDFDFD;fill-opacity:1;" d="M 39.472656 7.894531 C 36.921875 7.894531 34.746094 9.558594 33.921875 11.84375 L 7.894531 11.84375 C 7.183594 11.835938 6.523438 12.203125 6.160156 12.820313 C 5.804688 13.4375 5.804688 14.195313 6.160156 14.808594 C 6.523438 15.425781 7.183594 15.796875 7.894531 15.789063 L 33.921875 15.789063 C 34.746094 18.070313 36.921875 19.738281 39.472656 19.738281 C 42.027344 19.738281 44.199219 18.070313 45.023438 15.789063 L 51.316406 15.789063 C 52.023438 15.796875 52.6875 15.425781 53.050781 14.808594 C 53.40625 14.195313 53.40625 13.4375 53.050781 12.820313 C 52.6875 12.203125 52.023438 11.835938 51.316406 11.84375 L 45.023438 11.84375 C 44.199219 9.558594 42.027344 7.894531 39.472656 7.894531 Z M 39.472656 11.84375 C 40.546875 11.84375 41.363281 12.652344 41.425781 13.707031 C 41.417969 13.777344 41.417969 13.855469 41.425781 13.929688 C 41.363281 14.988281 40.546875 15.789063 39.472656 15.789063 C 38.402344 15.789063 37.585938 14.980469 37.523438 13.921875 C 37.53125 13.855469 37.53125 13.777344 37.523438 13.699219 C 37.585938 12.644531 38.402344 11.84375 39.472656 11.84375 Z M 23.683594 23.683594 C 21.132813 23.683594 18.957031 25.347656 18.132813 27.632813 L 7.894531 27.632813 C 7.183594 27.625 6.523438 27.992188 6.160156 28.609375 C 5.804688 29.226563 5.804688 29.984375 6.160156 30.601563 C 6.523438 31.214844 7.183594 31.585938 7.894531 31.578125 L 18.132813 31.578125 C 18.957031 33.859375 21.132813 35.527344 23.683594 35.527344 C 26.234375 35.527344 28.410156 33.859375 29.234375 31.578125 L 51.316406 31.578125 C 52.023438 31.585938 52.6875 31.214844 53.050781 30.601563 C 53.40625 29.984375 53.40625 29.226563 53.050781 28.609375 C 52.6875 27.992188 52.023438 27.625 51.316406 27.632813 L 29.234375 27.632813 C 28.410156 25.347656 26.234375 23.683594 23.683594 23.683594 Z M 23.683594 27.632813 C 24.757813 27.632813 25.574219 28.441406 25.632813 29.488281 C 25.628906 29.566406 25.628906 29.644531 25.632813 29.722656 C 25.574219 30.777344 24.757813 31.578125 23.683594 31.578125 C 22.613281 31.578125 21.796875 30.769531 21.734375 29.722656 C 21.742188 29.644531 21.742188 29.566406 21.734375 29.488281 C 21.796875 28.433594 22.613281 27.632813 23.683594 27.632813 Z M 31.578125 39.472656 C 29.027344 39.472656 26.851563 41.140625 26.027344 43.421875 L 7.894531 43.421875 C 7.183594 43.414063 6.523438 43.785156 6.160156 44.398438 C 5.804688 45.015625 5.804688 45.773438 6.160156 46.390625 C 6.523438 47.007813 7.183594 47.375 7.894531 47.367188 L 26.027344 47.367188 C 26.851563 49.652344 29.027344 51.316406 31.578125 51.316406 C 34.132813 51.316406 36.304688 49.652344 37.128906 47.367188 L 51.316406 47.367188 C 52.023438 47.375 52.6875 47.007813 53.050781 46.390625 C 53.40625 45.773438 53.40625 45.015625 53.050781 44.398438 C 52.6875 43.785156 52.023438 43.414063 51.316406 43.421875 L 37.128906 43.421875 C 36.304688 41.140625 34.132813 39.472656 31.578125 39.472656 Z M 31.578125 43.421875 C 32.652344 43.421875 33.46875 44.230469 33.53125 45.277344 C 33.523438 45.355469 33.523438 45.433594 33.53125 45.511719 C 33.46875 46.566406 32.652344 47.367188 31.578125 47.367188 C 30.507813 47.367188 29.691406 46.558594 29.628906 45.511719 C 29.636719 45.433594 29.636719 45.355469 29.628906 45.277344 C 29.691406 44.222656 30.507813 43.421875 31.578125 43.421875 Z "/>
</g>
</svg>
