<?xml version="1.0" encoding="UTF-8"?>
<svg xmlns="http://www.w3.org/2000/svg" xmlns:xlink="http://www.w3.org/1999/xlink" width="480pt" height="480pt" viewBox="0 0 480 480" version="1.1">
<g id="surface1">
<path style=" stroke:none;fill-rule:nonzero;fill:#607D8B;fill-opacity:1;" d="M 90 280 L 120 280 L 120 420 L 90 420 Z "/>
<path style=" stroke:none;fill-rule:nonzero;fill:#607D8B;fill-opacity:1;" d="M 90 390 L 350 390 L 350 420 L 90 420 Z "/>
<path style=" stroke:none;fill-rule:nonzero;fill:#607D8B;fill-opacity:1;" d="M 320 280 L 350 280 L 350 420 L 320 420 Z "/>
<path style=" stroke:none;fill-rule:nonzero;fill:#607D8B;fill-opacity:1;" d="M 150 340 L 290 340 L 290 370 L 150 370 Z "/>
<path style=" stroke:none;fill-rule:nonzero;fill:#A68A6E;fill-opacity:1;" d="M 150.8125 282.609375 L 290.015625 297.585938 L 286.804688 327.417969 L 147.601563 312.4375 Z "/>
<path style=" stroke:none;fill-rule:nonzero;fill:#EF6C00;fill-opacity:1;" d="M 368.699219 59.996094 L 390.035156 198.351563 L 360.375 202.921875 L 339.039063 64.570313 Z "/>
<path style=" stroke:none;fill-rule:nonzero;fill:#FF9800;fill-opacity:1;" d="M 284.691406 82.359375 L 353 204.535156 L 326.808594 219.179688 L 258.5 97.003906 Z "/>
<path style=" stroke:none;fill-rule:nonzero;fill:#D38B28;fill-opacity:1;" d="M 205.015625 145.511719 L 320.007813 225.328125 L 302.894531 249.980469 L 187.902344 170.164063 Z "/>
<path style=" stroke:none;fill-rule:nonzero;fill:#C09553;fill-opacity:1;" d="M 169 212.1875 L 300.730469 259.574219 L 290.574219 287.8125 L 158.84375 240.425781 Z "/>
</g>
</svg>
