<?xml version="1.0" encoding="UTF-8"?>
<svg xmlns="http://www.w3.org/2000/svg" xmlns:xlink="http://www.w3.org/1999/xlink" width="60pt" height="60pt" viewBox="0 0 60 60" version="1.1">
<g id="surface1">
<path style=" stroke:none;fill-rule:nonzero;fill:#FDFDFD;fill-opacity:1;" d="M 29.605469 9.867188 C 18.703125 9.867188 8.835938 14.285156 1.695313 21.433594 L 8.679688 28.417969 C 14.039063 23.058594 21.441406 19.738281 29.605469 19.738281 C 37.753906 19.738281 45.140625 23.042969 50.5 28.386719 C 50.515625 28.394531 50.53125 28.394531 50.542969 28.402344 L 57.515625 21.433594 C 50.375 14.285156 40.507813 9.867188 29.605469 9.867188 Z M 29.605469 23.683594 C 22.527344 23.683594 16.121094 26.558594 11.472656 31.207031 L 18.441406 38.179688 C 21.300781 35.324219 25.25 33.550781 29.605469 33.550781 C 30.421875 33.550781 31.222656 33.636719 32.011719 33.761719 C 34.863281 30.484375 38.871094 28.257813 43.414063 27.753906 C 39.417969 25.1875 34.6875 23.683594 29.605469 23.683594 Z M 45.394531 31.578125 C 37.761719 31.578125 31.578125 37.761719 31.578125 45.394531 C 31.578125 53.027344 37.761719 59.210938 45.394531 59.210938 C 53.027344 59.210938 59.210938 53.027344 59.210938 45.394531 C 59.210938 37.761719 53.027344 31.578125 45.394531 31.578125 Z M 29.503906 37.507813 C 26.273438 37.539063 23.359375 38.855469 21.242188 40.976563 L 27.769531 47.507813 C 27.6875 46.8125 27.632813 46.113281 27.632813 45.394531 C 27.632813 42.558594 28.316406 39.890625 29.503906 37.507813 Z M 51.316406 39.472656 C 51.816406 39.472656 52.324219 39.667969 52.710938 40.050781 C 53.480469 40.824219 53.480469 42.070313 52.710938 42.84375 L 44.816406 50.738281 C 44.429688 51.125 43.929688 51.316406 43.421875 51.316406 C 42.914063 51.316406 42.410156 51.125 42.027344 50.738281 L 38.078125 46.789063 C 37.308594 46.019531 37.308594 44.769531 38.078125 44 C 38.847656 43.226563 40.097656 43.226563 40.867188 44 L 43.421875 46.550781 L 49.921875 40.050781 C 50.304688 39.667969 50.816406 39.472656 51.316406 39.472656 Z "/>
</g>
</svg>
