<?xml version="1.0" encoding="UTF-8"?>
<svg xmlns="http://www.w3.org/2000/svg" xmlns:xlink="http://www.w3.org/1999/xlink" width="60pt" height="60pt" viewBox="0 0 60 60" version="1.1">
<g id="surface1">
<path style=" stroke:none;fill-rule:nonzero;fill:#FDFDFD;fill-opacity:1;" d="M 29.605469 9.867188 C 18.703125 9.867188 8.835938 14.285156 1.695313 21.433594 L 8.679688 28.417969 C 14.039063 23.058594 21.441406 19.738281 29.605469 19.738281 C 37.769531 19.738281 45.171875 23.058594 50.53125 28.417969 L 57.515625 21.433594 C 50.375 14.285156 40.507813 9.867188 29.605469 9.867188 Z M 29.605469 23.683594 C 22.527344 23.683594 16.121094 26.558594 11.472656 31.207031 L 18.441406 38.179688 C 21.300781 35.324219 25.25 33.550781 29.605469 33.550781 C 33.960938 33.550781 37.910156 35.324219 40.769531 38.179688 L 47.738281 31.207031 C 43.089844 26.558594 36.683594 23.683594 29.605469 23.683594 Z M 29.605469 37.5 C 26.34375 37.5 23.382813 38.824219 21.242188 40.976563 L 29.605469 49.34375 L 37.96875 40.976563 C 35.828125 38.824219 32.867188 37.5 29.605469 37.5 Z "/>
</g>
</svg>
